<?xml version="1.0" encoding="UTF-8" standalone="no"?>
<svg
   xmlns:dc="http://purl.org/dc/elements/1.1/"
   xmlns:cc="http://creativecommons.org/ns#"
   xmlns:rdf="http://www.w3.org/1999/02/22-rdf-syntax-ns#"
   xmlns:svg="http://www.w3.org/2000/svg"
   xmlns="http://www.w3.org/2000/svg"
   viewBox="0 0 805.33331 605.33331"
   height="605.33331"
   width="805.33331"
   xml:space="preserve"
   id="svg2"
   version="1.1"><metadata
     id="metadata8"><rdf:RDF><cc:Work
         rdf:about=""><dc:format>image/svg+xml</dc:format><dc:type
           rdf:resource="http://purl.org/dc/dcmitype/StillImage" /></cc:Work></rdf:RDF></metadata><defs
     id="defs6"><clipPath
       id="clipPath18"
       clipPathUnits="userSpaceOnUse"><path
         style="clip-rule:evenodd"
         id="path16"
         d="M 0,0 H 604 V 453.93787 H 0 Z" /></clipPath><clipPath
       id="clipPath30"
       clipPathUnits="userSpaceOnUse"><path
         style="clip-rule:evenodd"
         id="path28"
         d="M 0,0 H 600.24841 V 450.18631 H 0 Z" /></clipPath><clipPath
       id="clipPath146"
       clipPathUnits="userSpaceOnUse"><path
         style="clip-rule:evenodd"
         id="path144"
         d="M 562.73291,37.515526 H 112.54658 V 337.63974 h 450.18633 z" /></clipPath><clipPath
       id="clipPath154"
       clipPathUnits="userSpaceOnUse"><path
         id="path152"
         d="M 0,0 H 17 V 16 H 0 Z" /></clipPath><clipPath
       id="clipPath174"
       clipPathUnits="userSpaceOnUse"><path
         id="path172"
         d="M 0,0 H 37 V 36 H 0 Z" /></clipPath><clipPath
       id="clipPath194"
       clipPathUnits="userSpaceOnUse"><path
         id="path192"
         d="M 0,0 H 17 V 17 H 0 Z" /></clipPath><clipPath
       id="clipPath214"
       clipPathUnits="userSpaceOnUse"><path
         id="path212"
         d="M 0,0 H 16 V 17 H 0 Z" /></clipPath><clipPath
       id="clipPath234"
       clipPathUnits="userSpaceOnUse"><path
         id="path232"
         d="M 0,0 H 16 V 16 H 0 Z" /></clipPath><clipPath
       id="clipPath254"
       clipPathUnits="userSpaceOnUse"><path
         id="path252"
         d="M 0,0 H 30 V 31 H 0 Z" /></clipPath><clipPath
       id="clipPath274"
       clipPathUnits="userSpaceOnUse"><path
         id="path272"
         d="M 0,0 H 16 V 17 H 0 Z" /></clipPath><clipPath
       id="clipPath294"
       clipPathUnits="userSpaceOnUse"><path
         id="path292"
         d="M 0,0 H 30 V 31 H 0 Z" /></clipPath><clipPath
       id="clipPath314"
       clipPathUnits="userSpaceOnUse"><path
         id="path312"
         d="M 0,0 H 17 V 16 H 0 Z" /></clipPath><clipPath
       id="clipPath334"
       clipPathUnits="userSpaceOnUse"><path
         id="path332"
         d="M 0,0 H 31 V 31 H 0 Z" /></clipPath><clipPath
       id="clipPath354"
       clipPathUnits="userSpaceOnUse"><path
         id="path352"
         d="M 0,0 H 17 V 17 H 0 Z" /></clipPath><clipPath
       id="clipPath374"
       clipPathUnits="userSpaceOnUse"><path
         id="path372"
         d="M 0,0 H 50 V 50 H 0 Z" /></clipPath><clipPath
       id="clipPath394"
       clipPathUnits="userSpaceOnUse"><path
         id="path392"
         d="M 0,0 H 17 V 17 H 0 Z" /></clipPath><clipPath
       id="clipPath414"
       clipPathUnits="userSpaceOnUse"><path
         id="path412"
         d="M 0,0 H 17 V 17 H 0 Z" /></clipPath><clipPath
       id="clipPath434"
       clipPathUnits="userSpaceOnUse"><path
         id="path432"
         d="M 0,0 H 17 V 17 H 0 Z" /></clipPath><clipPath
       id="clipPath454"
       clipPathUnits="userSpaceOnUse"><path
         id="path452"
         d="M 0,0 H 41 V 42 H 0 Z" /></clipPath><clipPath
       id="clipPath474"
       clipPathUnits="userSpaceOnUse"><path
         id="path472"
         d="M 0,0 H 16 V 17 H 0 Z" /></clipPath><clipPath
       id="clipPath494"
       clipPathUnits="userSpaceOnUse"><path
         id="path492"
         d="M 0,0 H 16 V 17 H 0 Z" /></clipPath><clipPath
       id="clipPath514"
       clipPathUnits="userSpaceOnUse"><path
         id="path512"
         d="M 0,0 H 16 V 16 H 0 Z" /></clipPath><clipPath
       id="clipPath534"
       clipPathUnits="userSpaceOnUse"><path
         id="path532"
         d="M 0,0 H 62 V 62 H 0 Z" /></clipPath><clipPath
       id="clipPath554"
       clipPathUnits="userSpaceOnUse"><path
         id="path552"
         d="M 0,0 H 65 V 65 H 0 Z" /></clipPath><clipPath
       id="clipPath574"
       clipPathUnits="userSpaceOnUse"><path
         id="path572"
         d="M 0,0 H 30 V 31 H 0 Z" /></clipPath><clipPath
       id="clipPath594"
       clipPathUnits="userSpaceOnUse"><path
         id="path592"
         d="M 0,0 H 41 V 41 H 0 Z" /></clipPath><clipPath
       id="clipPath614"
       clipPathUnits="userSpaceOnUse"><path
         id="path612"
         d="M 0,0 H 17 V 17 H 0 Z" /></clipPath><clipPath
       id="clipPath634"
       clipPathUnits="userSpaceOnUse"><path
         id="path632"
         d="M 0,0 H 17 V 17 H 0 Z" /></clipPath><clipPath
       id="clipPath654"
       clipPathUnits="userSpaceOnUse"><path
         id="path652"
         d="M 0,0 H 17 V 17 H 0 Z" /></clipPath><clipPath
       id="clipPath674"
       clipPathUnits="userSpaceOnUse"><path
         id="path672"
         d="M 0,0 H 17 V 17 H 0 Z" /></clipPath><clipPath
       id="clipPath804"
       clipPathUnits="userSpaceOnUse"><path
         style="clip-rule:evenodd"
         id="path802"
         d="M 0,0 H 600.24841 V 450.18631 H 0 Z" /></clipPath></defs><g
     transform="matrix(1.3333333,0,0,1.3333333,0,1.18e-5)"
     id="g10"><g
       id="g12"><g
         clip-path="url(#clipPath18)"
         id="g14"><g
           transform="scale(0.75031054)"
           id="g20"><path
             id="path22"
             style="fill:#ffffff;fill-opacity:1;fill-rule:nonzero;stroke:none"
             d="M 0,0 H 805 V 605 H 0 Z" /></g></g></g><g
       id="g24"><g
         clip-path="url(#clipPath30)"
         id="g26"><g
           transform="scale(0.75031054)"
           id="g32"><path
             id="path34"
             style="fill:#000000;fill-opacity:0;fill-rule:nonzero;stroke:none"
             d="M 0,0 H 800 V 600 H 0 Z" /><path
             id="path36"
             style="fill:#ffffff;fill-opacity:1;fill-rule:nonzero;stroke:none"
             d="M 146,46 H 754 V 454 H 146 Z" /></g><g
           transform="matrix(0.75031054,0,0,0.75031054,156.60481,0)"
           id="g38"><path
             id="path40"
             style="fill:#000000;fill-opacity:1;fill-rule:nonzero;stroke:none"
             d="M 0,50 V 450" /><path
             id="path42"
             style="fill:none;stroke:#eeeeee;stroke-width:1;stroke-linecap:butt;stroke-linejoin:miter;stroke-miterlimit:10;stroke-dasharray:none;stroke-opacity:1"
             d="M 0,50 V 450" /></g><g
           transform="matrix(0.75031054,0,0,0.75031054,218.97813,0)"
           id="g44"><path
             id="path46"
             style="fill:#000000;fill-opacity:1;fill-rule:nonzero;stroke:none"
             d="M 0,50 V 450" /><path
             id="path48"
             style="fill:none;stroke:#eeeeee;stroke-width:1;stroke-linecap:butt;stroke-linejoin:miter;stroke-miterlimit:10;stroke-dasharray:none;stroke-opacity:1"
             d="M 0,50 V 450" /></g><g
           transform="matrix(0.75031054,0,0,0.75031054,281.35144,0)"
           id="g50"><path
             id="path52"
             style="fill:#000000;fill-opacity:1;fill-rule:nonzero;stroke:none"
             d="M 0,50 V 450" /><path
             id="path54"
             style="fill:none;stroke:#eeeeee;stroke-width:1;stroke-linecap:butt;stroke-linejoin:miter;stroke-miterlimit:10;stroke-dasharray:none;stroke-opacity:1"
             d="M 0,50 V 450" /></g><g
           transform="matrix(0.75031054,0,0,0.75031054,343.72476,0)"
           id="g56"><path
             id="path58"
             style="fill:#000000;fill-opacity:1;fill-rule:nonzero;stroke:none"
             d="M 0,50 V 450" /><path
             id="path60"
             style="fill:none;stroke:#eeeeee;stroke-width:1;stroke-linecap:butt;stroke-linejoin:miter;stroke-miterlimit:10;stroke-dasharray:none;stroke-opacity:1"
             d="M 0,50 V 450" /></g><g
           transform="matrix(0.75031054,0,0,0.75031054,406.09808,0)"
           id="g62"><path
             id="path64"
             style="fill:#000000;fill-opacity:1;fill-rule:nonzero;stroke:none"
             d="M 0,50 V 450" /><path
             id="path66"
             style="fill:none;stroke:#eeeeee;stroke-width:1;stroke-linecap:butt;stroke-linejoin:miter;stroke-miterlimit:10;stroke-dasharray:none;stroke-opacity:1"
             d="M 0,50 V 450" /></g><g
           transform="matrix(0.75031054,0,0,0.75031054,468.47137,0)"
           id="g68"><path
             id="path70"
             style="fill:#000000;fill-opacity:1;fill-rule:nonzero;stroke:none"
             d="M 0,50 V 450" /><path
             id="path72"
             style="fill:none;stroke:#eeeeee;stroke-width:1;stroke-linecap:butt;stroke-linejoin:miter;stroke-miterlimit:10;stroke-dasharray:none;stroke-opacity:1"
             d="M 0,50 V 450" /></g><g
           transform="matrix(0.75031054,0,0,0.75031054,530.84473,0)"
           id="g74"><path
             id="path76"
             style="fill:#000000;fill-opacity:1;fill-rule:nonzero;stroke:none"
             d="M 0,50 V 450" /><path
             id="path78"
             style="fill:none;stroke:#eeeeee;stroke-width:1;stroke-linecap:butt;stroke-linejoin:miter;stroke-miterlimit:10;stroke-dasharray:none;stroke-opacity:1"
             d="M 0,50 V 450" /></g><g
           transform="matrix(0.75031054,0,0,0.75031054,0,298.00085)"
           id="g80"><path
             id="path82"
             style="fill:#000000;fill-opacity:1;fill-rule:nonzero;stroke:none"
             d="M 150,0 H 750" /><path
             id="path84"
             style="fill:none;stroke:#eeeeee;stroke-width:1;stroke-linecap:butt;stroke-linejoin:miter;stroke-miterlimit:10;stroke-dasharray:none;stroke-opacity:1"
             d="M 150,0 H 750" /></g><g
           transform="matrix(0.75031054,0,0,0.75031054,0,271.76999)"
           id="g86"><path
             id="path88"
             style="fill:#000000;fill-opacity:1;fill-rule:nonzero;stroke:none"
             d="M 150,0 H 750" /><path
             id="path90"
             style="fill:none;stroke:#eeeeee;stroke-width:1;stroke-linecap:butt;stroke-linejoin:miter;stroke-miterlimit:10;stroke-dasharray:none;stroke-opacity:1"
             d="M 150,0 H 750" /></g><g
           transform="matrix(0.75031054,0,0,0.75031054,0,245.53162)"
           id="g92"><path
             id="path94"
             style="fill:#000000;fill-opacity:1;fill-rule:nonzero;stroke:none"
             d="M 150,0 H 750" /><path
             id="path96"
             style="fill:none;stroke:#eeeeee;stroke-width:1;stroke-linecap:butt;stroke-linejoin:miter;stroke-miterlimit:10;stroke-dasharray:none;stroke-opacity:1"
             d="M 150,0 H 750" /></g><g
           transform="matrix(0.75031054,0,0,0.75031054,0,219.30077)"
           id="g98"><path
             id="path100"
             style="fill:#000000;fill-opacity:1;fill-rule:nonzero;stroke:none"
             d="M 150,0 H 750" /><path
             id="path102"
             style="fill:none;stroke:#eeeeee;stroke-width:1;stroke-linecap:butt;stroke-linejoin:miter;stroke-miterlimit:10;stroke-dasharray:none;stroke-opacity:1"
             d="M 150,0 H 750" /></g><g
           transform="matrix(0.75031054,0,0,0.75031054,0,193.06992)"
           id="g104"><path
             id="path106"
             style="fill:#000000;fill-opacity:1;fill-rule:nonzero;stroke:none"
             d="M 150,0 H 750" /><path
             id="path108"
             style="fill:none;stroke:#eeeeee;stroke-width:1;stroke-linecap:butt;stroke-linejoin:miter;stroke-miterlimit:10;stroke-dasharray:none;stroke-opacity:1"
             d="M 150,0 H 750" /></g><g
           transform="matrix(0.75031054,0,0,0.75031054,0,166.83156)"
           id="g110"><path
             id="path112"
             style="fill:#000000;fill-opacity:1;fill-rule:nonzero;stroke:none"
             d="M 150,0 H 750" /><path
             id="path114"
             style="fill:none;stroke:#eeeeee;stroke-width:1;stroke-linecap:butt;stroke-linejoin:miter;stroke-miterlimit:10;stroke-dasharray:none;stroke-opacity:1"
             d="M 150,0 H 750" /></g><g
           transform="matrix(0.75031054,0,0,0.75031054,0,140.60069)"
           id="g116"><path
             id="path118"
             style="fill:#000000;fill-opacity:1;fill-rule:nonzero;stroke:none"
             d="M 150,0 H 750" /><path
             id="path120"
             style="fill:none;stroke:#eeeeee;stroke-width:1;stroke-linecap:butt;stroke-linejoin:miter;stroke-miterlimit:10;stroke-dasharray:none;stroke-opacity:1"
             d="M 150,0 H 750" /></g><g
           transform="matrix(0.75031054,0,0,0.75031054,0,114.36983)"
           id="g122"><path
             id="path124"
             style="fill:#000000;fill-opacity:1;fill-rule:nonzero;stroke:none"
             d="M 150,0 H 750" /><path
             id="path126"
             style="fill:none;stroke:#eeeeee;stroke-width:1;stroke-linecap:butt;stroke-linejoin:miter;stroke-miterlimit:10;stroke-dasharray:none;stroke-opacity:1"
             d="M 150,0 H 750" /></g><g
           transform="matrix(0.75031054,0,0,0.75031054,0,88.131477)"
           id="g128"><path
             id="path130"
             style="fill:#000000;fill-opacity:1;fill-rule:nonzero;stroke:none"
             d="M 150,0 H 750" /><path
             id="path132"
             style="fill:none;stroke:#eeeeee;stroke-width:1;stroke-linecap:butt;stroke-linejoin:miter;stroke-miterlimit:10;stroke-dasharray:none;stroke-opacity:1"
             d="M 150,0 H 750" /></g><g
           transform="matrix(0.75031054,0,0,0.75031054,0,61.90062)"
           id="g134"><path
             id="path136"
             style="fill:#000000;fill-opacity:1;fill-rule:nonzero;stroke:none"
             d="M 150,0 H 750" /><path
             id="path138"
             style="fill:none;stroke:#eeeeee;stroke-width:1;stroke-linecap:butt;stroke-linejoin:miter;stroke-miterlimit:10;stroke-dasharray:none;stroke-opacity:1"
             d="M 150,0 H 750" /></g></g></g><g
       id="g140"><g
         clip-path="url(#clipPath146)"
         id="g142"><g
           transform="translate(148,290)"
           id="g148"><g
             id="g150" /><g
             id="g166"
             transform="matrix(1,0,0,-1,0,16)"><g
               style="opacity:0.69803922"
               id="g164"
               clip-path="url(#clipPath154)"><g
                 id="g162"
                 transform="matrix(1,0,0,-1,0,16)"><g
                   id="g160"
                   transform="matrix(0.75031054,0,0,0.75031054,8.6048126,8.0008545)"><path
                     id="path156"
                     style="fill:#1f77b4;fill-opacity:1;fill-rule:nonzero;stroke:none"
                     d="M 10,0 C 9.999999,2.7614236 9.0236883,5.1184459 7.0710673,7.0710673 5.1184459,9.0236883 2.7614236,9.999999 0,10 -2.7614236,9.999999 -5.1184459,9.0236883 -7.0710673,7.0710673 -9.0236883,5.1184459 -9.999999,2.7614236 -10,0 c 10e-7,-2.7614236 0.9763117,-5.1184459 2.9289327,-7.0710673 C -5.1184459,-9.0236883 -2.7614236,-9.999999 0,-10 c 2.7614236,10e-7 5.1184459,0.9763117 7.0710673,2.9289327 C 9.0236883,-5.1184459 9.999999,-2.7614236 10,0 Z" /><path
                     id="path158"
                     style="fill:none;stroke:#ffffff;stroke-width:1;stroke-linecap:butt;stroke-linejoin:miter;stroke-miterlimit:10;stroke-dasharray:none;stroke-opacity:1"
                     d="M 10,0 C 9.999999,2.7614236 9.0236883,5.1184459 7.0710673,7.0710673 5.1184459,9.0236883 2.7614236,9.999999 0,10 -2.7614236,9.999999 -5.1184459,9.0236883 -7.0710673,7.0710673 -9.0236883,5.1184459 -9.999999,2.7614236 -10,0 c 10e-7,-2.7614236 0.9763117,-5.1184459 2.9289327,-7.0710673 C -5.1184459,-9.0236883 -2.7614236,-9.999999 0,-10 c 2.7614236,10e-7 5.1184459,0.9763117 7.0710673,2.9289327 C 9.0236883,-5.1184459 9.999999,-2.7614236 10,0 Z" /></g></g></g></g></g><g
           transform="translate(138,254)"
           id="g168"><g
             id="g170" /><g
             id="g186"
             transform="matrix(1,0,0,-1,0,36)"><g
               style="opacity:0.69803922"
               id="g184"
               clip-path="url(#clipPath174)"><g
                 id="g182"
                 transform="matrix(1,0,0,-1,0,36)"><g
                   id="g180"
                   transform="matrix(0.75031054,0,0,0.75031054,18.604813,17.769958)"><path
                     id="path176"
                     style="fill:#1f77b4;fill-opacity:1;fill-rule:nonzero;stroke:none"
                     d="m 22.969999,0 c -2e-6,3.046011 -0.58283,5.9760895 -1.748489,8.7902365 -1.165659,2.8141465 -2.825415,5.2981485 -4.979269,7.4520045 -2.153856,2.153854 -4.637858,3.81361 -7.4520045,4.979269 C 5.9760895,22.387169 3.046011,22.969997 0,22.969999 c -3.046011,-2e-6 -5.9760895,-0.58283 -8.7902365,-1.748489 -2.8141465,-1.165659 -5.2981485,-2.825415 -7.4520045,-4.979269 -2.153854,-2.153856 -3.81361,-4.637858 -4.979269,-7.4520045 C -22.387169,5.9760895 -22.969997,3.046011 -22.969999,0 c 2e-6,-3.046011 0.58283,-5.9760895 1.748489,-8.7902365 1.165659,-2.8141465 2.825415,-5.2981485 4.979269,-7.4520045 2.153856,-2.153854 4.637858,-3.81361 7.4520045,-4.979269 2.814147,-1.165659 5.7442255,-1.748487 8.7902365,-1.748489 3.046011,2e-6 5.9760895,0.58283 8.7902365,1.748489 2.8141465,1.165659 5.2981485,2.825415 7.4520045,4.979269 2.153854,2.153856 3.81361,4.637858 4.979269,7.4520045 C 22.387169,-5.9760895 22.969997,-3.046011 22.969999,0 Z" /><path
                     id="path178"
                     style="fill:none;stroke:#ffffff;stroke-width:1;stroke-linecap:butt;stroke-linejoin:miter;stroke-miterlimit:10;stroke-dasharray:none;stroke-opacity:1"
                     d="m 22.969999,0 c -2e-6,3.046011 -0.58283,5.9760895 -1.748489,8.7902365 -1.165659,2.8141465 -2.825415,5.2981485 -4.979269,7.4520045 -2.153856,2.153854 -4.637858,3.81361 -7.4520045,4.979269 C 5.9760895,22.387169 3.046011,22.969997 0,22.969999 c -3.046011,-2e-6 -5.9760895,-0.58283 -8.7902365,-1.748489 -2.8141465,-1.165659 -5.2981485,-2.825415 -7.4520045,-4.979269 -2.153854,-2.153856 -3.81361,-4.637858 -4.979269,-7.4520045 C -22.387169,5.9760895 -22.969997,3.046011 -22.969999,0 c 2e-6,-3.046011 0.58283,-5.9760895 1.748489,-8.7902365 1.165659,-2.8141465 2.825415,-5.2981485 4.979269,-7.4520045 2.153856,-2.153854 4.637858,-3.81361 7.4520045,-4.979269 2.814147,-1.165659 5.7442255,-1.748487 8.7902365,-1.748489 3.046011,2e-6 5.9760895,0.58283 8.7902365,1.748489 2.8141465,1.165659 5.2981485,2.825415 7.4520045,4.979269 2.153854,2.153856 3.81361,4.637858 4.979269,7.4520045 C 22.387169,-5.9760895 22.969997,-3.046011 22.969999,0 Z" /></g></g></g></g></g><g
           transform="translate(148,237)"
           id="g188"><g
             id="g190" /><g
             id="g206"
             transform="matrix(1,0,0,-1,0,17)"><g
               style="opacity:0.69803922"
               id="g204"
               clip-path="url(#clipPath194)"><g
                 id="g202"
                 transform="matrix(1,0,0,-1,0,17)"><g
                   id="g200"
                   transform="matrix(0.75031054,0,0,0.75031054,8.6048126,8.5316162)"><path
                     id="path196"
                     style="fill:#1f77b4;fill-opacity:1;fill-rule:nonzero;stroke:none"
                     d="M 10,0 C 9.999999,2.7614236 9.0236883,5.1184459 7.0710673,7.0710673 5.1184459,9.0236883 2.7614236,9.999999 0,10 -2.7614236,9.999999 -5.1184459,9.0236883 -7.0710673,7.0710673 -9.0236883,5.1184459 -9.999999,2.7614236 -10,0 c 10e-7,-2.7614236 0.9763117,-5.1184459 2.9289327,-7.0710673 C -5.1184459,-9.0236883 -2.7614236,-9.999999 0,-10 c 2.7614236,10e-7 5.1184459,0.9763117 7.0710673,2.9289327 C 9.0236883,-5.1184459 9.999999,-2.7614236 10,0 Z" /><path
                     id="path198"
                     style="fill:none;stroke:#ffffff;stroke-width:1;stroke-linecap:butt;stroke-linejoin:miter;stroke-miterlimit:10;stroke-dasharray:none;stroke-opacity:1"
                     d="M 10,0 C 9.999999,2.7614236 9.0236883,5.1184459 7.0710673,7.0710673 5.1184459,9.0236883 2.7614236,9.999999 0,10 -2.7614236,9.999999 -5.1184459,9.0236883 -7.0710673,7.0710673 -9.0236883,5.1184459 -9.999999,2.7614236 -10,0 c 10e-7,-2.7614236 0.9763117,-5.1184459 2.9289327,-7.0710673 C -5.1184459,-9.0236883 -2.7614236,-9.999999 0,-10 c 2.7614236,10e-7 5.1184459,0.9763117 7.0710673,2.9289327 C 9.0236883,-5.1184459 9.999999,-2.7614236 10,0 Z" /></g></g></g></g></g><g
           transform="translate(211,211)"
           id="g208"><g
             id="g210" /><g
             id="g226"
             transform="matrix(1,0,0,-1,0,17)"><g
               style="opacity:0.69803922"
               id="g224"
               clip-path="url(#clipPath214)"><g
                 id="g222"
                 transform="matrix(1,0,0,-1,0,17)"><g
                   id="g220"
                   transform="matrix(0.75031054,0,0,0.75031054,7.9781342,8.3007507)"><path
                     id="path216"
                     style="fill:#1f77b4;fill-opacity:1;fill-rule:nonzero;stroke:none"
                     d="M 10,0 C 9.999999,2.7614236 9.0236883,5.1184459 7.0710673,7.0710673 5.1184459,9.0236883 2.7614236,9.999999 0,10 -2.7614236,9.999999 -5.1184459,9.0236883 -7.0710673,7.0710673 -9.0236883,5.1184459 -9.999999,2.7614236 -10,0 c 10e-7,-2.7614236 0.9763117,-5.1184459 2.9289327,-7.0710673 C -5.1184459,-9.0236883 -2.7614236,-9.999999 0,-10 c 2.7614236,10e-7 5.1184459,0.9763117 7.0710673,2.9289327 C 9.0236883,-5.1184459 9.999999,-2.7614236 10,0 Z" /><path
                     id="path218"
                     style="fill:none;stroke:#ffffff;stroke-width:1;stroke-linecap:butt;stroke-linejoin:miter;stroke-miterlimit:10;stroke-dasharray:none;stroke-opacity:1"
                     d="M 10,0 C 9.999999,2.7614236 9.0236883,5.1184459 7.0710673,7.0710673 5.1184459,9.0236883 2.7614236,9.999999 0,10 -2.7614236,9.999999 -5.1184459,9.0236883 -7.0710673,7.0710673 -9.0236883,5.1184459 -9.999999,2.7614236 -10,0 c 10e-7,-2.7614236 0.9763117,-5.1184459 2.9289327,-7.0710673 C -5.1184459,-9.0236883 -2.7614236,-9.999999 0,-10 c 2.7614236,10e-7 5.1184459,0.9763117 7.0710673,2.9289327 C 9.0236883,-5.1184459 9.999999,-2.7614236 10,0 Z" /></g></g></g></g></g><g
           transform="translate(211,185)"
           id="g228"><g
             id="g230" /><g
             id="g246"
             transform="matrix(1,0,0,-1,0,16)"><g
               style="opacity:0.69803922"
               id="g244"
               clip-path="url(#clipPath234)"><g
                 id="g242"
                 transform="matrix(1,0,0,-1,0,16)"><g
                   id="g240"
                   transform="matrix(0.75031054,0,0,0.75031054,7.9781342,8.0699158)"><path
                     id="path236"
                     style="fill:#1f77b4;fill-opacity:1;fill-rule:nonzero;stroke:none"
                     d="M 10,0 C 9.999999,2.7614236 9.0236883,5.1184459 7.0710673,7.0710673 5.1184459,9.0236883 2.7614236,9.999999 0,10 -2.7614236,9.999999 -5.1184459,9.0236883 -7.0710673,7.0710673 -9.0236883,5.1184459 -9.999999,2.7614236 -10,0 c 10e-7,-2.7614236 0.9763117,-5.1184459 2.9289327,-7.0710673 C -5.1184459,-9.0236883 -2.7614236,-9.999999 0,-10 c 2.7614236,10e-7 5.1184459,0.9763117 7.0710673,2.9289327 C 9.0236883,-5.1184459 9.999999,-2.7614236 10,0 Z" /><path
                     id="path238"
                     style="fill:none;stroke:#ffffff;stroke-width:1;stroke-linecap:butt;stroke-linejoin:miter;stroke-miterlimit:10;stroke-dasharray:none;stroke-opacity:1"
                     d="M 10,0 C 9.999999,2.7614236 9.0236883,5.1184459 7.0710673,7.0710673 5.1184459,9.0236883 2.7614236,9.999999 0,10 -2.7614236,9.999999 -5.1184459,9.0236883 -7.0710673,7.0710673 -9.0236883,5.1184459 -9.999999,2.7614236 -10,0 c 10e-7,-2.7614236 0.9763117,-5.1184459 2.9289327,-7.0710673 C -5.1184459,-9.0236883 -2.7614236,-9.999999 0,-10 c 2.7614236,10e-7 5.1184459,0.9763117 7.0710673,2.9289327 C 9.0236883,-5.1184459 9.999999,-2.7614236 10,0 Z" /></g></g></g></g></g><g
           transform="translate(204,230)"
           id="g248"><g
             id="g250" /><g
             id="g266"
             transform="matrix(1,0,0,-1,0,31)"><g
               style="opacity:0.69803922"
               id="g264"
               clip-path="url(#clipPath254)"><g
                 id="g262"
                 transform="matrix(1,0,0,-1,0,31)"><g
                   id="g260"
                   transform="matrix(0.75031054,0,0,0.75031054,14.978134,15.531616)"><path
                     id="path256"
                     style="fill:#1f77b4;fill-opacity:1;fill-rule:nonzero;stroke:none"
                     d="m 19.33,0 c 0,5.3378315 -1.887209,9.8939552 -5.661627,13.668373 C 9.8939552,17.442791 5.3378315,19.33 0,19.33 -5.3378315,19.33 -9.8939552,17.442791 -13.668373,13.668373 -17.442791,9.8939552 -19.33,5.3378315 -19.33,0 c 0,-5.3378315 1.887209,-9.8939552 5.661627,-13.668373 C -9.8939552,-17.442791 -5.3378315,-19.33 0,-19.33 c 5.3378315,0 9.8939552,1.887209 13.668373,5.661627 C 17.442791,-9.8939552 19.33,-5.3378315 19.33,0 Z" /><path
                     id="path258"
                     style="fill:none;stroke:#ffffff;stroke-width:1;stroke-linecap:butt;stroke-linejoin:miter;stroke-miterlimit:10;stroke-dasharray:none;stroke-opacity:1"
                     d="m 19.33,0 c 0,5.3378315 -1.887209,9.8939552 -5.661627,13.668373 C 9.8939552,17.442791 5.3378315,19.33 0,19.33 -5.3378315,19.33 -9.8939552,17.442791 -13.668373,13.668373 -17.442791,9.8939552 -19.33,5.3378315 -19.33,0 c 0,-5.3378315 1.887209,-9.8939552 5.661627,-13.668373 C -9.8939552,-17.442791 -5.3378315,-19.33 0,-19.33 c 5.3378315,0 9.8939552,1.887209 13.668373,5.661627 C 17.442791,-9.8939552 19.33,-5.3378315 19.33,0 Z" /></g></g></g></g></g><g
           transform="translate(211,158)"
           id="g268"><g
             id="g270" /><g
             id="g286"
             transform="matrix(1,0,0,-1,0,17)"><g
               style="opacity:0.69803922"
               id="g284"
               clip-path="url(#clipPath274)"><g
                 id="g282"
                 transform="matrix(1,0,0,-1,0,17)"><g
                   id="g280"
                   transform="matrix(0.75031054,0,0,0.75031054,7.9781342,8.831543)"><path
                     id="path276"
                     style="fill:#1f77b4;fill-opacity:1;fill-rule:nonzero;stroke:none"
                     d="M 10,0 C 9.999999,2.7614236 9.0236883,5.1184459 7.0710673,7.0710673 5.1184459,9.0236883 2.7614236,9.999999 0,10 -2.7614236,9.999999 -5.1184459,9.0236883 -7.0710673,7.0710673 -9.0236883,5.1184459 -9.999999,2.7614236 -10,0 c 10e-7,-2.7614236 0.9763117,-5.1184459 2.9289327,-7.0710673 C -5.1184459,-9.0236883 -2.7614236,-9.999999 0,-10 c 2.7614236,10e-7 5.1184459,0.9763117 7.0710673,2.9289327 C 9.0236883,-5.1184459 9.999999,-2.7614236 10,0 Z" /><path
                     id="path278"
                     style="fill:none;stroke:#ffffff;stroke-width:1;stroke-linecap:butt;stroke-linejoin:miter;stroke-miterlimit:10;stroke-dasharray:none;stroke-opacity:1"
                     d="M 10,0 C 9.999999,2.7614236 9.0236883,5.1184459 7.0710673,7.0710673 5.1184459,9.0236883 2.7614236,9.999999 0,10 -2.7614236,9.999999 -5.1184459,9.0236883 -7.0710673,7.0710673 -9.0236883,5.1184459 -9.999999,2.7614236 -10,0 c 10e-7,-2.7614236 0.9763117,-5.1184459 2.9289327,-7.0710673 C -5.1184459,-9.0236883 -2.7614236,-9.999999 0,-10 c 2.7614236,10e-7 5.1184459,0.9763117 7.0710673,2.9289327 C 9.0236883,-5.1184459 9.999999,-2.7614236 10,0 Z" /></g></g></g></g></g><g
           transform="translate(204,125)"
           id="g288"><g
             id="g290" /><g
             id="g306"
             transform="matrix(1,0,0,-1,0,31)"><g
               style="opacity:0.69803922"
               id="g304"
               clip-path="url(#clipPath294)"><g
                 id="g302"
                 transform="matrix(1,0,0,-1,0,31)"><g
                   id="g300"
                   transform="matrix(0.75031054,0,0,0.75031054,14.978134,15.600693)"><path
                     id="path296"
                     style="fill:#1f77b4;fill-opacity:1;fill-rule:nonzero;stroke:none"
                     d="m 19.33,0 c 0,5.3378315 -1.887209,9.8939552 -5.661627,13.668373 C 9.8939552,17.442791 5.3378315,19.33 0,19.33 -5.3378315,19.33 -9.8939552,17.442791 -13.668373,13.668373 -17.442791,9.8939552 -19.33,5.3378315 -19.33,0 c 0,-5.3378315 1.887209,-9.8939552 5.661627,-13.668373 C -9.8939552,-17.442791 -5.3378315,-19.33 0,-19.33 c 5.3378315,0 9.8939552,1.887209 13.668373,5.661627 C 17.442791,-9.8939552 19.33,-5.3378315 19.33,0 Z" /><path
                     id="path298"
                     style="fill:none;stroke:#ffffff;stroke-width:1;stroke-linecap:butt;stroke-linejoin:miter;stroke-miterlimit:10;stroke-dasharray:none;stroke-opacity:1"
                     d="m 19.33,0 c 0,5.3378315 -1.887209,9.8939552 -5.661627,13.668373 C 9.8939552,17.442791 5.3378315,19.33 0,19.33 -5.3378315,19.33 -9.8939552,17.442791 -13.668373,13.668373 -17.442791,9.8939552 -19.33,5.3378315 -19.33,0 c 0,-5.3378315 1.887209,-9.8939552 5.661627,-13.668373 C -9.8939552,-17.442791 -5.3378315,-19.33 0,-19.33 c 5.3378315,0 9.8939552,1.887209 13.668373,5.661627 C 17.442791,-9.8939552 19.33,-5.3378315 19.33,0 Z" /></g></g></g></g></g><g
           transform="translate(273,290)"
           id="g308"><g
             id="g310" /><g
             id="g326"
             transform="matrix(1,0,0,-1,0,16)"><g
               style="opacity:0.69803922"
               id="g324"
               clip-path="url(#clipPath314)"><g
                 id="g322"
                 transform="matrix(1,0,0,-1,0,16)"><g
                   id="g320"
                   transform="matrix(0.75031054,0,0,0.75031054,8.3514404,8.0008545)"><path
                     id="path316"
                     style="fill:#1f77b4;fill-opacity:1;fill-rule:nonzero;stroke:none"
                     d="M 10,0 C 9.999999,2.7614236 9.0236883,5.1184459 7.0710673,7.0710673 5.1184459,9.0236883 2.7614236,9.999999 0,10 -2.7614236,9.999999 -5.1184459,9.0236883 -7.0710673,7.0710673 -9.0236883,5.1184459 -9.999999,2.7614236 -10,0 c 10e-7,-2.7614236 0.9763117,-5.1184459 2.9289327,-7.0710673 C -5.1184459,-9.0236883 -2.7614236,-9.999999 0,-10 c 2.7614236,10e-7 5.1184459,0.9763117 7.0710673,2.9289327 C 9.0236883,-5.1184459 9.999999,-2.7614236 10,0 Z" /><path
                     id="path318"
                     style="fill:none;stroke:#ffffff;stroke-width:1;stroke-linecap:butt;stroke-linejoin:miter;stroke-miterlimit:10;stroke-dasharray:none;stroke-opacity:1"
                     d="M 10,0 C 9.999999,2.7614236 9.0236883,5.1184459 7.0710673,7.0710673 5.1184459,9.0236883 2.7614236,9.999999 0,10 -2.7614236,9.999999 -5.1184459,9.0236883 -7.0710673,7.0710673 -9.0236883,5.1184459 -9.999999,2.7614236 -10,0 c 10e-7,-2.7614236 0.9763117,-5.1184459 2.9289327,-7.0710673 C -5.1184459,-9.0236883 -2.7614236,-9.999999 0,-10 c 2.7614236,10e-7 5.1184459,0.9763117 7.0710673,2.9289327 C 9.0236883,-5.1184459 9.999999,-2.7614236 10,0 Z" /></g></g></g></g></g><g
           transform="translate(266,256)"
           id="g328"><g
             id="g330" /><g
             id="g346"
             transform="matrix(1,0,0,-1,0,31)"><g
               style="opacity:0.69803922"
               id="g344"
               clip-path="url(#clipPath334)"><g
                 id="g342"
                 transform="matrix(1,0,0,-1,0,31)"><g
                   id="g340"
                   transform="matrix(0.75031054,0,0,0.75031054,15.35144,15.769959)"><path
                     id="path336"
                     style="fill:#1f77b4;fill-opacity:1;fill-rule:nonzero;stroke:none"
                     d="m 19.33,0 c 0,5.3378315 -1.887209,9.8939552 -5.661627,13.668373 C 9.8939552,17.442791 5.3378315,19.33 0,19.33 -5.3378315,19.33 -9.8939552,17.442791 -13.668373,13.668373 -17.442791,9.8939552 -19.33,5.3378315 -19.33,0 c 0,-5.3378315 1.887209,-9.8939552 5.661627,-13.668373 C -9.8939552,-17.442791 -5.3378315,-19.33 0,-19.33 c 5.3378315,0 9.8939552,1.887209 13.668373,5.661627 C 17.442791,-9.8939552 19.33,-5.3378315 19.33,0 Z" /><path
                     id="path338"
                     style="fill:none;stroke:#ffffff;stroke-width:1;stroke-linecap:butt;stroke-linejoin:miter;stroke-miterlimit:10;stroke-dasharray:none;stroke-opacity:1"
                     d="m 19.33,0 c 0,5.3378315 -1.887209,9.8939552 -5.661627,13.668373 C 9.8939552,17.442791 5.3378315,19.33 0,19.33 -5.3378315,19.33 -9.8939552,17.442791 -13.668373,13.668373 -17.442791,9.8939552 -19.33,5.3378315 -19.33,0 c 0,-5.3378315 1.887209,-9.8939552 5.661627,-13.668373 C -9.8939552,-17.442791 -5.3378315,-19.33 0,-19.33 c 5.3378315,0 9.8939552,1.887209 13.668373,5.661627 C 17.442791,-9.8939552 19.33,-5.3378315 19.33,0 Z" /></g></g></g></g></g><g
           transform="translate(273,106)"
           id="g348"><g
             id="g350" /><g
             id="g366"
             transform="matrix(1,0,0,-1,0,17)"><g
               style="opacity:0.69803922"
               id="g364"
               clip-path="url(#clipPath354)"><g
                 id="g362"
                 transform="matrix(1,0,0,-1,0,17)"><g
                   id="g360"
                   transform="matrix(0.75031054,0,0,0.75031054,8.3514404,8.3698349)"><path
                     id="path356"
                     style="fill:#1f77b4;fill-opacity:1;fill-rule:nonzero;stroke:none"
                     d="M 10,0 C 9.999999,2.7614236 9.0236883,5.1184459 7.0710673,7.0710673 5.1184459,9.0236883 2.7614236,9.999999 0,10 -2.7614236,9.999999 -5.1184459,9.0236883 -7.0710673,7.0710673 -9.0236883,5.1184459 -9.999999,2.7614236 -10,0 c 10e-7,-2.7614236 0.9763117,-5.1184459 2.9289327,-7.0710673 C -5.1184459,-9.0236883 -2.7614236,-9.999999 0,-10 c 2.7614236,10e-7 5.1184459,0.9763117 7.0710673,2.9289327 C 9.0236883,-5.1184459 9.999999,-2.7614236 10,0 Z" /><path
                     id="path358"
                     style="fill:none;stroke:#ffffff;stroke-width:1;stroke-linecap:butt;stroke-linejoin:miter;stroke-miterlimit:10;stroke-dasharray:none;stroke-opacity:1"
                     d="M 10,0 C 9.999999,2.7614236 9.0236883,5.1184459 7.0710673,7.0710673 5.1184459,9.0236883 2.7614236,9.999999 0,10 -2.7614236,9.999999 -5.1184459,9.0236883 -7.0710673,7.0710673 -9.0236883,5.1184459 -9.999999,2.7614236 -10,0 c 10e-7,-2.7614236 0.9763117,-5.1184459 2.9289327,-7.0710673 C -5.1184459,-9.0236883 -2.7614236,-9.999999 0,-10 c 2.7614236,10e-7 5.1184459,0.9763117 7.0710673,2.9289327 C 9.0236883,-5.1184459 9.999999,-2.7614236 10,0 Z" /></g></g></g></g></g><g
           transform="translate(256,221)"
           id="g368"><g
             id="g370" /><g
             id="g386"
             transform="matrix(1,0,0,-1,0,50)"><g
               style="opacity:0.69803922"
               id="g384"
               clip-path="url(#clipPath374)"><g
                 id="g382"
                 transform="matrix(1,0,0,-1,0,50)"><g
                   id="g380"
                   transform="matrix(0.75031054,0,0,0.75031054,25.35144,24.531616)"><path
                     id="path376"
                     style="fill:#1f77b4;fill-opacity:1;fill-rule:nonzero;stroke:none"
                     d="m 32.139999,0 c -3e-6,4.2620287 -0.815507,8.3618431 -2.446516,12.299444 C 28.062475,16.237045 25.740118,19.7127 22.72641,22.72641 19.7127,25.740118 16.237045,28.062475 12.299444,29.693483 8.3618431,31.324492 4.2620287,32.139996 0,32.139999 -4.2620287,32.139996 -8.3618431,31.324492 -12.299444,29.693483 -16.237045,28.062475 -19.7127,25.740118 -22.72641,22.72641 -25.740118,19.7127 -28.062475,16.237045 -29.693483,12.299444 -31.324492,8.3618431 -32.139996,4.2620287 -32.139999,0 c 3e-6,-4.2620287 0.815507,-8.3618431 2.446516,-12.299444 1.631008,-3.937601 3.953365,-7.413256 6.967073,-10.426966 3.01371,-3.013708 6.489365,-5.336065 10.426966,-6.967073 3.9376009,-1.631009 8.0374153,-2.446513 12.299444,-2.446516 4.2620287,3e-6 8.3618431,0.815507 12.299444,2.446516 3.937601,1.631008 7.413256,3.953365 10.426966,6.967073 3.013708,3.01371 5.336065,6.489365 6.967073,10.426966 C 31.324492,-8.3618431 32.139996,-4.2620287 32.139999,0 Z" /><path
                     id="path378"
                     style="fill:none;stroke:#ffffff;stroke-width:1;stroke-linecap:butt;stroke-linejoin:miter;stroke-miterlimit:10;stroke-dasharray:none;stroke-opacity:1"
                     d="m 32.139999,0 c -3e-6,4.2620287 -0.815507,8.3618431 -2.446516,12.299444 C 28.062475,16.237045 25.740118,19.7127 22.72641,22.72641 19.7127,25.740118 16.237045,28.062475 12.299444,29.693483 8.3618431,31.324492 4.2620287,32.139996 0,32.139999 -4.2620287,32.139996 -8.3618431,31.324492 -12.299444,29.693483 -16.237045,28.062475 -19.7127,25.740118 -22.72641,22.72641 -25.740118,19.7127 -28.062475,16.237045 -29.693483,12.299444 -31.324492,8.3618431 -32.139996,4.2620287 -32.139999,0 c 3e-6,-4.2620287 0.815507,-8.3618431 2.446516,-12.299444 1.631008,-3.937601 3.953365,-7.413256 6.967073,-10.426966 3.01371,-3.013708 6.489365,-5.336065 10.426966,-6.967073 3.9376009,-1.631009 8.0374153,-2.446513 12.299444,-2.446516 4.2620287,3e-6 8.3618431,0.815507 12.299444,2.446516 3.937601,1.631008 7.413256,3.953365 10.426966,6.967073 3.013708,3.01371 5.336065,6.489365 6.967073,10.426966 C 31.324492,-8.3618431 32.139996,-4.2620287 32.139999,0 Z" /></g></g></g></g></g><g
           transform="translate(273,158)"
           id="g388"><g
             id="g390" /><g
             id="g406"
             transform="matrix(1,0,0,-1,0,17)"><g
               style="opacity:0.69803922"
               id="g404"
               clip-path="url(#clipPath394)"><g
                 id="g402"
                 transform="matrix(1,0,0,-1,0,17)"><g
                   id="g400"
                   transform="matrix(0.75031054,0,0,0.75031054,8.3514404,8.831543)"><path
                     id="path396"
                     style="fill:#1f77b4;fill-opacity:1;fill-rule:nonzero;stroke:none"
                     d="M 10,0 C 9.999999,2.7614236 9.0236883,5.1184459 7.0710673,7.0710673 5.1184459,9.0236883 2.7614236,9.999999 0,10 -2.7614236,9.999999 -5.1184459,9.0236883 -7.0710673,7.0710673 -9.0236883,5.1184459 -9.999999,2.7614236 -10,0 c 10e-7,-2.7614236 0.9763117,-5.1184459 2.9289327,-7.0710673 C -5.1184459,-9.0236883 -2.7614236,-9.999999 0,-10 c 2.7614236,10e-7 5.1184459,0.9763117 7.0710673,2.9289327 C 9.0236883,-5.1184459 9.999999,-2.7614236 10,0 Z" /><path
                     id="path398"
                     style="fill:none;stroke:#ffffff;stroke-width:1;stroke-linecap:butt;stroke-linejoin:miter;stroke-miterlimit:10;stroke-dasharray:none;stroke-opacity:1"
                     d="M 10,0 C 9.999999,2.7614236 9.0236883,5.1184459 7.0710673,7.0710673 5.1184459,9.0236883 2.7614236,9.999999 0,10 -2.7614236,9.999999 -5.1184459,9.0236883 -7.0710673,7.0710673 -9.0236883,5.1184459 -9.999999,2.7614236 -10,0 c 10e-7,-2.7614236 0.9763117,-5.1184459 2.9289327,-7.0710673 C -5.1184459,-9.0236883 -2.7614236,-9.999999 0,-10 c 2.7614236,10e-7 5.1184459,0.9763117 7.0710673,2.9289327 C 9.0236883,-5.1184459 9.999999,-2.7614236 10,0 Z" /></g></g></g></g></g><g
           transform="translate(335,263)"
           id="g408"><g
             id="g410" /><g
             id="g426"
             transform="matrix(1,0,0,-1,0,17)"><g
               style="opacity:0.69803922"
               id="g424"
               clip-path="url(#clipPath414)"><g
                 id="g422"
                 transform="matrix(1,0,0,-1,0,17)"><g
                   id="g420"
                   transform="matrix(0.75031054,0,0,0.75031054,8.724762,8.7699585)"><path
                     id="path416"
                     style="fill:#1f77b4;fill-opacity:1;fill-rule:nonzero;stroke:none"
                     d="M 10,0 C 9.999999,2.7614236 9.0236883,5.1184459 7.0710673,7.0710673 5.1184459,9.0236883 2.7614236,9.999999 0,10 -2.7614236,9.999999 -5.1184459,9.0236883 -7.0710673,7.0710673 -9.0236883,5.1184459 -9.999999,2.7614236 -10,0 c 10e-7,-2.7614236 0.9763117,-5.1184459 2.9289327,-7.0710673 C -5.1184459,-9.0236883 -2.7614236,-9.999999 0,-10 c 2.7614236,10e-7 5.1184459,0.9763117 7.0710673,2.9289327 C 9.0236883,-5.1184459 9.999999,-2.7614236 10,0 Z" /><path
                     id="path418"
                     style="fill:none;stroke:#ffffff;stroke-width:1;stroke-linecap:butt;stroke-linejoin:miter;stroke-miterlimit:10;stroke-dasharray:none;stroke-opacity:1"
                     d="M 10,0 C 9.999999,2.7614236 9.0236883,5.1184459 7.0710673,7.0710673 5.1184459,9.0236883 2.7614236,9.999999 0,10 -2.7614236,9.999999 -5.1184459,9.0236883 -7.0710673,7.0710673 -9.0236883,5.1184459 -9.999999,2.7614236 -10,0 c 10e-7,-2.7614236 0.9763117,-5.1184459 2.9289327,-7.0710673 C -5.1184459,-9.0236883 -2.7614236,-9.999999 0,-10 c 2.7614236,10e-7 5.1184459,0.9763117 7.0710673,2.9289327 C 9.0236883,-5.1184459 9.999999,-2.7614236 10,0 Z" /></g></g></g></g></g><g
           transform="translate(335,237)"
           id="g428"><g
             id="g430" /><g
             id="g446"
             transform="matrix(1,0,0,-1,0,17)"><g
               style="opacity:0.69803922"
               id="g444"
               clip-path="url(#clipPath434)"><g
                 id="g442"
                 transform="matrix(1,0,0,-1,0,17)"><g
                   id="g440"
                   transform="matrix(0.75031054,0,0,0.75031054,8.724762,8.5316162)"><path
                     id="path436"
                     style="fill:#1f77b4;fill-opacity:1;fill-rule:nonzero;stroke:none"
                     d="M 10,0 C 9.999999,2.7614236 9.0236883,5.1184459 7.0710673,7.0710673 5.1184459,9.0236883 2.7614236,9.999999 0,10 -2.7614236,9.999999 -5.1184459,9.0236883 -7.0710673,7.0710673 -9.0236883,5.1184459 -9.999999,2.7614236 -10,0 c 10e-7,-2.7614236 0.9763117,-5.1184459 2.9289327,-7.0710673 C -5.1184459,-9.0236883 -2.7614236,-9.999999 0,-10 c 2.7614236,10e-7 5.1184459,0.9763117 7.0710673,2.9289327 C 9.0236883,-5.1184459 9.999999,-2.7614236 10,0 Z" /><path
                     id="path438"
                     style="fill:none;stroke:#ffffff;stroke-width:1;stroke-linecap:butt;stroke-linejoin:miter;stroke-miterlimit:10;stroke-dasharray:none;stroke-opacity:1"
                     d="M 10,0 C 9.999999,2.7614236 9.0236883,5.1184459 7.0710673,7.0710673 5.1184459,9.0236883 2.7614236,9.999999 0,10 -2.7614236,9.999999 -5.1184459,9.0236883 -7.0710673,7.0710673 -9.0236883,5.1184459 -9.999999,2.7614236 -10,0 c 10e-7,-2.7614236 0.9763117,-5.1184459 2.9289327,-7.0710673 C -5.1184459,-9.0236883 -2.7614236,-9.999999 0,-10 c 2.7614236,10e-7 5.1184459,0.9763117 7.0710673,2.9289327 C 9.0236883,-5.1184459 9.999999,-2.7614236 10,0 Z" /></g></g></g></g></g><g
           transform="translate(386,277)"
           id="g448"><g
             id="g450" /><g
             id="g466"
             transform="matrix(1,0,0,-1,0,42)"><g
               style="opacity:0.69803922"
               id="g464"
               clip-path="url(#clipPath454)"><g
                 id="g462"
                 transform="matrix(1,0,0,-1,0,42)"><g
                   id="g460"
                   transform="matrix(0.75031054,0,0,0.75031054,20.098053,21.000854)"><path
                     id="path456"
                     style="fill:#1f77b4;fill-opacity:1;fill-rule:nonzero;stroke:none"
                     d="m 26.27,0 c -1e-6,3.4836185 -0.666564,6.8346496 -1.999689,10.053094 -1.333122,3.218443 -3.231327,6.05931 -5.694616,8.522601 -2.463291,2.463289 -5.304158,4.361494 -8.522601,5.694616 C 6.8346496,25.603436 3.4836185,26.269999 0,26.27 c -3.4836185,-1e-6 -6.8346496,-0.666564 -10.053094,-1.999689 -3.218443,-1.333122 -6.05931,-3.231327 -8.522601,-5.694616 -2.463289,-2.463291 -4.361494,-5.304158 -5.694616,-8.522601 C -25.603436,6.8346496 -26.269999,3.4836185 -26.27,0 c 1e-6,-3.4836185 0.666564,-6.8346496 1.999689,-10.053094 1.333122,-3.218443 3.231327,-6.05931 5.694616,-8.522601 2.463291,-2.463289 5.304158,-4.361494 8.522601,-5.694616 C -6.8346496,-25.603436 -3.4836185,-26.269999 0,-26.27 c 3.4836185,1e-6 6.8346496,0.666564 10.053094,1.999689 3.218443,1.333122 6.05931,3.231327 8.522601,5.694616 2.463289,2.463291 4.361494,5.304158 5.694616,8.522601 C 25.603436,-6.8346496 26.269999,-3.4836185 26.27,0 Z" /><path
                     id="path458"
                     style="fill:none;stroke:#ffffff;stroke-width:1;stroke-linecap:butt;stroke-linejoin:miter;stroke-miterlimit:10;stroke-dasharray:none;stroke-opacity:1"
                     d="m 26.27,0 c -1e-6,3.4836185 -0.666564,6.8346496 -1.999689,10.053094 -1.333122,3.218443 -3.231327,6.05931 -5.694616,8.522601 -2.463291,2.463289 -5.304158,4.361494 -8.522601,5.694616 C 6.8346496,25.603436 3.4836185,26.269999 0,26.27 c -3.4836185,-1e-6 -6.8346496,-0.666564 -10.053094,-1.999689 -3.218443,-1.333122 -6.05931,-3.231327 -8.522601,-5.694616 -2.463289,-2.463291 -4.361494,-5.304158 -5.694616,-8.522601 C -25.603436,6.8346496 -26.269999,3.4836185 -26.27,0 c 1e-6,-3.4836185 0.666564,-6.8346496 1.999689,-10.053094 1.333122,-3.218443 3.231327,-6.05931 5.694616,-8.522601 2.463291,-2.463289 5.304158,-4.361494 8.522601,-5.694616 C -6.8346496,-25.603436 -3.4836185,-26.269999 0,-26.27 c 3.4836185,1e-6 6.8346496,0.666564 10.053094,1.999689 3.218443,1.333122 6.05931,3.231327 8.522601,5.694616 2.463289,2.463291 4.361494,5.304158 5.694616,8.522601 C 25.603436,-6.8346496 26.269999,-3.4836185 26.27,0 Z" /></g></g></g></g></g><g
           transform="translate(398,211)"
           id="g468"><g
             id="g470" /><g
             id="g486"
             transform="matrix(1,0,0,-1,0,17)"><g
               style="opacity:0.69803922"
               id="g484"
               clip-path="url(#clipPath474)"><g
                 id="g482"
                 transform="matrix(1,0,0,-1,0,17)"><g
                   id="g480"
                   transform="matrix(0.75031054,0,0,0.75031054,8.098053,8.3007507)"><path
                     id="path476"
                     style="fill:#1f77b4;fill-opacity:1;fill-rule:nonzero;stroke:none"
                     d="M 10,0 C 9.999999,2.7614236 9.0236883,5.1184459 7.0710673,7.0710673 5.1184459,9.0236883 2.7614236,9.999999 0,10 -2.7614236,9.999999 -5.1184459,9.0236883 -7.0710673,7.0710673 -9.0236883,5.1184459 -9.999999,2.7614236 -10,0 c 10e-7,-2.7614236 0.9763117,-5.1184459 2.9289327,-7.0710673 C -5.1184459,-9.0236883 -2.7614236,-9.999999 0,-10 c 2.7614236,10e-7 5.1184459,0.9763117 7.0710673,2.9289327 C 9.0236883,-5.1184459 9.999999,-2.7614236 10,0 Z" /><path
                     id="path478"
                     style="fill:none;stroke:#ffffff;stroke-width:1;stroke-linecap:butt;stroke-linejoin:miter;stroke-miterlimit:10;stroke-dasharray:none;stroke-opacity:1"
                     d="M 10,0 C 9.999999,2.7614236 9.0236883,5.1184459 7.0710673,7.0710673 5.1184459,9.0236883 2.7614236,9.999999 0,10 -2.7614236,9.999999 -5.1184459,9.0236883 -7.0710673,7.0710673 -9.0236883,5.1184459 -9.999999,2.7614236 -10,0 c 10e-7,-2.7614236 0.9763117,-5.1184459 2.9289327,-7.0710673 C -5.1184459,-9.0236883 -2.7614236,-9.999999 0,-10 c 2.7614236,10e-7 5.1184459,0.9763117 7.0710673,2.9289327 C 9.0236883,-5.1184459 9.999999,-2.7614236 10,0 Z" /></g></g></g></g></g><g
           transform="translate(398,80)"
           id="g488"><g
             id="g490" /><g
             id="g506"
             transform="matrix(1,0,0,-1,0,17)"><g
               style="opacity:0.69803922"
               id="g504"
               clip-path="url(#clipPath494)"><g
                 id="g502"
                 transform="matrix(1,0,0,-1,0,17)"><g
                   id="g500"
                   transform="matrix(0.75031054,0,0,0.75031054,8.098053,8.1314697)"><path
                     id="path496"
                     style="fill:#1f77b4;fill-opacity:1;fill-rule:nonzero;stroke:none"
                     d="M 10,0 C 9.999999,2.7614236 9.0236883,5.1184459 7.0710673,7.0710673 5.1184459,9.0236883 2.7614236,9.999999 0,10 -2.7614236,9.999999 -5.1184459,9.0236883 -7.0710673,7.0710673 -9.0236883,5.1184459 -9.999999,2.7614236 -10,0 c 10e-7,-2.7614236 0.9763117,-5.1184459 2.9289327,-7.0710673 C -5.1184459,-9.0236883 -2.7614236,-9.999999 0,-10 c 2.7614236,10e-7 5.1184459,0.9763117 7.0710673,2.9289327 C 9.0236883,-5.1184459 9.999999,-2.7614236 10,0 Z" /><path
                     id="path498"
                     style="fill:none;stroke:#ffffff;stroke-width:1;stroke-linecap:butt;stroke-linejoin:miter;stroke-miterlimit:10;stroke-dasharray:none;stroke-opacity:1"
                     d="M 10,0 C 9.999999,2.7614236 9.0236883,5.1184459 7.0710673,7.0710673 5.1184459,9.0236883 2.7614236,9.999999 0,10 -2.7614236,9.999999 -5.1184459,9.0236883 -7.0710673,7.0710673 -9.0236883,5.1184459 -9.999999,2.7614236 -10,0 c 10e-7,-2.7614236 0.9763117,-5.1184459 2.9289327,-7.0710673 C -5.1184459,-9.0236883 -2.7614236,-9.999999 0,-10 c 2.7614236,10e-7 5.1184459,0.9763117 7.0710673,2.9289327 C 9.0236883,-5.1184459 9.999999,-2.7614236 10,0 Z" /></g></g></g></g></g><g
           transform="translate(398,54)"
           id="g508"><g
             id="g510" /><g
             id="g526"
             transform="matrix(1,0,0,-1,0,16)"><g
               style="opacity:0.69803922"
               id="g524"
               clip-path="url(#clipPath514)"><g
                 id="g522"
                 transform="matrix(1,0,0,-1,0,16)"><g
                   id="g520"
                   transform="matrix(0.75031054,0,0,0.75031054,8.098053,7.9006195)"><path
                     id="path516"
                     style="fill:#1f77b4;fill-opacity:1;fill-rule:nonzero;stroke:none"
                     d="M 10,0 C 9.999999,2.7614236 9.0236883,5.1184459 7.0710673,7.0710673 5.1184459,9.0236883 2.7614236,9.999999 0,10 -2.7614236,9.999999 -5.1184459,9.0236883 -7.0710673,7.0710673 -9.0236883,5.1184459 -9.999999,2.7614236 -10,0 c 10e-7,-2.7614236 0.9763117,-5.1184459 2.9289327,-7.0710673 C -5.1184459,-9.0236883 -2.7614236,-9.999999 0,-10 c 2.7614236,10e-7 5.1184459,0.9763117 7.0710673,2.9289327 C 9.0236883,-5.1184459 9.999999,-2.7614236 10,0 Z" /><path
                     id="path518"
                     style="fill:none;stroke:#ffffff;stroke-width:1;stroke-linecap:butt;stroke-linejoin:miter;stroke-miterlimit:10;stroke-dasharray:none;stroke-opacity:1"
                     d="M 10,0 C 9.999999,2.7614236 9.0236883,5.1184459 7.0710673,7.0710673 5.1184459,9.0236883 2.7614236,9.999999 0,10 -2.7614236,9.999999 -5.1184459,9.0236883 -7.0710673,7.0710673 -9.0236883,5.1184459 -9.999999,2.7614236 -10,0 c 10e-7,-2.7614236 0.9763117,-5.1184459 2.9289327,-7.0710673 C -5.1184459,-9.0236883 -2.7614236,-9.999999 0,-10 c 2.7614236,10e-7 5.1184459,0.9763117 7.0710673,2.9289327 C 9.0236883,-5.1184459 9.999999,-2.7614236 10,0 Z" /></g></g></g></g></g><g
           transform="translate(375,241)"
           id="g528"><g
             id="g530" /><g
             id="g546"
             transform="matrix(1,0,0,-1,0,62)"><g
               style="opacity:0.69803922"
               id="g544"
               clip-path="url(#clipPath534)"><g
                 id="g542"
                 transform="matrix(1,0,0,-1,0,62)"><g
                   id="g540"
                   transform="matrix(0.75031054,0,0,0.75031054,31.098053,30.769958)"><path
                     id="path536"
                     style="fill:#1f77b4;fill-opacity:1;fill-rule:nonzero;stroke:none"
                     d="m 39.810001,0 c -3e-6,5.2791338 -1.010124,10.357343 -3.030361,15.234627 -2.020237,4.877285 -4.896808,9.182382 -8.629719,12.915294 -3.732912,3.732911 -8.038009,6.609482 -12.915294,8.629719 C 10.357343,38.799877 5.2791338,39.809998 0,39.810001 c -5.2791338,-3e-6 -10.357343,-1.010124 -15.234627,-3.030361 -4.877285,-2.020237 -9.182382,-4.896808 -12.915294,-8.629719 -3.732911,-3.732912 -6.609482,-8.038009 -8.629719,-12.915294 C -38.799877,10.357343 -39.809998,5.2791338 -39.810001,0 c 3e-6,-5.2791338 1.010124,-10.357343 3.030361,-15.234627 2.020237,-4.877285 4.896808,-9.182382 8.629719,-12.915294 3.732912,-3.732911 8.038009,-6.609482 12.915294,-8.629719 4.877284,-2.020237 9.9554932,-3.030358 15.234627,-3.030361 5.2791338,3e-6 10.357343,1.010124 15.234627,3.030361 4.877285,2.020237 9.182382,4.896808 12.915294,8.629719 3.732911,3.732912 6.609482,8.038009 8.629719,12.915294 2.020237,4.877284 3.030358,9.9554932 3.030361,15.234627 z" /><path
                     id="path538"
                     style="fill:none;stroke:#ffffff;stroke-width:1;stroke-linecap:butt;stroke-linejoin:miter;stroke-miterlimit:10;stroke-dasharray:none;stroke-opacity:1"
                     d="m 39.810001,0 c -3e-6,5.2791338 -1.010124,10.357343 -3.030361,15.234627 -2.020237,4.877285 -4.896808,9.182382 -8.629719,12.915294 -3.732912,3.732911 -8.038009,6.609482 -12.915294,8.629719 C 10.357343,38.799877 5.2791338,39.809998 0,39.810001 c -5.2791338,-3e-6 -10.357343,-1.010124 -15.234627,-3.030361 -4.877285,-2.020237 -9.182382,-4.896808 -12.915294,-8.629719 -3.732911,-3.732912 -6.609482,-8.038009 -8.629719,-12.915294 C -38.799877,10.357343 -39.809998,5.2791338 -39.810001,0 c 3e-6,-5.2791338 1.010124,-10.357343 3.030361,-15.234627 2.020237,-4.877285 4.896808,-9.182382 8.629719,-12.915294 3.732912,-3.732911 8.038009,-6.609482 12.915294,-8.629719 4.877284,-2.020237 9.9554932,-3.030358 15.234627,-3.030361 5.2791338,3e-6 10.357343,1.010124 15.234627,3.030361 4.877285,2.020237 9.182382,4.896808 12.915294,8.629719 3.732911,3.732912 6.609482,8.038009 8.629719,12.915294 2.020237,4.877284 3.030358,9.9554932 3.030361,15.234627 z" /></g></g></g></g></g><g
           transform="translate(374,213)"
           id="g548"><g
             id="g550" /><g
             id="g566"
             transform="matrix(1,0,0,-1,0,65)"><g
               style="opacity:0.69803922"
               id="g564"
               clip-path="url(#clipPath554)"><g
                 id="g562"
                 transform="matrix(1,0,0,-1,0,65)"><g
                   id="g560"
                   transform="matrix(0.75031054,0,0,0.75031054,32.098053,32.531616)"><path
                     id="path556"
                     style="fill:#1f77b4;fill-opacity:1;fill-rule:nonzero;stroke:none"
                     d="m 42.150002,0 c -4e-6,5.589437 -1.069497,10.966139 -3.208481,16.130106 -2.138989,5.163965 -5.184643,9.722115 -9.136969,13.674446 -3.952331,3.952326 -8.510481,6.99798 -13.674446,9.136965 C 10.966138,41.080505 5.5894356,42.149998 -1.2561679e-6,42.150002 -5.5894389,42.149998 -10.96614,41.080505 -16.130106,38.941521 c -5.163967,-2.138989 -9.722116,-5.184643 -13.674446,-9.136969 -3.952326,-3.95233 -6.99798,-8.510479 -9.136965,-13.674446 C -41.080505,10.96614 -42.149998,5.5894389 -42.150002,1.2561679e-6 -42.149998,-5.5894356 -41.080505,-10.966138 -38.941521,-16.130106 c 2.138989,-5.163965 5.184643,-9.722115 9.136969,-13.674446 3.95233,-3.952326 8.510479,-6.99798 13.674446,-9.136965 5.163966,-2.138988 10.5406671,-3.208481 16.1301047438321,-3.208485 C 5.5894356,-42.149998 10.966138,-41.080505 16.130106,-38.941521 c 5.163965,2.138989 9.722115,5.184643 13.674446,9.136969 3.952326,3.952331 6.99798,8.510481 9.136965,13.674446 2.138988,5.163968 3.208481,10.5406704 3.208485,16.1301072561679 z" /><path
                     id="path558"
                     style="fill:none;stroke:#ffffff;stroke-width:1;stroke-linecap:butt;stroke-linejoin:miter;stroke-miterlimit:10;stroke-dasharray:none;stroke-opacity:1"
                     d="m 42.150002,0 c -4e-6,5.589437 -1.069497,10.966139 -3.208481,16.130106 -2.138989,5.163965 -5.184643,9.722115 -9.136969,13.674446 -3.952331,3.952326 -8.510481,6.99798 -13.674446,9.136965 C 10.966138,41.080505 5.5894356,42.149998 -1.2561679e-6,42.150002 -5.5894389,42.149998 -10.96614,41.080505 -16.130106,38.941521 c -5.163967,-2.138989 -9.722116,-5.184643 -13.674446,-9.136969 -3.952326,-3.95233 -6.99798,-8.510479 -9.136965,-13.674446 C -41.080505,10.96614 -42.149998,5.5894389 -42.150002,1.2561679e-6 -42.149998,-5.5894356 -41.080505,-10.966138 -38.941521,-16.130106 c 2.138989,-5.163965 5.184643,-9.722115 9.136969,-13.674446 3.95233,-3.952326 8.510479,-6.99798 13.674446,-9.136965 5.163966,-2.138988 10.5406671,-3.208481 16.1301047438321,-3.208485 C 5.5894356,-42.149998 10.966138,-41.080505 16.130106,-38.941521 c 5.163965,2.138989 9.722115,5.184643 13.674446,9.136969 3.952326,3.952331 6.99798,8.510481 9.136965,13.674446 2.138988,5.163968 3.208481,10.5406704 3.208485,16.1301072561679 z" /></g></g></g></g></g><g
           transform="translate(391,151)"
           id="g568"><g
             id="g570" /><g
             id="g586"
             transform="matrix(1,0,0,-1,0,31)"><g
               style="opacity:0.69803922"
               id="g584"
               clip-path="url(#clipPath574)"><g
                 id="g582"
                 transform="matrix(1,0,0,-1,0,31)"><g
                   id="g580"
                   transform="matrix(0.75031054,0,0,0.75031054,15.098053,15.831543)"><path
                     id="path576"
                     style="fill:#1f77b4;fill-opacity:1;fill-rule:nonzero;stroke:none"
                     d="m 19.33,0 c 0,5.3378315 -1.887209,9.8939552 -5.661627,13.668373 C 9.8939552,17.442791 5.3378315,19.33 0,19.33 -5.3378315,19.33 -9.8939552,17.442791 -13.668373,13.668373 -17.442791,9.8939552 -19.33,5.3378315 -19.33,0 c 0,-5.3378315 1.887209,-9.8939552 5.661627,-13.668373 C -9.8939552,-17.442791 -5.3378315,-19.33 0,-19.33 c 5.3378315,0 9.8939552,1.887209 13.668373,5.661627 C 17.442791,-9.8939552 19.33,-5.3378315 19.33,0 Z" /><path
                     id="path578"
                     style="fill:none;stroke:#ffffff;stroke-width:1;stroke-linecap:butt;stroke-linejoin:miter;stroke-miterlimit:10;stroke-dasharray:none;stroke-opacity:1"
                     d="m 19.33,0 c 0,5.3378315 -1.887209,9.8939552 -5.661627,13.668373 C 9.8939552,17.442791 5.3378315,19.33 0,19.33 -5.3378315,19.33 -9.8939552,17.442791 -13.668373,13.668373 -17.442791,9.8939552 -19.33,5.3378315 -19.33,0 c 0,-5.3378315 1.887209,-9.8939552 5.661627,-13.668373 C -9.8939552,-17.442791 -5.3378315,-19.33 0,-19.33 c 5.3378315,0 9.8939552,1.887209 13.668373,5.661627 C 17.442791,-9.8939552 19.33,-5.3378315 19.33,0 Z" /></g></g></g></g></g><g
           transform="translate(386,120)"
           id="g588"><g
             id="g590" /><g
             id="g606"
             transform="matrix(1,0,0,-1,0,41)"><g
               style="opacity:0.69803922"
               id="g604"
               clip-path="url(#clipPath594)"><g
                 id="g602"
                 transform="matrix(1,0,0,-1,0,41)"><g
                   id="g600"
                   transform="matrix(0.75031054,0,0,0.75031054,20.098053,20.600693)"><path
                     id="path596"
                     style="fill:#1f77b4;fill-opacity:1;fill-rule:nonzero;stroke:none"
                     d="m 26.27,0 c -1e-6,3.4836185 -0.666564,6.8346496 -1.999689,10.053094 -1.333122,3.218443 -3.231327,6.05931 -5.694616,8.522601 -2.463291,2.463289 -5.304158,4.361494 -8.522601,5.694616 C 6.8346496,25.603436 3.4836185,26.269999 0,26.27 c -3.4836185,-1e-6 -6.8346496,-0.666564 -10.053094,-1.999689 -3.218443,-1.333122 -6.05931,-3.231327 -8.522601,-5.694616 -2.463289,-2.463291 -4.361494,-5.304158 -5.694616,-8.522601 C -25.603436,6.8346496 -26.269999,3.4836185 -26.27,0 c 1e-6,-3.4836185 0.666564,-6.8346496 1.999689,-10.053094 1.333122,-3.218443 3.231327,-6.05931 5.694616,-8.522601 2.463291,-2.463289 5.304158,-4.361494 8.522601,-5.694616 C -6.8346496,-25.603436 -3.4836185,-26.269999 0,-26.27 c 3.4836185,1e-6 6.8346496,0.666564 10.053094,1.999689 3.218443,1.333122 6.05931,3.231327 8.522601,5.694616 2.463289,2.463291 4.361494,5.304158 5.694616,8.522601 C 25.603436,-6.8346496 26.269999,-3.4836185 26.27,0 Z" /><path
                     id="path598"
                     style="fill:none;stroke:#ffffff;stroke-width:1;stroke-linecap:butt;stroke-linejoin:miter;stroke-miterlimit:10;stroke-dasharray:none;stroke-opacity:1"
                     d="m 26.27,0 c -1e-6,3.4836185 -0.666564,6.8346496 -1.999689,10.053094 -1.333122,3.218443 -3.231327,6.05931 -5.694616,8.522601 -2.463291,2.463289 -5.304158,4.361494 -8.522601,5.694616 C 6.8346496,25.603436 3.4836185,26.269999 0,26.27 c -3.4836185,-1e-6 -6.8346496,-0.666564 -10.053094,-1.999689 -3.218443,-1.333122 -6.05931,-3.231327 -8.522601,-5.694616 -2.463289,-2.463291 -4.361494,-5.304158 -5.694616,-8.522601 C -25.603436,6.8346496 -26.269999,3.4836185 -26.27,0 c 1e-6,-3.4836185 0.666564,-6.8346496 1.999689,-10.053094 1.333122,-3.218443 3.231327,-6.05931 5.694616,-8.522601 2.463291,-2.463289 5.304158,-4.361494 8.522601,-5.694616 C -6.8346496,-25.603436 -3.4836185,-26.269999 0,-26.27 c 3.4836185,1e-6 6.8346496,0.666564 10.053094,1.999689 3.218443,1.333122 6.05931,3.231327 8.522601,5.694616 2.463289,2.463291 4.361494,5.304158 5.694616,8.522601 C 25.603436,-6.8346496 26.269999,-3.4836185 26.27,0 Z" /></g></g></g></g></g><g
           transform="translate(460,263)"
           id="g608"><g
             id="g610" /><g
             id="g626"
             transform="matrix(1,0,0,-1,0,17)"><g
               style="opacity:0.69803922"
               id="g624"
               clip-path="url(#clipPath614)"><g
                 id="g622"
                 transform="matrix(1,0,0,-1,0,17)"><g
                   id="g620"
                   transform="matrix(0.75031054,0,0,0.75031054,8.4713745,8.7699585)"><path
                     id="path616"
                     style="fill:#1f77b4;fill-opacity:1;fill-rule:nonzero;stroke:none"
                     d="M 10,0 C 9.999999,2.7614236 9.0236883,5.1184459 7.0710673,7.0710673 5.1184459,9.0236883 2.7614236,9.999999 0,10 -2.7614236,9.999999 -5.1184459,9.0236883 -7.0710673,7.0710673 -9.0236883,5.1184459 -9.999999,2.7614236 -10,0 c 10e-7,-2.7614236 0.9763117,-5.1184459 2.9289327,-7.0710673 C -5.1184459,-9.0236883 -2.7614236,-9.999999 0,-10 c 2.7614236,10e-7 5.1184459,0.9763117 7.0710673,2.9289327 C 9.0236883,-5.1184459 9.999999,-2.7614236 10,0 Z" /><path
                     id="path618"
                     style="fill:none;stroke:#ffffff;stroke-width:1;stroke-linecap:butt;stroke-linejoin:miter;stroke-miterlimit:10;stroke-dasharray:none;stroke-opacity:1"
                     d="M 10,0 C 9.999999,2.7614236 9.0236883,5.1184459 7.0710673,7.0710673 5.1184459,9.0236883 2.7614236,9.999999 0,10 -2.7614236,9.999999 -5.1184459,9.0236883 -7.0710673,7.0710673 -9.0236883,5.1184459 -9.999999,2.7614236 -10,0 c 10e-7,-2.7614236 0.9763117,-5.1184459 2.9289327,-7.0710673 C -5.1184459,-9.0236883 -2.7614236,-9.999999 0,-10 c 2.7614236,10e-7 5.1184459,0.9763117 7.0710673,2.9289327 C 9.0236883,-5.1184459 9.999999,-2.7614236 10,0 Z" /></g></g></g></g></g><g
           transform="translate(460,237)"
           id="g628"><g
             id="g630" /><g
             id="g646"
             transform="matrix(1,0,0,-1,0,17)"><g
               style="opacity:0.69803922"
               id="g644"
               clip-path="url(#clipPath634)"><g
                 id="g642"
                 transform="matrix(1,0,0,-1,0,17)"><g
                   id="g640"
                   transform="matrix(0.75031054,0,0,0.75031054,8.4713745,8.5316162)"><path
                     id="path636"
                     style="fill:#1f77b4;fill-opacity:1;fill-rule:nonzero;stroke:none"
                     d="M 10,0 C 9.999999,2.7614236 9.0236883,5.1184459 7.0710673,7.0710673 5.1184459,9.0236883 2.7614236,9.999999 0,10 -2.7614236,9.999999 -5.1184459,9.0236883 -7.0710673,7.0710673 -9.0236883,5.1184459 -9.999999,2.7614236 -10,0 c 10e-7,-2.7614236 0.9763117,-5.1184459 2.9289327,-7.0710673 C -5.1184459,-9.0236883 -2.7614236,-9.999999 0,-10 c 2.7614236,10e-7 5.1184459,0.9763117 7.0710673,2.9289327 C 9.0236883,-5.1184459 9.999999,-2.7614236 10,0 Z" /><path
                     id="path638"
                     style="fill:none;stroke:#ffffff;stroke-width:1;stroke-linecap:butt;stroke-linejoin:miter;stroke-miterlimit:10;stroke-dasharray:none;stroke-opacity:1"
                     d="M 10,0 C 9.999999,2.7614236 9.0236883,5.1184459 7.0710673,7.0710673 5.1184459,9.0236883 2.7614236,9.999999 0,10 -2.7614236,9.999999 -5.1184459,9.0236883 -7.0710673,7.0710673 -9.0236883,5.1184459 -9.999999,2.7614236 -10,0 c 10e-7,-2.7614236 0.9763117,-5.1184459 2.9289327,-7.0710673 C -5.1184459,-9.0236883 -2.7614236,-9.999999 0,-10 c 2.7614236,10e-7 5.1184459,0.9763117 7.0710673,2.9289327 C 9.0236883,-5.1184459 9.999999,-2.7614236 10,0 Z" /></g></g></g></g></g><g
           transform="translate(460,158)"
           id="g648"><g
             id="g650" /><g
             id="g666"
             transform="matrix(1,0,0,-1,0,17)"><g
               style="opacity:0.69803922"
               id="g664"
               clip-path="url(#clipPath654)"><g
                 id="g662"
                 transform="matrix(1,0,0,-1,0,17)"><g
                   id="g660"
                   transform="matrix(0.75031054,0,0,0.75031054,8.4713745,8.831543)"><path
                     id="path656"
                     style="fill:#1f77b4;fill-opacity:1;fill-rule:nonzero;stroke:none"
                     d="M 10,0 C 9.999999,2.7614236 9.0236883,5.1184459 7.0710673,7.0710673 5.1184459,9.0236883 2.7614236,9.999999 0,10 -2.7614236,9.999999 -5.1184459,9.0236883 -7.0710673,7.0710673 -9.0236883,5.1184459 -9.999999,2.7614236 -10,0 c 10e-7,-2.7614236 0.9763117,-5.1184459 2.9289327,-7.0710673 C -5.1184459,-9.0236883 -2.7614236,-9.999999 0,-10 c 2.7614236,10e-7 5.1184459,0.9763117 7.0710673,2.9289327 C 9.0236883,-5.1184459 9.999999,-2.7614236 10,0 Z" /><path
                     id="path658"
                     style="fill:none;stroke:#ffffff;stroke-width:1;stroke-linecap:butt;stroke-linejoin:miter;stroke-miterlimit:10;stroke-dasharray:none;stroke-opacity:1"
                     d="M 10,0 C 9.999999,2.7614236 9.0236883,5.1184459 7.0710673,7.0710673 5.1184459,9.0236883 2.7614236,9.999999 0,10 -2.7614236,9.999999 -5.1184459,9.0236883 -7.0710673,7.0710673 -9.0236883,5.1184459 -9.999999,2.7614236 -10,0 c 10e-7,-2.7614236 0.9763117,-5.1184459 2.9289327,-7.0710673 C -5.1184459,-9.0236883 -2.7614236,-9.999999 0,-10 c 2.7614236,10e-7 5.1184459,0.9763117 7.0710673,2.9289327 C 9.0236883,-5.1184459 9.999999,-2.7614236 10,0 Z" /></g></g></g></g></g><g
           transform="translate(522,237)"
           id="g668"><g
             id="g670" /><g
             id="g686"
             transform="matrix(1,0,0,-1,0,17)"><g
               style="opacity:0.69803922"
               id="g684"
               clip-path="url(#clipPath674)"><g
                 id="g682"
                 transform="matrix(1,0,0,-1,0,17)"><g
                   id="g680"
                   transform="matrix(0.75031054,0,0,0.75031054,8.8447266,8.5316162)"><path
                     id="path676"
                     style="fill:#1f77b4;fill-opacity:1;fill-rule:nonzero;stroke:none"
                     d="M 10,0 C 9.999999,2.7614236 9.0236883,5.1184459 7.0710673,7.0710673 5.1184459,9.0236883 2.7614236,9.999999 0,10 -2.7614236,9.999999 -5.1184459,9.0236883 -7.0710673,7.0710673 -9.0236883,5.1184459 -9.999999,2.7614236 -10,0 c 10e-7,-2.7614236 0.9763117,-5.1184459 2.9289327,-7.0710673 C -5.1184459,-9.0236883 -2.7614236,-9.999999 0,-10 c 2.7614236,10e-7 5.1184459,0.9763117 7.0710673,2.9289327 C 9.0236883,-5.1184459 9.999999,-2.7614236 10,0 Z" /><path
                     id="path678"
                     style="fill:none;stroke:#ffffff;stroke-width:1;stroke-linecap:butt;stroke-linejoin:miter;stroke-miterlimit:10;stroke-dasharray:none;stroke-opacity:1"
                     d="M 10,0 C 9.999999,2.7614236 9.0236883,5.1184459 7.0710673,7.0710673 5.1184459,9.0236883 2.7614236,9.999999 0,10 -2.7614236,9.999999 -5.1184459,9.0236883 -7.0710673,7.0710673 -9.0236883,5.1184459 -9.999999,2.7614236 -10,0 c 10e-7,-2.7614236 0.9763117,-5.1184459 2.9289327,-7.0710673 C -5.1184459,-9.0236883 -2.7614236,-9.999999 0,-10 c 2.7614236,10e-7 5.1184459,0.9763117 7.0710673,2.9289327 C 9.0236883,-5.1184459 9.999999,-2.7614236 10,0 Z" /></g></g></g></g></g><g
           transform="matrix(0.75031054,0,0,0.75031054,112.54658,39.766457)"
           id="g688"><text
             id="text692"
             style="font-variant:normal;font-weight:normal;font-size:12px;font-family:'Liberation Sans';-inkscape-font-specification:LiberationSans;writing-mode:lr-tb;fill:#444444;fill-opacity:1;fill-rule:nonzero;stroke:none"
             transform="translate(55.383087,347.17001)"><tspan
               id="tspan690"
               y="0"
               x="0">1</tspan></text>
<text
             id="text696"
             style="font-variant:normal;font-weight:normal;font-size:12px;font-family:'Liberation Sans';-inkscape-font-specification:LiberationSans;writing-mode:lr-tb;fill:#444444;fill-opacity:1;fill-rule:nonzero;stroke:none"
             transform="translate(55.383087,312.20999)"><tspan
               id="tspan694"
               y="0"
               x="0">4</tspan></text>
<text
             id="text700"
             style="font-variant:normal;font-weight:normal;font-size:12px;font-family:'Liberation Sans';-inkscape-font-specification:LiberationSans;writing-mode:lr-tb;fill:#444444;fill-opacity:1;fill-rule:nonzero;stroke:none"
             transform="translate(55.383087,277.23999)"><tspan
               id="tspan698"
               y="0"
               x="0">1</tspan></text>
<text
             id="text704"
             style="font-variant:normal;font-weight:normal;font-size:12px;font-family:'Liberation Sans';-inkscape-font-specification:LiberationSans;writing-mode:lr-tb;fill:#444444;fill-opacity:1;fill-rule:nonzero;stroke:none"
             transform="translate(138.51309,242.28)"><tspan
               id="tspan702"
               y="0"
               x="0">1</tspan></text>
<text
             id="text708"
             style="font-variant:normal;font-weight:normal;font-size:12px;font-family:'Liberation Sans';-inkscape-font-specification:LiberationSans;writing-mode:lr-tb;fill:#444444;fill-opacity:1;fill-rule:nonzero;stroke:none"
             transform="translate(138.51309,207.32001)"><tspan
               id="tspan706"
               y="0"
               x="0">1</tspan></text>
<text
             id="text712"
             style="font-variant:normal;font-weight:normal;font-size:12px;font-family:'Liberation Sans';-inkscape-font-specification:LiberationSans;writing-mode:lr-tb;fill:#444444;fill-opacity:1;fill-rule:nonzero;stroke:none"
             transform="translate(138.51309,277.23999)"><tspan
               id="tspan710"
               y="0"
               x="0">3</tspan></text>
<text
             id="text716"
             style="font-variant:normal;font-weight:normal;font-size:12px;font-family:'Liberation Sans';-inkscape-font-specification:LiberationSans;writing-mode:lr-tb;fill:#444444;fill-opacity:1;fill-rule:nonzero;stroke:none"
             transform="translate(138.51309,172.35001)"><tspan
               id="tspan714"
               y="0"
               x="0">1</tspan></text>
<text
             id="text720"
             style="font-variant:normal;font-weight:normal;font-size:12px;font-family:'Liberation Sans';-inkscape-font-specification:LiberationSans;writing-mode:lr-tb;fill:#444444;fill-opacity:1;fill-rule:nonzero;stroke:none"
             transform="translate(138.51309,137.39)"><tspan
               id="tspan718"
               y="0"
               x="0">3</tspan></text>
<text
             id="text724"
             style="font-variant:normal;font-weight:normal;font-size:12px;font-family:'Liberation Sans';-inkscape-font-specification:LiberationSans;writing-mode:lr-tb;fill:#444444;fill-opacity:1;fill-rule:nonzero;stroke:none"
             transform="translate(221.64308,347.17001)"><tspan
               id="tspan722"
               y="0"
               x="0">1</tspan></text>
<text
             id="text728"
             style="font-variant:normal;font-weight:normal;font-size:12px;font-family:'Liberation Sans';-inkscape-font-specification:LiberationSans;writing-mode:lr-tb;fill:#444444;fill-opacity:1;fill-rule:nonzero;stroke:none"
             transform="translate(221.64308,312.20999)"><tspan
               id="tspan726"
               y="0"
               x="0">3</tspan></text>
<text
             id="text732"
             style="font-variant:normal;font-weight:normal;font-size:12px;font-family:'Liberation Sans';-inkscape-font-specification:LiberationSans;writing-mode:lr-tb;fill:#444444;fill-opacity:1;fill-rule:nonzero;stroke:none"
             transform="translate(221.64308,102.43)"><tspan
               id="tspan730"
               y="0"
               x="0">1</tspan></text>
<text
             id="text736"
             style="font-variant:normal;font-weight:normal;font-size:12px;font-family:'Liberation Sans';-inkscape-font-specification:LiberationSans;writing-mode:lr-tb;fill:#444444;fill-opacity:1;fill-rule:nonzero;stroke:none"
             transform="translate(221.64308,277.23999)"><tspan
               id="tspan734"
               y="0"
               x="0">7</tspan></text>
<text
             id="text740"
             style="font-variant:normal;font-weight:normal;font-size:12px;font-family:'Liberation Sans';-inkscape-font-specification:LiberationSans;writing-mode:lr-tb;fill:#444444;fill-opacity:1;fill-rule:nonzero;stroke:none"
             transform="translate(221.64308,172.35001)"><tspan
               id="tspan738"
               y="0"
               x="0">1</tspan></text>
<text
             id="text744"
             style="font-variant:normal;font-weight:normal;font-size:12px;font-family:'Liberation Sans';-inkscape-font-specification:LiberationSans;writing-mode:lr-tb;fill:#444444;fill-opacity:1;fill-rule:nonzero;stroke:none"
             transform="translate(304.77307,312.20999)"><tspan
               id="tspan742"
               y="0"
               x="0">1</tspan></text>
<text
             id="text748"
             style="font-variant:normal;font-weight:normal;font-size:12px;font-family:'Liberation Sans';-inkscape-font-specification:LiberationSans;writing-mode:lr-tb;fill:#444444;fill-opacity:1;fill-rule:nonzero;stroke:none"
             transform="translate(304.77307,277.23999)"><tspan
               id="tspan746"
               y="0"
               x="0">1</tspan></text>
<text
             id="text752"
             style="font-variant:normal;font-weight:normal;font-size:12px;font-family:'Liberation Sans';-inkscape-font-specification:LiberationSans;writing-mode:lr-tb;fill:#444444;fill-opacity:1;fill-rule:nonzero;stroke:none"
             transform="translate(387.90308,347.17001)"><tspan
               id="tspan750"
               y="0"
               x="0">5</tspan></text>
<text
             id="text756"
             style="font-variant:normal;font-weight:normal;font-size:12px;font-family:'Liberation Sans';-inkscape-font-specification:LiberationSans;writing-mode:lr-tb;fill:#444444;fill-opacity:1;fill-rule:nonzero;stroke:none"
             transform="translate(387.90308,242.28)"><tspan
               id="tspan754"
               y="0"
               x="0">1</tspan></text>
<text
             id="text760"
             style="font-variant:normal;font-weight:normal;font-size:12px;font-family:'Liberation Sans';-inkscape-font-specification:LiberationSans;writing-mode:lr-tb;fill:#444444;fill-opacity:1;fill-rule:nonzero;stroke:none"
             transform="translate(387.90308,67.459999)"><tspan
               id="tspan758"
               y="0"
               x="0">1</tspan></text>
<text
             id="text764"
             style="font-variant:normal;font-weight:normal;font-size:12px;font-family:'Liberation Sans';-inkscape-font-specification:LiberationSans;writing-mode:lr-tb;fill:#444444;fill-opacity:1;fill-rule:nonzero;stroke:none"
             transform="translate(387.90308,32.5)"><tspan
               id="tspan762"
               y="0"
               x="0">1</tspan></text>
<text
             id="text768"
             style="font-variant:normal;font-weight:normal;font-size:12px;font-family:'Liberation Sans';-inkscape-font-specification:LiberationSans;writing-mode:lr-tb;fill:#444444;fill-opacity:1;fill-rule:nonzero;stroke:none"
             transform="translate(384.56616,312.20999)"><tspan
               id="tspan766"
               y="0"
               x="0 6.6738281">10</tspan></text>
<text
             id="text772"
             style="font-variant:normal;font-weight:normal;font-size:12px;font-family:'Liberation Sans';-inkscape-font-specification:LiberationSans;writing-mode:lr-tb;fill:#444444;fill-opacity:1;fill-rule:nonzero;stroke:none"
             transform="translate(385.01147,277.23999)"><tspan
               id="tspan770"
               y="0"
               x="0 5.7832031">11</tspan></text>
<text
             id="text776"
             style="font-variant:normal;font-weight:normal;font-size:12px;font-family:'Liberation Sans';-inkscape-font-specification:LiberationSans;writing-mode:lr-tb;fill:#444444;fill-opacity:1;fill-rule:nonzero;stroke:none"
             transform="translate(387.90308,172.35001)"><tspan
               id="tspan774"
               y="0"
               x="0">3</tspan></text>
<text
             id="text780"
             style="font-variant:normal;font-weight:normal;font-size:12px;font-family:'Liberation Sans';-inkscape-font-specification:LiberationSans;writing-mode:lr-tb;fill:#444444;fill-opacity:1;fill-rule:nonzero;stroke:none"
             transform="translate(387.90308,137.39)"><tspan
               id="tspan778"
               y="0"
               x="0">5</tspan></text>
<text
             id="text784"
             style="font-variant:normal;font-weight:normal;font-size:12px;font-family:'Liberation Sans';-inkscape-font-specification:LiberationSans;writing-mode:lr-tb;fill:#444444;fill-opacity:1;fill-rule:nonzero;stroke:none"
             transform="translate(471.03308,312.20999)"><tspan
               id="tspan782"
               y="0"
               x="0">1</tspan></text>
<text
             id="text788"
             style="font-variant:normal;font-weight:normal;font-size:12px;font-family:'Liberation Sans';-inkscape-font-specification:LiberationSans;writing-mode:lr-tb;fill:#444444;fill-opacity:1;fill-rule:nonzero;stroke:none"
             transform="translate(471.03308,277.23999)"><tspan
               id="tspan786"
               y="0"
               x="0">1</tspan></text>
<text
             id="text792"
             style="font-variant:normal;font-weight:normal;font-size:12px;font-family:'Liberation Sans';-inkscape-font-specification:LiberationSans;writing-mode:lr-tb;fill:#444444;fill-opacity:1;fill-rule:nonzero;stroke:none"
             transform="translate(471.03308,172.35001)"><tspan
               id="tspan790"
               y="0"
               x="0">1</tspan></text>
<text
             id="text796"
             style="font-variant:normal;font-weight:normal;font-size:12px;font-family:'Liberation Sans';-inkscape-font-specification:LiberationSans;writing-mode:lr-tb;fill:#444444;fill-opacity:1;fill-rule:nonzero;stroke:none"
             transform="translate(554.16309,277.23999)"><tspan
               id="tspan794"
               y="0"
               x="0">1</tspan></text>
</g></g></g><g
       id="g798"><g
         clip-path="url(#clipPath804)"
         id="g800"><g
           transform="matrix(0.64978796,0.37515527,-0.37515527,0.64978796,329.55139,46.340897)"
           id="g806"><text
             id="text810"
             style="font-variant:normal;font-weight:normal;font-size:12px;font-family:'Liberation Sans';-inkscape-font-specification:LiberationSans;writing-mode:lr-tb;fill:#444444;fill-opacity:1;fill-rule:nonzero;stroke:none"
             transform="translate(0,467)"><tspan
               id="tspan808"
               y="0"
               x="0 8.6660156 15.339844 22.013672 28.6875 32.021484 38.695312 42.691406 46.025391 52.699219 58.699219 62.033203 68.707031 75.380859 78.046875">Counterfactuals</tspan></text>
</g><g
           transform="matrix(0.64978796,0.37515527,-0.37515527,0.64978796,391.92468,46.340897)"
           id="g812"><text
             id="text816"
             style="font-variant:normal;font-weight:normal;font-size:12px;font-family:'Liberation Sans';-inkscape-font-specification:LiberationSans;writing-mode:lr-tb;fill:#444444;fill-opacity:1;fill-rule:nonzero;stroke:none"
             transform="translate(0,467)"><tspan
               id="tspan814"
               y="0"
               x="0 8.6660156 15.339844 21.339844 28.013672 38.009766 44.683594 51.357422 57.357422 60.023438 63.357422 66.023438 72.697266">Decomposition</tspan></text>
</g><g
           transform="matrix(0.64978796,0.37515527,-0.37515527,0.64978796,454.298,46.340897)"
           id="g818"><text
             id="text822"
             style="font-variant:normal;font-weight:normal;font-size:12px;font-family:'Liberation Sans';-inkscape-font-specification:LiberationSans;writing-mode:lr-tb;fill:#444444;fill-opacity:1;fill-rule:nonzero;stroke:none"
             transform="translate(0,467)"><tspan
               id="tspan820"
               y="0"
               x="0 7.3300781 14.003906 20.677734 24.011719 30.685547 34.681641 41.355469 44.689453 47.355469 57.351562 64.025391 70.699219 74.695312 78.029297 84.703125 91.376953 97.376953">Feature importance</tspan></text>
</g><g
           transform="matrix(0.64978796,0.37515527,-0.37515527,0.64978796,516.67133,46.340897)"
           id="g824"><text
             id="text828"
             style="font-variant:normal;font-weight:normal;font-size:12px;font-family:'Liberation Sans';-inkscape-font-specification:LiberationSans;writing-mode:lr-tb;fill:#444444;fill-opacity:1;fill-rule:nonzero;stroke:none"
             transform="translate(0,467)"><tspan
               id="tspan826"
               y="0"
               x="0 3.3339844 10.007812 16.007812 19.341797 26.015625 32.689453 38.689453 45.363281 48.697266 55.371094 61.371094 68.044922 70.710938 77.384766 84.058594 90.732422 94.066406 96.732422 103.40625 110.08008 113.41406 119.41406 126.08789 136.08398 142.75781 149.43164 153.42773 156.09375 162.09375 168.76758">Instance explanation comparison</tspan></text>
</g><g
           transform="matrix(0.64978796,0.37515527,-0.37515527,0.64978796,579.04468,46.340897)"
           id="g830"><text
             id="text834"
             style="font-variant:normal;font-weight:normal;font-size:12px;font-family:'Liberation Sans';-inkscape-font-specification:LiberationSans;writing-mode:lr-tb;fill:#444444;fill-opacity:1;fill-rule:nonzero;stroke:none"
             transform="translate(0,467)"><tspan
               id="tspan832"
               y="0"
               x="0 6.6738281 13.347656 19.347656 26.021484 28.6875 32.021484 34.6875 41.361328 47.361328 50.695312 57.369141 64.042969 70.042969 76.716797 80.050781 86.724609 92.724609 99.398438 102.06445 108.73828 115.41211 122.08594 125.41992 128.08594 134.75977 141.43359">Local instance explanations</tspan></text>
</g><g
           transform="matrix(0.64978796,0.37515527,-0.37515527,0.64978796,641.41797,46.340897)"
           id="g836"><text
             id="text840"
             style="font-variant:normal;font-weight:normal;font-size:12px;font-family:'Liberation Sans';-inkscape-font-specification:LiberationSans;writing-mode:lr-tb;fill:#444444;fill-opacity:1;fill-rule:nonzero;stroke:none"
             transform="translate(0,467)"><tspan
               id="tspan838"
               y="0"
               x="0 8.6660156 15.339844 22.013672 26.009766 32.683594 38.683594 42.017578 45.351562 54.017578 60.691406 63.357422 70.03125 76.705078 83.378906 90.052734 96.726562 100.72266">Nearest Neighbours</tspan></text>
</g><g
           transform="matrix(0.64978796,0.37515527,-0.37515527,0.64978796,703.79126,46.340897)"
           id="g842"><text
             id="text846"
             style="font-variant:normal;font-weight:normal;font-size:12px;font-family:'Liberation Sans';-inkscape-font-specification:LiberationSans;writing-mode:lr-tb;fill:#444444;fill-opacity:1;fill-rule:nonzero;stroke:none"
             transform="translate(0,467)"><tspan
               id="tspan844"
               y="0"
               x="0 8.6660156 15.339844 22.013672 24.679688 31.353516 38.027344 44.027344 47.361328 54.035156 57.369141 60.703125 68.707031 72.703125 76.699219 83.373047">Regions of Error</tspan></text>
</g><g
           transform="matrix(0.75031054,0,0,0.75031054,0,298.00085)"
           id="g848"><text
             id="text852"
             style="font-variant:normal;font-weight:normal;font-size:12px;font-family:'Liberation Sans';-inkscape-font-specification:LiberationSans;writing-mode:lr-tb;fill:#444444;fill-opacity:1;fill-rule:nonzero;stroke:none"
             transform="translate(119.00195,4.1999998)"><tspan
               id="tspan850"
               y="0"
               x="0 8.6660156 17.332031">CNN</tspan></text>
</g><g
           transform="matrix(0.75031054,0,0,0.75031054,0,271.76999)"
           id="g854"><text
             id="text858"
             style="font-variant:normal;font-weight:normal;font-size:12px;font-family:'Liberation Sans';-inkscape-font-specification:LiberationSans;writing-mode:lr-tb;fill:#444444;fill-opacity:1;fill-rule:nonzero;stroke:none"
             transform="translate(102.30859,4.1999998)"><tspan
               id="tspan856"
               y="0"
               x="0 9.3339844 16.007812 22.681641 29.355469 33.351562 40.025391">General</tspan></text>
</g><g
           transform="matrix(0.75031054,0,0,0.75031054,0,245.53162)"
           id="g860"><text
             id="text864"
             style="font-variant:normal;font-weight:normal;font-size:12px;font-family:'Liberation Sans';-inkscape-font-specification:LiberationSans;writing-mode:lr-tb;fill:#444444;fill-opacity:1;fill-rule:nonzero;stroke:none"
             transform="translate(127.66797,4.1999998)"><tspan
               id="tspan862"
               y="0"
               x="0 8.6660156">NN</tspan></text>
</g><g
           transform="matrix(0.75031054,0,0,0.75031054,0,219.30077)"
           id="g866"><text
             id="text870"
             style="font-variant:normal;font-weight:normal;font-size:12px;font-family:'Liberation Sans';-inkscape-font-specification:LiberationSans;writing-mode:lr-tb;fill:#444444;fill-opacity:1;fill-rule:nonzero;stroke:none"
             transform="translate(90.976563,4.1999998)"><tspan
               id="tspan868"
               y="0"
               x="0 8.6660156 11.332031 18.005859 24.005859 27.339844 34.013672 38.009766 40.675781 47.349609">Clustering</tspan></text>
</g><g
           transform="matrix(0.75031054,0,0,0.75031054,0,193.06992)"
           id="g872"><text
             id="text876"
             style="font-variant:normal;font-weight:normal;font-size:12px;font-family:'Liberation Sans';-inkscape-font-specification:LiberationSans;writing-mode:lr-tb;fill:#444444;fill-opacity:1;fill-rule:nonzero;stroke:none"
             transform="translate(120.33789,4.1999998)"><tspan
               id="tspan874"
               y="0"
               x="0 7.3300781 15.996094">FNN</tspan></text>
</g><g
           transform="matrix(0.75031054,0,0,0.75031054,0,166.83156)"
           id="g878"><text
             id="text882"
             style="font-variant:normal;font-weight:normal;font-size:12px;font-family:'Liberation Sans';-inkscape-font-specification:LiberationSans;writing-mode:lr-tb;fill:#444444;fill-opacity:1;fill-rule:nonzero;stroke:none"
             transform="translate(119.00195,4.1999998)"><tspan
               id="tspan880"
               y="0"
               x="0 8.6660156 17.332031">RNN</tspan></text>
</g><g
           transform="matrix(0.75031054,0,0,0.75031054,0,140.60069)"
           id="g884"><text
             id="text888"
             style="font-variant:normal;font-weight:normal;font-size:12px;font-family:'Liberation Sans';-inkscape-font-specification:LiberationSans;writing-mode:lr-tb;fill:#444444;fill-opacity:1;fill-rule:nonzero;stroke:none"
             transform="translate(102.98242,4.1999998)"><tspan
               id="tspan886"
               y="0"
               x="0 8.0039062 14.677734 21.351562 27.351562 30.017578 33.351562 36.017578">Specific</tspan></text>
</g><g
           transform="matrix(0.75031054,0,0,0.75031054,0,114.36983)"
           id="g890"><text
             id="text894"
             style="font-variant:normal;font-weight:normal;font-size:12px;font-family:'Liberation Sans';-inkscape-font-specification:LiberationSans;writing-mode:lr-tb;fill:#444444;fill-opacity:1;fill-rule:nonzero;stroke:none"
             transform="translate(69.625,4.1999998)"><tspan
               id="tspan892"
               y="0"
               x="0 6.6738281 9.3398438 16.013672 22.6875 29.361328 33.357422 36.691406 46.6875 53.361328 60.035156 66.708984 69.375">Linear Models</tspan></text>
</g><g
           transform="matrix(0.75031054,0,0,0.75031054,0,88.131477)"
           id="g896"><text
             id="text900"
             style="font-variant:normal;font-weight:normal;font-size:12px;font-family:'Liberation Sans';-inkscape-font-specification:LiberationSans;writing-mode:lr-tb;fill:#444444;fill-opacity:1;fill-rule:nonzero;stroke:none"
             transform="translate(68.96875,4.1999998)"><tspan
               id="tspan898"
               y="0"
               x="0 8.6660156 15.339844 21.339844 24.005859 30.005859 32.671875 39.345703 46.019531 49.353516 52.6875 56.683594 63.357422 70.03125">Decision trees</tspan></text>
</g><g
           transform="matrix(0.75031054,0,0,0.75031054,0,61.90062)"
           id="g902"><text
             id="text906"
             style="font-variant:normal;font-weight:normal;font-size:12px;font-family:'Liberation Sans';-inkscape-font-specification:LiberationSans;writing-mode:lr-tb;fill:#444444;fill-opacity:1;fill-rule:nonzero;stroke:none"
             transform="translate(109.66797,4.1999998)"><tspan
               id="tspan904"
               y="0"
               x="0 9.3339844 18 26.666016">GCNN</tspan></text>
</g></g></g></g></svg>