<?xml version="1.0" encoding="UTF-8" standalone="no"?>
<svg
   xmlns:dc="http://purl.org/dc/elements/1.1/"
   xmlns:cc="http://creativecommons.org/ns#"
   xmlns:rdf="http://www.w3.org/1999/02/22-rdf-syntax-ns#"
   xmlns:svg="http://www.w3.org/2000/svg"
   xmlns="http://www.w3.org/2000/svg"
   viewBox="0 0 805.33331 605.33331"
   height="605.33331"
   width="805.33331"
   xml:space="preserve"
   id="svg2"
   version="1.1"><metadata
     id="metadata8"><rdf:RDF><cc:Work
         rdf:about=""><dc:format>image/svg+xml</dc:format><dc:type
           rdf:resource="http://purl.org/dc/dcmitype/StillImage" /></cc:Work></rdf:RDF></metadata><defs
     id="defs6"><clipPath
       id="clipPath18"
       clipPathUnits="userSpaceOnUse"><path
         style="clip-rule:evenodd"
         id="path16"
         d="M 0,0 H 604 V 453.93787 H 0 Z" /></clipPath><clipPath
       id="clipPath30"
       clipPathUnits="userSpaceOnUse"><path
         style="clip-rule:evenodd"
         id="path28"
         d="M 0,0 H 600.24841 V 450.18631 H 0 Z" /></clipPath><clipPath
       id="clipPath122"
       clipPathUnits="userSpaceOnUse"><path
         style="clip-rule:evenodd"
         id="path120"
         d="M 562.73291,37.515526 H 112.54658 V 337.63974 h 450.18633 z" /></clipPath><clipPath
       id="clipPath130"
       clipPathUnits="userSpaceOnUse"><path
         id="path128"
         d="M 0,0 H 25 V 24 H 0 Z" /></clipPath><clipPath
       id="clipPath150"
       clipPathUnits="userSpaceOnUse"><path
         id="path148"
         d="M 0,0 H 25 V 24 H 0 Z" /></clipPath><clipPath
       id="clipPath170"
       clipPathUnits="userSpaceOnUse"><path
         id="path168"
         d="M 0,0 H 25 V 25 H 0 Z" /></clipPath><clipPath
       id="clipPath190"
       clipPathUnits="userSpaceOnUse"><path
         id="path188"
         d="M 0,0 H 46 V 46 H 0 Z" /></clipPath><clipPath
       id="clipPath210"
       clipPathUnits="userSpaceOnUse"><path
         id="path208"
         d="M 0,0 H 17 V 17 H 0 Z" /></clipPath><clipPath
       id="clipPath230"
       clipPathUnits="userSpaceOnUse"><path
         id="path228"
         d="M 0,0 H 17 V 17 H 0 Z" /></clipPath><clipPath
       id="clipPath250"
       clipPathUnits="userSpaceOnUse"><path
         id="path248"
         d="M 0,0 H 17 V 17 H 0 Z" /></clipPath><clipPath
       id="clipPath270"
       clipPathUnits="userSpaceOnUse"><path
         id="path268"
         d="M 0,0 H 45 V 46 H 0 Z" /></clipPath><clipPath
       id="clipPath290"
       clipPathUnits="userSpaceOnUse"><path
         id="path288"
         d="M 0,0 H 25 V 24 H 0 Z" /></clipPath><clipPath
       id="clipPath310"
       clipPathUnits="userSpaceOnUse"><path
         id="path308"
         d="M 0,0 H 25 V 25 H 0 Z" /></clipPath><clipPath
       id="clipPath330"
       clipPathUnits="userSpaceOnUse"><path
         id="path328"
         d="M 0,0 H 25 V 25 H 0 Z" /></clipPath><clipPath
       id="clipPath350"
       clipPathUnits="userSpaceOnUse"><path
         id="path348"
         d="M 0,0 H 17 V 17 H 0 Z" /></clipPath><clipPath
       id="clipPath370"
       clipPathUnits="userSpaceOnUse"><path
         id="path368"
         d="M 0,0 H 24 V 24 H 0 Z" /></clipPath><clipPath
       id="clipPath390"
       clipPathUnits="userSpaceOnUse"><path
         id="path388"
         d="M 0,0 H 92 V 92 H 0 Z" /></clipPath><clipPath
       id="clipPath410"
       clipPathUnits="userSpaceOnUse"><path
         id="path408"
         d="M 0,0 H 65 V 65 H 0 Z" /></clipPath><clipPath
       id="clipPath430"
       clipPathUnits="userSpaceOnUse"><path
         id="path428"
         d="M 0,0 H 36 V 37 H 0 Z" /></clipPath><clipPath
       id="clipPath450"
       clipPathUnits="userSpaceOnUse"><path
         id="path448"
         d="M 0,0 H 17 V 17 H 0 Z" /></clipPath><clipPath
       id="clipPath470"
       clipPathUnits="userSpaceOnUse"><path
         id="path468"
         d="M 0,0 H 17 V 17 H 0 Z" /></clipPath><clipPath
       id="clipPath490"
       clipPathUnits="userSpaceOnUse"><path
         id="path488"
         d="M 0,0 H 17 V 16 H 0 Z" /></clipPath><clipPath
       id="clipPath510"
       clipPathUnits="userSpaceOnUse"><path
         id="path508"
         d="M 0,0 H 17 V 17 H 0 Z" /></clipPath><clipPath
       id="clipPath530"
       clipPathUnits="userSpaceOnUse"><path
         id="path528"
         d="M 0,0 H 17 V 17 H 0 Z" /></clipPath><clipPath
       id="clipPath550"
       clipPathUnits="userSpaceOnUse"><path
         id="path548"
         d="M 0,0 H 17 V 17 H 0 Z" /></clipPath><clipPath
       id="clipPath660"
       clipPathUnits="userSpaceOnUse"><path
         style="clip-rule:evenodd"
         id="path658"
         d="M 0,0 H 600.24841 V 450.18631 H 0 Z" /></clipPath></defs><g
     transform="matrix(1.3333333,0,0,1.3333333,0,1.18e-5)"
     id="g10"><g
       id="g12"><g
         clip-path="url(#clipPath18)"
         id="g14"><g
           transform="scale(0.75031054)"
           id="g20"><path
             id="path22"
             style="fill:#ffffff;fill-opacity:1;fill-rule:nonzero;stroke:none"
             d="M 0,0 H 805 V 605 H 0 Z" /></g></g></g><g
       id="g24"><g
         clip-path="url(#clipPath30)"
         id="g26"><g
           transform="scale(0.75031054)"
           id="g32"><path
             id="path34"
             style="fill:#000000;fill-opacity:0;fill-rule:nonzero;stroke:none"
             d="M 0,0 H 800 V 600 H 0 Z" /><path
             id="path36"
             style="fill:#ffffff;fill-opacity:1;fill-rule:nonzero;stroke:none"
             d="M 146,46 H 754 V 454 H 146 Z" /></g><g
           transform="matrix(0.75031054,0,0,0.75031054,149.27428,0)"
           id="g38"><path
             id="path40"
             style="fill:#000000;fill-opacity:1;fill-rule:nonzero;stroke:none"
             d="M 0,50 V 450" /><path
             id="path42"
             style="fill:none;stroke:#eeeeee;stroke-width:1;stroke-linecap:butt;stroke-linejoin:miter;stroke-miterlimit:10;stroke-dasharray:none;stroke-opacity:1"
             d="M 0,50 V 450" /></g><g
           transform="matrix(0.75031054,0,0,0.75031054,212.87059,0)"
           id="g44"><path
             id="path46"
             style="fill:#000000;fill-opacity:1;fill-rule:nonzero;stroke:none"
             d="M 0,50 V 450" /><path
             id="path48"
             style="fill:none;stroke:#eeeeee;stroke-width:1;stroke-linecap:butt;stroke-linejoin:miter;stroke-miterlimit:10;stroke-dasharray:none;stroke-opacity:1"
             d="M 0,50 V 450" /></g><g
           transform="matrix(0.75031054,0,0,0.75031054,276.45941,0)"
           id="g50"><path
             id="path52"
             style="fill:#000000;fill-opacity:1;fill-rule:nonzero;stroke:none"
             d="M 0,50 V 450" /><path
             id="path54"
             style="fill:none;stroke:#eeeeee;stroke-width:1;stroke-linecap:butt;stroke-linejoin:miter;stroke-miterlimit:10;stroke-dasharray:none;stroke-opacity:1"
             d="M 0,50 V 450" /></g><g
           transform="matrix(0.75031054,0,0,0.75031054,340.05576,0)"
           id="g56"><path
             id="path58"
             style="fill:#000000;fill-opacity:1;fill-rule:nonzero;stroke:none"
             d="M 0,50 V 450" /><path
             id="path60"
             style="fill:none;stroke:#eeeeee;stroke-width:1;stroke-linecap:butt;stroke-linejoin:miter;stroke-miterlimit:10;stroke-dasharray:none;stroke-opacity:1"
             d="M 0,50 V 450" /></g><g
           transform="matrix(0.75031054,0,0,0.75031054,403.65204,0)"
           id="g62"><path
             id="path64"
             style="fill:#000000;fill-opacity:1;fill-rule:nonzero;stroke:none"
             d="M 0,50 V 450" /><path
             id="path66"
             style="fill:none;stroke:#eeeeee;stroke-width:1;stroke-linecap:butt;stroke-linejoin:miter;stroke-miterlimit:10;stroke-dasharray:none;stroke-opacity:1"
             d="M 0,50 V 450" /></g><g
           transform="matrix(0.75031054,0,0,0.75031054,467.24838,0)"
           id="g68"><path
             id="path70"
             style="fill:#000000;fill-opacity:1;fill-rule:nonzero;stroke:none"
             d="M 0,50 V 450" /><path
             id="path72"
             style="fill:none;stroke:#eeeeee;stroke-width:1;stroke-linecap:butt;stroke-linejoin:miter;stroke-miterlimit:10;stroke-dasharray:none;stroke-opacity:1"
             d="M 0,50 V 450" /></g><g
           transform="matrix(0.75031054,0,0,0.75031054,530.84473,0)"
           id="g74"><path
             id="path76"
             style="fill:#000000;fill-opacity:1;fill-rule:nonzero;stroke:none"
             d="M 0,50 V 450" /><path
             id="path78"
             style="fill:none;stroke:#eeeeee;stroke-width:1;stroke-linecap:butt;stroke-linejoin:miter;stroke-miterlimit:10;stroke-dasharray:none;stroke-opacity:1"
             d="M 0,50 V 450" /></g><g
           transform="matrix(0.75031054,0,0,0.75031054,0,266.03763)"
           id="g80"><path
             id="path82"
             style="fill:#000000;fill-opacity:1;fill-rule:nonzero;stroke:none"
             d="M 150,0 H 750" /><path
             id="path84"
             style="fill:none;stroke:#eeeeee;stroke-width:1;stroke-linecap:butt;stroke-linejoin:miter;stroke-miterlimit:10;stroke-dasharray:none;stroke-opacity:1"
             d="M 150,0 H 750" /></g><g
           transform="matrix(0.75031054,0,0,0.75031054,0,226.18112)"
           id="g86"><path
             id="path88"
             style="fill:#000000;fill-opacity:1;fill-rule:nonzero;stroke:none"
             d="M 150,0 H 750" /><path
             id="path90"
             style="fill:none;stroke:#eeeeee;stroke-width:1;stroke-linecap:butt;stroke-linejoin:miter;stroke-miterlimit:10;stroke-dasharray:none;stroke-opacity:1"
             d="M 150,0 H 750" /></g><g
           transform="matrix(0.75031054,0,0,0.75031054,0,186.31712)"
           id="g92"><path
             id="path94"
             style="fill:#000000;fill-opacity:1;fill-rule:nonzero;stroke:none"
             d="M 150,0 H 750" /><path
             id="path96"
             style="fill:none;stroke:#eeeeee;stroke-width:1;stroke-linecap:butt;stroke-linejoin:miter;stroke-miterlimit:10;stroke-dasharray:none;stroke-opacity:1"
             d="M 150,0 H 750" /></g><g
           transform="matrix(0.75031054,0,0,0.75031054,0,146.46062)"
           id="g98"><path
             id="path100"
             style="fill:#000000;fill-opacity:1;fill-rule:nonzero;stroke:none"
             d="M 150,0 H 750" /><path
             id="path102"
             style="fill:none;stroke:#eeeeee;stroke-width:1;stroke-linecap:butt;stroke-linejoin:miter;stroke-miterlimit:10;stroke-dasharray:none;stroke-opacity:1"
             d="M 150,0 H 750" /></g><g
           transform="matrix(0.75031054,0,0,0.75031054,0,106.59663)"
           id="g104"><path
             id="path106"
             style="fill:#000000;fill-opacity:1;fill-rule:nonzero;stroke:none"
             d="M 150,0 H 750" /><path
             id="path108"
             style="fill:none;stroke:#eeeeee;stroke-width:1;stroke-linecap:butt;stroke-linejoin:miter;stroke-miterlimit:10;stroke-dasharray:none;stroke-opacity:1"
             d="M 150,0 H 750" /></g><g
           transform="matrix(0.75031054,0,0,0.75031054,0,66.74012)"
           id="g110"><path
             id="path112"
             style="fill:#000000;fill-opacity:1;fill-rule:nonzero;stroke:none"
             d="M 150,0 H 750" /><path
             id="path114"
             style="fill:none;stroke:#eeeeee;stroke-width:1;stroke-linecap:butt;stroke-linejoin:miter;stroke-miterlimit:10;stroke-dasharray:none;stroke-opacity:1"
             d="M 150,0 H 750" /></g></g></g><g
       id="g116"><g
         clip-path="url(#clipPath122)"
         id="g118"><g
           transform="translate(137,254)"
           id="g124"><g
             id="g126" /><g
             id="g142"
             transform="matrix(1,0,0,-1,0,24)"><g
               style="opacity:0.69803922"
               id="g140"
               clip-path="url(#clipPath130)"><g
                 id="g138"
                 transform="matrix(1,0,0,-1,0,24)"><g
                   id="g136"
                   transform="matrix(0.75031054,0,0,0.75031054,12.274277,12.037598)"><path
                     id="path132"
                     style="fill:#1f77b4;fill-opacity:1;fill-rule:nonzero;stroke:none"
                     d="m 15.16,0 c -1e-6,4.1863184 -1.480087,7.7595644 -4.440261,10.719739 C 7.7595644,13.679913 4.1863184,15.159999 0,15.16 -4.1863184,15.159999 -7.7595644,13.679913 -10.719739,10.719739 -13.679913,7.7595644 -15.159999,4.1863184 -15.16,0 c 1e-6,-4.1863184 1.480087,-7.7595644 4.440261,-10.719739 C -7.7595644,-13.679913 -4.1863184,-15.159999 0,-15.16 c 4.1863184,1e-6 7.7595644,1.480087 10.719739,4.440261 C 13.679913,-7.7595644 15.159999,-4.1863184 15.16,0 Z" /><path
                     id="path134"
                     style="fill:none;stroke:#ffffff;stroke-width:1;stroke-linecap:butt;stroke-linejoin:miter;stroke-miterlimit:10;stroke-dasharray:none;stroke-opacity:1"
                     d="m 15.16,0 c -1e-6,4.1863184 -1.480087,7.7595644 -4.440261,10.719739 C 7.7595644,13.679913 4.1863184,15.159999 0,15.16 -4.1863184,15.159999 -7.7595644,13.679913 -10.719739,10.719739 -13.679913,7.7595644 -15.159999,4.1863184 -15.16,0 c 1e-6,-4.1863184 1.480087,-7.7595644 4.440261,-10.719739 C -7.7595644,-13.679913 -4.1863184,-15.159999 0,-15.16 c 4.1863184,1e-6 7.7595644,1.480087 10.719739,4.440261 C 13.679913,-7.7595644 15.159999,-4.1863184 15.16,0 Z" /></g></g></g></g></g><g
           transform="translate(137,214)"
           id="g144"><g
             id="g146" /><g
             id="g162"
             transform="matrix(1,0,0,-1,0,24)"><g
               style="opacity:0.69803922"
               id="g160"
               clip-path="url(#clipPath150)"><g
                 id="g158"
                 transform="matrix(1,0,0,-1,0,24)"><g
                   id="g156"
                   transform="matrix(0.75031054,0,0,0.75031054,12.274277,12.181122)"><path
                     id="path152"
                     style="fill:#1f77b4;fill-opacity:1;fill-rule:nonzero;stroke:none"
                     d="m 15.16,0 c -1e-6,4.1863184 -1.480087,7.7595644 -4.440261,10.719739 C 7.7595644,13.679913 4.1863184,15.159999 0,15.16 -4.1863184,15.159999 -7.7595644,13.679913 -10.719739,10.719739 -13.679913,7.7595644 -15.159999,4.1863184 -15.16,0 c 1e-6,-4.1863184 1.480087,-7.7595644 4.440261,-10.719739 C -7.7595644,-13.679913 -4.1863184,-15.159999 0,-15.16 c 4.1863184,1e-6 7.7595644,1.480087 10.719739,4.440261 C 13.679913,-7.7595644 15.159999,-4.1863184 15.16,0 Z" /><path
                     id="path154"
                     style="fill:none;stroke:#ffffff;stroke-width:1;stroke-linecap:butt;stroke-linejoin:miter;stroke-miterlimit:10;stroke-dasharray:none;stroke-opacity:1"
                     d="m 15.16,0 c -1e-6,4.1863184 -1.480087,7.7595644 -4.440261,10.719739 C 7.7595644,13.679913 4.1863184,15.159999 0,15.16 -4.1863184,15.159999 -7.7595644,13.679913 -10.719739,10.719739 -13.679913,7.7595644 -15.159999,4.1863184 -15.16,0 c 1e-6,-4.1863184 1.480087,-7.7595644 4.440261,-10.719739 C -7.7595644,-13.679913 -4.1863184,-15.159999 0,-15.16 c 4.1863184,1e-6 7.7595644,1.480087 10.719739,4.440261 C 13.679913,-7.7595644 15.159999,-4.1863184 15.16,0 Z" /></g></g></g></g></g><g
           transform="translate(137,174)"
           id="g164"><g
             id="g166" /><g
             id="g182"
             transform="matrix(1,0,0,-1,0,25)"><g
               style="opacity:0.69803922"
               id="g180"
               clip-path="url(#clipPath170)"><g
                 id="g178"
                 transform="matrix(1,0,0,-1,0,25)"><g
                   id="g176"
                   transform="matrix(0.75031054,0,0,0.75031054,12.274277,12.317108)"><path
                     id="path172"
                     style="fill:#1f77b4;fill-opacity:1;fill-rule:nonzero;stroke:none"
                     d="m 15.16,0 c -1e-6,4.1863184 -1.480087,7.7595644 -4.440261,10.719739 C 7.7595644,13.679913 4.1863184,15.159999 0,15.16 -4.1863184,15.159999 -7.7595644,13.679913 -10.719739,10.719739 -13.679913,7.7595644 -15.159999,4.1863184 -15.16,0 c 1e-6,-4.1863184 1.480087,-7.7595644 4.440261,-10.719739 C -7.7595644,-13.679913 -4.1863184,-15.159999 0,-15.16 c 4.1863184,1e-6 7.7595644,1.480087 10.719739,4.440261 C 13.679913,-7.7595644 15.159999,-4.1863184 15.16,0 Z" /><path
                     id="path174"
                     style="fill:none;stroke:#ffffff;stroke-width:1;stroke-linecap:butt;stroke-linejoin:miter;stroke-miterlimit:10;stroke-dasharray:none;stroke-opacity:1"
                     d="m 15.16,0 c -1e-6,4.1863184 -1.480087,7.7595644 -4.440261,10.719739 C 7.7595644,13.679913 4.1863184,15.159999 0,15.16 -4.1863184,15.159999 -7.7595644,13.679913 -10.719739,10.719739 -13.679913,7.7595644 -15.159999,4.1863184 -15.16,0 c 1e-6,-4.1863184 1.480087,-7.7595644 4.440261,-10.719739 C -7.7595644,-13.679913 -4.1863184,-15.159999 0,-15.16 c 4.1863184,1e-6 7.7595644,1.480087 10.719739,4.440261 C 13.679913,-7.7595644 15.159999,-4.1863184 15.16,0 Z" /></g></g></g></g></g><g
           transform="translate(190,243)"
           id="g184"><g
             id="g186" /><g
             id="g202"
             transform="matrix(1,0,0,-1,0,46)"><g
               style="opacity:0.69803922"
               id="g200"
               clip-path="url(#clipPath190)"><g
                 id="g198"
                 transform="matrix(1,0,0,-1,0,46)"><g
                   id="g196"
                   transform="matrix(0.75031054,0,0,0.75031054,22.870605,23.037598)"><path
                     id="path192"
                     style="fill:#1f77b4;fill-opacity:1;fill-rule:nonzero;stroke:none"
                     d="m 29.299999,0 c -2e-6,3.8854208 -0.743448,7.622961 -2.230335,11.212622 -1.486885,3.58966 -3.604031,6.758196 -6.351439,9.505603 -2.747407,2.747408 -5.915943,4.864554 -9.505603,6.351441 C 7.622961,28.556553 3.8854208,29.299997 0,29.299999 c -3.8854208,-2e-6 -7.622961,-0.743448 -11.212622,-2.230335 -3.58966,-1.486885 -6.758196,-3.604031 -9.505603,-6.351439 -2.747408,-2.747407 -4.864554,-5.915943 -6.351441,-9.505603 C -28.556553,7.622961 -29.299997,3.8854208 -29.299999,0 c 2e-6,-3.8854208 0.743448,-7.622961 2.230335,-11.212622 1.486885,-3.58966 3.604031,-6.758196 6.351439,-9.505603 2.747407,-2.747408 5.915943,-4.864554 9.505603,-6.351441 3.589661,-1.486887 7.3272012,-2.230331 11.212622,-2.230333 3.8854208,2e-6 7.622961,0.743448 11.212622,2.230335 3.58966,1.486885 6.758196,3.604031 9.505603,6.351439 2.747408,2.747407 4.864554,5.915943 6.351441,9.505603 C 28.556553,-7.622961 29.299997,-3.8854208 29.299999,0 Z" /><path
                     id="path194"
                     style="fill:none;stroke:#ffffff;stroke-width:1;stroke-linecap:butt;stroke-linejoin:miter;stroke-miterlimit:10;stroke-dasharray:none;stroke-opacity:1"
                     d="m 29.299999,0 c -2e-6,3.8854208 -0.743448,7.622961 -2.230335,11.212622 -1.486885,3.58966 -3.604031,6.758196 -6.351439,9.505603 -2.747407,2.747408 -5.915943,4.864554 -9.505603,6.351441 C 7.622961,28.556553 3.8854208,29.299997 0,29.299999 c -3.8854208,-2e-6 -7.622961,-0.743448 -11.212622,-2.230335 -3.58966,-1.486885 -6.758196,-3.604031 -9.505603,-6.351439 -2.747408,-2.747407 -4.864554,-5.915943 -6.351441,-9.505603 C -28.556553,7.622961 -29.299997,3.8854208 -29.299999,0 c 2e-6,-3.8854208 0.743448,-7.622961 2.230335,-11.212622 1.486885,-3.58966 3.604031,-6.758196 6.351439,-9.505603 2.747407,-2.747408 5.915943,-4.864554 9.505603,-6.351441 3.589661,-1.486887 7.3272012,-2.230331 11.212622,-2.230333 3.8854208,2e-6 7.622961,0.743448 11.212622,2.230335 3.58966,1.486885 6.758196,3.604031 9.505603,6.351439 2.747408,2.747407 4.864554,5.915943 6.351441,9.505603 C 28.556553,-7.622961 29.299997,-3.8854208 29.299999,0 Z" /></g></g></g></g></g><g
           transform="translate(204,138)"
           id="g204"><g
             id="g206" /><g
             id="g222"
             transform="matrix(1,0,0,-1,0,17)"><g
               style="opacity:0.69803922"
               id="g220"
               clip-path="url(#clipPath210)"><g
                 id="g218"
                 transform="matrix(1,0,0,-1,0,17)"><g
                   id="g216"
                   transform="matrix(0.75031054,0,0,0.75031054,8.8706055,8.4606171)"><path
                     id="path212"
                     style="fill:#1f77b4;fill-opacity:1;fill-rule:nonzero;stroke:none"
                     d="M 10,0 C 9.999999,2.7614236 9.0236883,5.1184459 7.0710673,7.0710673 5.1184459,9.0236883 2.7614236,9.999999 0,10 -2.7614236,9.999999 -5.1184459,9.0236883 -7.0710673,7.0710673 -9.0236883,5.1184459 -9.999999,2.7614236 -10,0 c 10e-7,-2.7614236 0.9763117,-5.1184459 2.9289327,-7.0710673 C -5.1184459,-9.0236883 -2.7614236,-9.999999 0,-10 c 2.7614236,10e-7 5.1184459,0.9763117 7.0710673,2.9289327 C 9.0236883,-5.1184459 9.999999,-2.7614236 10,0 Z" /><path
                     id="path214"
                     style="fill:none;stroke:#ffffff;stroke-width:1;stroke-linecap:butt;stroke-linejoin:miter;stroke-miterlimit:10;stroke-dasharray:none;stroke-opacity:1"
                     d="M 10,0 C 9.999999,2.7614236 9.0236883,5.1184459 7.0710673,7.0710673 5.1184459,9.0236883 2.7614236,9.999999 0,10 -2.7614236,9.999999 -5.1184459,9.0236883 -7.0710673,7.0710673 -9.0236883,5.1184459 -9.999999,2.7614236 -10,0 c 10e-7,-2.7614236 0.9763117,-5.1184459 2.9289327,-7.0710673 C -5.1184459,-9.0236883 -2.7614236,-9.999999 0,-10 c 2.7614236,10e-7 5.1184459,0.9763117 7.0710673,2.9289327 C 9.0236883,-5.1184459 9.999999,-2.7614236 10,0 Z" /></g></g></g></g></g><g
           transform="translate(204,178)"
           id="g224"><g
             id="g226" /><g
             id="g242"
             transform="matrix(1,0,0,-1,0,17)"><g
               style="opacity:0.69803922"
               id="g240"
               clip-path="url(#clipPath230)"><g
                 id="g238"
                 transform="matrix(1,0,0,-1,0,17)"><g
                   id="g236"
                   transform="matrix(0.75031054,0,0,0.75031054,8.8706055,8.3171082)"><path
                     id="path232"
                     style="fill:#1f77b4;fill-opacity:1;fill-rule:nonzero;stroke:none"
                     d="M 10,0 C 9.999999,2.7614236 9.0236883,5.1184459 7.0710673,7.0710673 5.1184459,9.0236883 2.7614236,9.999999 0,10 -2.7614236,9.999999 -5.1184459,9.0236883 -7.0710673,7.0710673 -9.0236883,5.1184459 -9.999999,2.7614236 -10,0 c 10e-7,-2.7614236 0.9763117,-5.1184459 2.9289327,-7.0710673 C -5.1184459,-9.0236883 -2.7614236,-9.999999 0,-10 c 2.7614236,10e-7 5.1184459,0.9763117 7.0710673,2.9289327 C 9.0236883,-5.1184459 9.999999,-2.7614236 10,0 Z" /><path
                     id="path234"
                     style="fill:none;stroke:#ffffff;stroke-width:1;stroke-linecap:butt;stroke-linejoin:miter;stroke-miterlimit:10;stroke-dasharray:none;stroke-opacity:1"
                     d="M 10,0 C 9.999999,2.7614236 9.0236883,5.1184459 7.0710673,7.0710673 5.1184459,9.0236883 2.7614236,9.999999 0,10 -2.7614236,9.999999 -5.1184459,9.0236883 -7.0710673,7.0710673 -9.0236883,5.1184459 -9.999999,2.7614236 -10,0 c 10e-7,-2.7614236 0.9763117,-5.1184459 2.9289327,-7.0710673 C -5.1184459,-9.0236883 -2.7614236,-9.999999 0,-10 c 2.7614236,10e-7 5.1184459,0.9763117 7.0710673,2.9289327 C 9.0236883,-5.1184459 9.999999,-2.7614236 10,0 Z" /></g></g></g></g></g><g
           transform="translate(204,98)"
           id="g244"><g
             id="g246" /><g
             id="g262"
             transform="matrix(1,0,0,-1,0,17)"><g
               style="opacity:0.69803922"
               id="g260"
               clip-path="url(#clipPath250)"><g
                 id="g258"
                 transform="matrix(1,0,0,-1,0,17)"><g
                   id="g256"
                   transform="matrix(0.75031054,0,0,0.75031054,8.8706055,8.5966187)"><path
                     id="path252"
                     style="fill:#1f77b4;fill-opacity:1;fill-rule:nonzero;stroke:none"
                     d="M 10,0 C 9.999999,2.7614236 9.0236883,5.1184459 7.0710673,7.0710673 5.1184459,9.0236883 2.7614236,9.999999 0,10 -2.7614236,9.999999 -5.1184459,9.0236883 -7.0710673,7.0710673 -9.0236883,5.1184459 -9.999999,2.7614236 -10,0 c 10e-7,-2.7614236 0.9763117,-5.1184459 2.9289327,-7.0710673 C -5.1184459,-9.0236883 -2.7614236,-9.999999 0,-10 c 2.7614236,10e-7 5.1184459,0.9763117 7.0710673,2.9289327 C 9.0236883,-5.1184459 9.999999,-2.7614236 10,0 Z" /><path
                     id="path254"
                     style="fill:none;stroke:#ffffff;stroke-width:1;stroke-linecap:butt;stroke-linejoin:miter;stroke-miterlimit:10;stroke-dasharray:none;stroke-opacity:1"
                     d="M 10,0 C 9.999999,2.7614236 9.0236883,5.1184459 7.0710673,7.0710673 5.1184459,9.0236883 2.7614236,9.999999 0,10 -2.7614236,9.999999 -5.1184459,9.0236883 -7.0710673,7.0710673 -9.0236883,5.1184459 -9.999999,2.7614236 -10,0 c 10e-7,-2.7614236 0.9763117,-5.1184459 2.9289327,-7.0710673 C -5.1184459,-9.0236883 -2.7614236,-9.999999 0,-10 c 2.7614236,10e-7 5.1184459,0.9763117 7.0710673,2.9289327 C 9.0236883,-5.1184459 9.999999,-2.7614236 10,0 Z" /></g></g></g></g></g><g
           transform="translate(254,243)"
           id="g264"><g
             id="g266" /><g
             id="g282"
             transform="matrix(1,0,0,-1,0,46)"><g
               style="opacity:0.69803922"
               id="g280"
               clip-path="url(#clipPath270)"><g
                 id="g278"
                 transform="matrix(1,0,0,-1,0,46)"><g
                   id="g276"
                   transform="matrix(0.75031054,0,0,0.75031054,22.459412,23.037598)"><path
                     id="path272"
                     style="fill:#1f77b4;fill-opacity:1;fill-rule:nonzero;stroke:none"
                     d="m 29.299999,0 c -2e-6,3.8854208 -0.743448,7.622961 -2.230335,11.212622 -1.486885,3.58966 -3.604031,6.758196 -6.351439,9.505603 -2.747407,2.747408 -5.915943,4.864554 -9.505603,6.351441 C 7.622961,28.556553 3.8854208,29.299997 0,29.299999 c -3.8854208,-2e-6 -7.622961,-0.743448 -11.212622,-2.230335 -3.58966,-1.486885 -6.758196,-3.604031 -9.505603,-6.351439 -2.747408,-2.747407 -4.864554,-5.915943 -6.351441,-9.505603 C -28.556553,7.622961 -29.299997,3.8854208 -29.299999,0 c 2e-6,-3.8854208 0.743448,-7.622961 2.230335,-11.212622 1.486885,-3.58966 3.604031,-6.758196 6.351439,-9.505603 2.747407,-2.747408 5.915943,-4.864554 9.505603,-6.351441 3.589661,-1.486887 7.3272012,-2.230331 11.212622,-2.230333 3.8854208,2e-6 7.622961,0.743448 11.212622,2.230335 3.58966,1.486885 6.758196,3.604031 9.505603,6.351439 2.747408,2.747407 4.864554,5.915943 6.351441,9.505603 C 28.556553,-7.622961 29.299997,-3.8854208 29.299999,0 Z" /><path
                     id="path274"
                     style="fill:none;stroke:#ffffff;stroke-width:1;stroke-linecap:butt;stroke-linejoin:miter;stroke-miterlimit:10;stroke-dasharray:none;stroke-opacity:1"
                     d="m 29.299999,0 c -2e-6,3.8854208 -0.743448,7.622961 -2.230335,11.212622 -1.486885,3.58966 -3.604031,6.758196 -6.351439,9.505603 -2.747407,2.747408 -5.915943,4.864554 -9.505603,6.351441 C 7.622961,28.556553 3.8854208,29.299997 0,29.299999 c -3.8854208,-2e-6 -7.622961,-0.743448 -11.212622,-2.230335 -3.58966,-1.486885 -6.758196,-3.604031 -9.505603,-6.351439 -2.747408,-2.747407 -4.864554,-5.915943 -6.351441,-9.505603 C -28.556553,7.622961 -29.299997,3.8854208 -29.299999,0 c 2e-6,-3.8854208 0.743448,-7.622961 2.230335,-11.212622 1.486885,-3.58966 3.604031,-6.758196 6.351439,-9.505603 2.747407,-2.747408 5.915943,-4.864554 9.505603,-6.351441 3.589661,-1.486887 7.3272012,-2.230331 11.212622,-2.230333 3.8854208,2e-6 7.622961,0.743448 11.212622,2.230335 3.58966,1.486885 6.758196,3.604031 9.505603,6.351439 2.747408,2.747407 4.864554,5.915943 6.351441,9.505603 C 28.556553,-7.622961 29.299997,-3.8854208 29.299999,0 Z" /></g></g></g></g></g><g
           transform="translate(264,214)"
           id="g284"><g
             id="g286" /><g
             id="g302"
             transform="matrix(1,0,0,-1,0,24)"><g
               style="opacity:0.69803922"
               id="g300"
               clip-path="url(#clipPath290)"><g
                 id="g298"
                 transform="matrix(1,0,0,-1,0,24)"><g
                   id="g296"
                   transform="matrix(0.75031054,0,0,0.75031054,12.459412,12.181122)"><path
                     id="path292"
                     style="fill:#1f77b4;fill-opacity:1;fill-rule:nonzero;stroke:none"
                     d="m 15.16,0 c -1e-6,4.1863184 -1.480087,7.7595644 -4.440261,10.719739 C 7.7595644,13.679913 4.1863184,15.159999 0,15.16 -4.1863184,15.159999 -7.7595644,13.679913 -10.719739,10.719739 -13.679913,7.7595644 -15.159999,4.1863184 -15.16,0 c 1e-6,-4.1863184 1.480087,-7.7595644 4.440261,-10.719739 C -7.7595644,-13.679913 -4.1863184,-15.159999 0,-15.16 c 4.1863184,1e-6 7.7595644,1.480087 10.719739,4.440261 C 13.679913,-7.7595644 15.159999,-4.1863184 15.16,0 Z" /><path
                     id="path294"
                     style="fill:none;stroke:#ffffff;stroke-width:1;stroke-linecap:butt;stroke-linejoin:miter;stroke-miterlimit:10;stroke-dasharray:none;stroke-opacity:1"
                     d="m 15.16,0 c -1e-6,4.1863184 -1.480087,7.7595644 -4.440261,10.719739 C 7.7595644,13.679913 4.1863184,15.159999 0,15.16 -4.1863184,15.159999 -7.7595644,13.679913 -10.719739,10.719739 -13.679913,7.7595644 -15.159999,4.1863184 -15.16,0 c 1e-6,-4.1863184 1.480087,-7.7595644 4.440261,-10.719739 C -7.7595644,-13.679913 -4.1863184,-15.159999 0,-15.16 c 4.1863184,1e-6 7.7595644,1.480087 10.719739,4.440261 C 13.679913,-7.7595644 15.159999,-4.1863184 15.16,0 Z" /></g></g></g></g></g><g
           transform="translate(264,54)"
           id="g304"><g
             id="g306" /><g
             id="g322"
             transform="matrix(1,0,0,-1,0,25)"><g
               style="opacity:0.69803922"
               id="g320"
               clip-path="url(#clipPath310)"><g
                 id="g318"
                 transform="matrix(1,0,0,-1,0,25)"><g
                   id="g316"
                   transform="matrix(0.75031054,0,0,0.75031054,12.459412,12.74012)"><path
                     id="path312"
                     style="fill:#1f77b4;fill-opacity:1;fill-rule:nonzero;stroke:none"
                     d="m 15.16,0 c -1e-6,4.1863184 -1.480087,7.7595644 -4.440261,10.719739 C 7.7595644,13.679913 4.1863184,15.159999 0,15.16 -4.1863184,15.159999 -7.7595644,13.679913 -10.719739,10.719739 -13.679913,7.7595644 -15.159999,4.1863184 -15.16,0 c 1e-6,-4.1863184 1.480087,-7.7595644 4.440261,-10.719739 C -7.7595644,-13.679913 -4.1863184,-15.159999 0,-15.16 c 4.1863184,1e-6 7.7595644,1.480087 10.719739,4.440261 C 13.679913,-7.7595644 15.159999,-4.1863184 15.16,0 Z" /><path
                     id="path314"
                     style="fill:none;stroke:#ffffff;stroke-width:1;stroke-linecap:butt;stroke-linejoin:miter;stroke-miterlimit:10;stroke-dasharray:none;stroke-opacity:1"
                     d="m 15.16,0 c -1e-6,4.1863184 -1.480087,7.7595644 -4.440261,10.719739 C 7.7595644,13.679913 4.1863184,15.159999 0,15.16 -4.1863184,15.159999 -7.7595644,13.679913 -10.719739,10.719739 -13.679913,7.7595644 -15.159999,4.1863184 -15.16,0 c 1e-6,-4.1863184 1.480087,-7.7595644 4.440261,-10.719739 C -7.7595644,-13.679913 -4.1863184,-15.159999 0,-15.16 c 4.1863184,1e-6 7.7595644,1.480087 10.719739,4.440261 C 13.679913,-7.7595644 15.159999,-4.1863184 15.16,0 Z" /></g></g></g></g></g><g
           transform="translate(264,134)"
           id="g324"><g
             id="g326" /><g
             id="g342"
             transform="matrix(1,0,0,-1,0,25)"><g
               style="opacity:0.69803922"
               id="g340"
               clip-path="url(#clipPath330)"><g
                 id="g338"
                 transform="matrix(1,0,0,-1,0,25)"><g
                   id="g336"
                   transform="matrix(0.75031054,0,0,0.75031054,12.459412,12.460617)"><path
                     id="path332"
                     style="fill:#1f77b4;fill-opacity:1;fill-rule:nonzero;stroke:none"
                     d="m 15.16,0 c -1e-6,4.1863184 -1.480087,7.7595644 -4.440261,10.719739 C 7.7595644,13.679913 4.1863184,15.159999 0,15.16 -4.1863184,15.159999 -7.7595644,13.679913 -10.719739,10.719739 -13.679913,7.7595644 -15.159999,4.1863184 -15.16,0 c 1e-6,-4.1863184 1.480087,-7.7595644 4.440261,-10.719739 C -7.7595644,-13.679913 -4.1863184,-15.159999 0,-15.16 c 4.1863184,1e-6 7.7595644,1.480087 10.719739,4.440261 C 13.679913,-7.7595644 15.159999,-4.1863184 15.16,0 Z" /><path
                     id="path334"
                     style="fill:none;stroke:#ffffff;stroke-width:1;stroke-linecap:butt;stroke-linejoin:miter;stroke-miterlimit:10;stroke-dasharray:none;stroke-opacity:1"
                     d="m 15.16,0 c -1e-6,4.1863184 -1.480087,7.7595644 -4.440261,10.719739 C 7.7595644,13.679913 4.1863184,15.159999 0,15.16 -4.1863184,15.159999 -7.7595644,13.679913 -10.719739,10.719739 -13.679913,7.7595644 -15.159999,4.1863184 -15.16,0 c 1e-6,-4.1863184 1.480087,-7.7595644 4.440261,-10.719739 C -7.7595644,-13.679913 -4.1863184,-15.159999 0,-15.16 c 4.1863184,1e-6 7.7595644,1.480087 10.719739,4.440261 C 13.679913,-7.7595644 15.159999,-4.1863184 15.16,0 Z" /></g></g></g></g></g><g
           transform="translate(268,178)"
           id="g344"><g
             id="g346" /><g
             id="g362"
             transform="matrix(1,0,0,-1,0,17)"><g
               style="opacity:0.69803922"
               id="g360"
               clip-path="url(#clipPath350)"><g
                 id="g358"
                 transform="matrix(1,0,0,-1,0,17)"><g
                   id="g356"
                   transform="matrix(0.75031054,0,0,0.75031054,8.4594116,8.3171082)"><path
                     id="path352"
                     style="fill:#1f77b4;fill-opacity:1;fill-rule:nonzero;stroke:none"
                     d="M 10,0 C 9.999999,2.7614236 9.0236883,5.1184459 7.0710673,7.0710673 5.1184459,9.0236883 2.7614236,9.999999 0,10 -2.7614236,9.999999 -5.1184459,9.0236883 -7.0710673,7.0710673 -9.0236883,5.1184459 -9.999999,2.7614236 -10,0 c 10e-7,-2.7614236 0.9763117,-5.1184459 2.9289327,-7.0710673 C -5.1184459,-9.0236883 -2.7614236,-9.999999 0,-10 c 2.7614236,10e-7 5.1184459,0.9763117 7.0710673,2.9289327 C 9.0236883,-5.1184459 9.999999,-2.7614236 10,0 Z" /><path
                     id="path354"
                     style="fill:none;stroke:#ffffff;stroke-width:1;stroke-linecap:butt;stroke-linejoin:miter;stroke-miterlimit:10;stroke-dasharray:none;stroke-opacity:1"
                     d="M 10,0 C 9.999999,2.7614236 9.0236883,5.1184459 7.0710673,7.0710673 5.1184459,9.0236883 2.7614236,9.999999 0,10 -2.7614236,9.999999 -5.1184459,9.0236883 -7.0710673,7.0710673 -9.0236883,5.1184459 -9.999999,2.7614236 -10,0 c 10e-7,-2.7614236 0.9763117,-5.1184459 2.9289327,-7.0710673 C -5.1184459,-9.0236883 -2.7614236,-9.999999 0,-10 c 2.7614236,10e-7 5.1184459,0.9763117 7.0710673,2.9289327 C 9.0236883,-5.1184459 9.999999,-2.7614236 10,0 Z" /></g></g></g></g></g><g
           transform="translate(328,254)"
           id="g364"><g
             id="g366" /><g
             id="g382"
             transform="matrix(1,0,0,-1,0,24)"><g
               style="opacity:0.69803922"
               id="g380"
               clip-path="url(#clipPath370)"><g
                 id="g378"
                 transform="matrix(1,0,0,-1,0,24)"><g
                   id="g376"
                   transform="matrix(0.75031054,0,0,0.75031054,12.055756,12.037598)"><path
                     id="path372"
                     style="fill:#1f77b4;fill-opacity:1;fill-rule:nonzero;stroke:none"
                     d="m 15.16,0 c -1e-6,4.1863184 -1.480087,7.7595644 -4.440261,10.719739 C 7.7595644,13.679913 4.1863184,15.159999 0,15.16 -4.1863184,15.159999 -7.7595644,13.679913 -10.719739,10.719739 -13.679913,7.7595644 -15.159999,4.1863184 -15.16,0 c 1e-6,-4.1863184 1.480087,-7.7595644 4.440261,-10.719739 C -7.7595644,-13.679913 -4.1863184,-15.159999 0,-15.16 c 4.1863184,1e-6 7.7595644,1.480087 10.719739,4.440261 C 13.679913,-7.7595644 15.159999,-4.1863184 15.16,0 Z" /><path
                     id="path374"
                     style="fill:none;stroke:#ffffff;stroke-width:1;stroke-linecap:butt;stroke-linejoin:miter;stroke-miterlimit:10;stroke-dasharray:none;stroke-opacity:1"
                     d="m 15.16,0 c -1e-6,4.1863184 -1.480087,7.7595644 -4.440261,10.719739 C 7.7595644,13.679913 4.1863184,15.159999 0,15.16 -4.1863184,15.159999 -7.7595644,13.679913 -10.719739,10.719739 -13.679913,7.7595644 -15.159999,4.1863184 -15.16,0 c 1e-6,-4.1863184 1.480087,-7.7595644 4.440261,-10.719739 C -7.7595644,-13.679913 -4.1863184,-15.159999 0,-15.16 c 4.1863184,1e-6 7.7595644,1.480087 10.719739,4.440261 C 13.679913,-7.7595644 15.159999,-4.1863184 15.16,0 Z" /></g></g></g></g></g><g
           transform="translate(358,220)"
           id="g384"><g
             id="g386" /><g
             id="g402"
             transform="matrix(1,0,0,-1,0,92)"><g
               style="opacity:0.69803922"
               id="g400"
               clip-path="url(#clipPath390)"><g
                 id="g398"
                 transform="matrix(1,0,0,-1,0,92)"><g
                   id="g396"
                   transform="matrix(0.75031054,0,0,0.75031054,45.652069,46.037598)"><path
                     id="path392"
                     style="fill:#1f77b4;fill-opacity:1;fill-rule:nonzero;stroke:none"
                     d="m 60.34,0 c -4e-6,8.0015812 -1.53104,15.698619 -4.593113,23.091116 -3.062073,7.392496 -7.422096,13.91773 -13.080066,19.575705 C 37.008846,48.324791 30.483612,52.684814 23.091116,55.746883 15.698619,58.80896 8.0015812,60.339996 0,60.34 c -8.0015812,-4e-6 -15.698619,-1.53104 -23.091116,-4.593113 -7.392496,-3.062073 -13.91773,-7.422096 -19.575705,-13.080066 C -48.324791,37.008846 -52.684814,30.483612 -55.746883,23.091116 -58.80896,15.698619 -60.339996,8.0015812 -60.34,0 c 4e-6,-8.0015812 1.53104,-15.698619 4.593113,-23.091116 3.062073,-7.392496 7.422096,-13.91773 13.080066,-19.575705 5.657975,-5.65797 12.183209,-10.017993 19.575705,-13.080062 C -15.698619,-58.80896 -8.0015812,-60.339996 0,-60.34 c 8.0015812,4e-6 15.698619,1.53104 23.091116,4.593113 7.392496,3.062073 13.91773,7.422096 19.575705,13.080066 5.65797,5.657975 10.017993,12.183209 13.080062,19.575705 C 58.80896,-15.698619 60.339996,-8.0015812 60.34,0 Z" /><path
                     id="path394"
                     style="fill:none;stroke:#ffffff;stroke-width:1;stroke-linecap:butt;stroke-linejoin:miter;stroke-miterlimit:10;stroke-dasharray:none;stroke-opacity:1"
                     d="m 60.34,0 c -4e-6,8.0015812 -1.53104,15.698619 -4.593113,23.091116 -3.062073,7.392496 -7.422096,13.91773 -13.080066,19.575705 C 37.008846,48.324791 30.483612,52.684814 23.091116,55.746883 15.698619,58.80896 8.0015812,60.339996 0,60.34 c -8.0015812,-4e-6 -15.698619,-1.53104 -23.091116,-4.593113 -7.392496,-3.062073 -13.91773,-7.422096 -19.575705,-13.080066 C -48.324791,37.008846 -52.684814,30.483612 -55.746883,23.091116 -58.80896,15.698619 -60.339996,8.0015812 -60.34,0 c 4e-6,-8.0015812 1.53104,-15.698619 4.593113,-23.091116 3.062073,-7.392496 7.422096,-13.91773 13.080066,-19.575705 5.657975,-5.65797 12.183209,-10.017993 19.575705,-13.080062 C -15.698619,-58.80896 -8.0015812,-60.339996 0,-60.34 c 8.0015812,4e-6 15.698619,1.53104 23.091116,4.593113 7.392496,3.062073 13.91773,7.422096 19.575705,13.080066 5.65797,5.657975 10.017993,12.183209 13.080062,19.575705 C 58.80896,-15.698619 60.339996,-8.0015812 60.34,0 Z" /></g></g></g></g></g><g
           transform="translate(371,194)"
           id="g404"><g
             id="g406" /><g
             id="g422"
             transform="matrix(1,0,0,-1,0,65)"><g
               style="opacity:0.69803922"
               id="g420"
               clip-path="url(#clipPath410)"><g
                 id="g418"
                 transform="matrix(1,0,0,-1,0,65)"><g
                   id="g416"
                   transform="matrix(0.75031054,0,0,0.75031054,32.652069,32.181122)"><path
                     id="path412"
                     style="fill:#1f77b4;fill-opacity:1;fill-rule:nonzero;stroke:none"
                     d="m 42.150002,0 c -4e-6,5.589437 -1.069497,10.966139 -3.208481,16.130106 -2.138989,5.163965 -5.184643,9.722115 -9.136969,13.674446 -3.952331,3.952326 -8.510481,6.99798 -13.674446,9.136965 C 10.966138,41.080505 5.5894356,42.149998 -1.2561679e-6,42.150002 -5.5894389,42.149998 -10.96614,41.080505 -16.130106,38.941521 c -5.163967,-2.138989 -9.722116,-5.184643 -13.674446,-9.136969 -3.952326,-3.95233 -6.99798,-8.510479 -9.136965,-13.674446 C -41.080505,10.96614 -42.149998,5.5894389 -42.150002,1.2561679e-6 -42.149998,-5.5894356 -41.080505,-10.966138 -38.941521,-16.130106 c 2.138989,-5.163965 5.184643,-9.722115 9.136969,-13.674446 3.95233,-3.952326 8.510479,-6.99798 13.674446,-9.136965 5.163966,-2.138988 10.5406671,-3.208481 16.1301047438321,-3.208485 C 5.5894356,-42.149998 10.966138,-41.080505 16.130106,-38.941521 c 5.163965,2.138989 9.722115,5.184643 13.674446,9.136969 3.952326,3.952331 6.99798,8.510481 9.136965,13.674446 2.138988,5.163968 3.208481,10.5406704 3.208485,16.1301072561679 z" /><path
                     id="path414"
                     style="fill:none;stroke:#ffffff;stroke-width:1;stroke-linecap:butt;stroke-linejoin:miter;stroke-miterlimit:10;stroke-dasharray:none;stroke-opacity:1"
                     d="m 42.150002,0 c -4e-6,5.589437 -1.069497,10.966139 -3.208481,16.130106 -2.138989,5.163965 -5.184643,9.722115 -9.136969,13.674446 -3.952331,3.952326 -8.510481,6.99798 -13.674446,9.136965 C 10.966138,41.080505 5.5894356,42.149998 -1.2561679e-6,42.150002 -5.5894389,42.149998 -10.96614,41.080505 -16.130106,38.941521 c -5.163967,-2.138989 -9.722116,-5.184643 -13.674446,-9.136969 -3.952326,-3.95233 -6.99798,-8.510479 -9.136965,-13.674446 C -41.080505,10.96614 -42.149998,5.5894389 -42.150002,1.2561679e-6 -42.149998,-5.5894356 -41.080505,-10.966138 -38.941521,-16.130106 c 2.138989,-5.163965 5.184643,-9.722115 9.136969,-13.674446 3.95233,-3.952326 8.510479,-6.99798 13.674446,-9.136965 5.163966,-2.138988 10.5406671,-3.208481 16.1301047438321,-3.208485 C 5.5894356,-42.149998 10.966138,-41.080505 16.130106,-38.941521 c 5.163965,2.138989 9.722115,5.184643 13.674446,9.136969 3.952326,3.952331 6.99798,8.510481 9.136965,13.674446 2.138988,5.163968 3.208481,10.5406704 3.208485,16.1301072561679 z" /></g></g></g></g></g><g
           transform="translate(386,128)"
           id="g424"><g
             id="g426" /><g
             id="g442"
             transform="matrix(1,0,0,-1,0,37)"><g
               style="opacity:0.69803922"
               id="g440"
               clip-path="url(#clipPath430)"><g
                 id="g438"
                 transform="matrix(1,0,0,-1,0,37)"><g
                   id="g436"
                   transform="matrix(0.75031054,0,0,0.75031054,17.652069,18.460617)"><path
                     id="path432"
                     style="fill:#1f77b4;fill-opacity:1;fill-rule:nonzero;stroke:none"
                     d="m 22.969999,0 c -2e-6,3.046011 -0.58283,5.9760895 -1.748489,8.7902365 -1.165659,2.8141465 -2.825415,5.2981485 -4.979269,7.4520045 -2.153856,2.153854 -4.637858,3.81361 -7.4520045,4.979269 C 5.9760895,22.387169 3.046011,22.969997 0,22.969999 c -3.046011,-2e-6 -5.9760895,-0.58283 -8.7902365,-1.748489 -2.8141465,-1.165659 -5.2981485,-2.825415 -7.4520045,-4.979269 -2.153854,-2.153856 -3.81361,-4.637858 -4.979269,-7.4520045 C -22.387169,5.9760895 -22.969997,3.046011 -22.969999,0 c 2e-6,-3.046011 0.58283,-5.9760895 1.748489,-8.7902365 1.165659,-2.8141465 2.825415,-5.2981485 4.979269,-7.4520045 2.153856,-2.153854 4.637858,-3.81361 7.4520045,-4.979269 2.814147,-1.165659 5.7442255,-1.748487 8.7902365,-1.748489 3.046011,2e-6 5.9760895,0.58283 8.7902365,1.748489 2.8141465,1.165659 5.2981485,2.825415 7.4520045,4.979269 2.153854,2.153856 3.81361,4.637858 4.979269,7.4520045 C 22.387169,-5.9760895 22.969997,-3.046011 22.969999,0 Z" /><path
                     id="path434"
                     style="fill:none;stroke:#ffffff;stroke-width:1;stroke-linecap:butt;stroke-linejoin:miter;stroke-miterlimit:10;stroke-dasharray:none;stroke-opacity:1"
                     d="m 22.969999,0 c -2e-6,3.046011 -0.58283,5.9760895 -1.748489,8.7902365 -1.165659,2.8141465 -2.825415,5.2981485 -4.979269,7.4520045 -2.153856,2.153854 -4.637858,3.81361 -7.4520045,4.979269 C 5.9760895,22.387169 3.046011,22.969997 0,22.969999 c -3.046011,-2e-6 -5.9760895,-0.58283 -8.7902365,-1.748489 -2.8141465,-1.165659 -5.2981485,-2.825415 -7.4520045,-4.979269 -2.153854,-2.153856 -3.81361,-4.637858 -4.979269,-7.4520045 C -22.387169,5.9760895 -22.969997,3.046011 -22.969999,0 c 2e-6,-3.046011 0.58283,-5.9760895 1.748489,-8.7902365 1.165659,-2.8141465 2.825415,-5.2981485 4.979269,-7.4520045 2.153856,-2.153854 4.637858,-3.81361 7.4520045,-4.979269 2.814147,-1.165659 5.7442255,-1.748487 8.7902365,-1.748489 3.046011,2e-6 5.9760895,0.58283 8.7902365,1.748489 2.8141465,1.165659 5.2981485,2.825415 7.4520045,4.979269 2.153854,2.153856 3.81361,4.637858 4.979269,7.4520045 C 22.387169,-5.9760895 22.969997,-3.046011 22.969999,0 Z" /></g></g></g></g></g><g
           transform="translate(395,178)"
           id="g444"><g
             id="g446" /><g
             id="g462"
             transform="matrix(1,0,0,-1,0,17)"><g
               style="opacity:0.69803922"
               id="g460"
               clip-path="url(#clipPath450)"><g
                 id="g458"
                 transform="matrix(1,0,0,-1,0,17)"><g
                   id="g456"
                   transform="matrix(0.75031054,0,0,0.75031054,8.6520691,8.3171082)"><path
                     id="path452"
                     style="fill:#1f77b4;fill-opacity:1;fill-rule:nonzero;stroke:none"
                     d="M 10,0 C 9.999999,2.7614236 9.0236883,5.1184459 7.0710673,7.0710673 5.1184459,9.0236883 2.7614236,9.999999 0,10 -2.7614236,9.999999 -5.1184459,9.0236883 -7.0710673,7.0710673 -9.0236883,5.1184459 -9.999999,2.7614236 -10,0 c 10e-7,-2.7614236 0.9763117,-5.1184459 2.9289327,-7.0710673 C -5.1184459,-9.0236883 -2.7614236,-9.999999 0,-10 c 2.7614236,10e-7 5.1184459,0.9763117 7.0710673,2.9289327 C 9.0236883,-5.1184459 9.999999,-2.7614236 10,0 Z" /><path
                     id="path454"
                     style="fill:none;stroke:#ffffff;stroke-width:1;stroke-linecap:butt;stroke-linejoin:miter;stroke-miterlimit:10;stroke-dasharray:none;stroke-opacity:1"
                     d="M 10,0 C 9.999999,2.7614236 9.0236883,5.1184459 7.0710673,7.0710673 5.1184459,9.0236883 2.7614236,9.999999 0,10 -2.7614236,9.999999 -5.1184459,9.0236883 -7.0710673,7.0710673 -9.0236883,5.1184459 -9.999999,2.7614236 -10,0 c 10e-7,-2.7614236 0.9763117,-5.1184459 2.9289327,-7.0710673 C -5.1184459,-9.0236883 -2.7614236,-9.999999 0,-10 c 2.7614236,10e-7 5.1184459,0.9763117 7.0710673,2.9289327 C 9.0236883,-5.1184459 9.999999,-2.7614236 10,0 Z" /></g></g></g></g></g><g
           transform="translate(395,98)"
           id="g464"><g
             id="g466" /><g
             id="g482"
             transform="matrix(1,0,0,-1,0,17)"><g
               style="opacity:0.69803922"
               id="g480"
               clip-path="url(#clipPath470)"><g
                 id="g478"
                 transform="matrix(1,0,0,-1,0,17)"><g
                   id="g476"
                   transform="matrix(0.75031054,0,0,0.75031054,8.6520691,8.5966187)"><path
                     id="path472"
                     style="fill:#1f77b4;fill-opacity:1;fill-rule:nonzero;stroke:none"
                     d="M 10,0 C 9.999999,2.7614236 9.0236883,5.1184459 7.0710673,7.0710673 5.1184459,9.0236883 2.7614236,9.999999 0,10 -2.7614236,9.999999 -5.1184459,9.0236883 -7.0710673,7.0710673 -9.0236883,5.1184459 -9.999999,2.7614236 -10,0 c 10e-7,-2.7614236 0.9763117,-5.1184459 2.9289327,-7.0710673 C -5.1184459,-9.0236883 -2.7614236,-9.999999 0,-10 c 2.7614236,10e-7 5.1184459,0.9763117 7.0710673,2.9289327 C 9.0236883,-5.1184459 9.999999,-2.7614236 10,0 Z" /><path
                     id="path474"
                     style="fill:none;stroke:#ffffff;stroke-width:1;stroke-linecap:butt;stroke-linejoin:miter;stroke-miterlimit:10;stroke-dasharray:none;stroke-opacity:1"
                     d="M 10,0 C 9.999999,2.7614236 9.0236883,5.1184459 7.0710673,7.0710673 5.1184459,9.0236883 2.7614236,9.999999 0,10 -2.7614236,9.999999 -5.1184459,9.0236883 -7.0710673,7.0710673 -9.0236883,5.1184459 -9.999999,2.7614236 -10,0 c 10e-7,-2.7614236 0.9763117,-5.1184459 2.9289327,-7.0710673 C -5.1184459,-9.0236883 -2.7614236,-9.999999 0,-10 c 2.7614236,10e-7 5.1184459,0.9763117 7.0710673,2.9289327 C 9.0236883,-5.1184459 9.999999,-2.7614236 10,0 Z" /></g></g></g></g></g><g
           transform="translate(459,258)"
           id="g484"><g
             id="g486" /><g
             id="g502"
             transform="matrix(1,0,0,-1,0,16)"><g
               style="opacity:0.69803922"
               id="g500"
               clip-path="url(#clipPath490)"><g
                 id="g498"
                 transform="matrix(1,0,0,-1,0,16)"><g
                   id="g496"
                   transform="matrix(0.75031054,0,0,0.75031054,8.2483521,8.0375977)"><path
                     id="path492"
                     style="fill:#1f77b4;fill-opacity:1;fill-rule:nonzero;stroke:none"
                     d="M 10,0 C 9.999999,2.7614236 9.0236883,5.1184459 7.0710673,7.0710673 5.1184459,9.0236883 2.7614236,9.999999 0,10 -2.7614236,9.999999 -5.1184459,9.0236883 -7.0710673,7.0710673 -9.0236883,5.1184459 -9.999999,2.7614236 -10,0 c 10e-7,-2.7614236 0.9763117,-5.1184459 2.9289327,-7.0710673 C -5.1184459,-9.0236883 -2.7614236,-9.999999 0,-10 c 2.7614236,10e-7 5.1184459,0.9763117 7.0710673,2.9289327 C 9.0236883,-5.1184459 9.999999,-2.7614236 10,0 Z" /><path
                     id="path494"
                     style="fill:none;stroke:#ffffff;stroke-width:1;stroke-linecap:butt;stroke-linejoin:miter;stroke-miterlimit:10;stroke-dasharray:none;stroke-opacity:1"
                     d="M 10,0 C 9.999999,2.7614236 9.0236883,5.1184459 7.0710673,7.0710673 5.1184459,9.0236883 2.7614236,9.999999 0,10 -2.7614236,9.999999 -5.1184459,9.0236883 -7.0710673,7.0710673 -9.0236883,5.1184459 -9.999999,2.7614236 -10,0 c 10e-7,-2.7614236 0.9763117,-5.1184459 2.9289327,-7.0710673 C -5.1184459,-9.0236883 -2.7614236,-9.999999 0,-10 c 2.7614236,10e-7 5.1184459,0.9763117 7.0710673,2.9289327 C 9.0236883,-5.1184459 9.999999,-2.7614236 10,0 Z" /></g></g></g></g></g><g
           transform="translate(459,218)"
           id="g504"><g
             id="g506" /><g
             id="g522"
             transform="matrix(1,0,0,-1,0,17)"><g
               style="opacity:0.69803922"
               id="g520"
               clip-path="url(#clipPath510)"><g
                 id="g518"
                 transform="matrix(1,0,0,-1,0,17)"><g
                   id="g516"
                   transform="matrix(0.75031054,0,0,0.75031054,8.2483521,8.1811218)"><path
                     id="path512"
                     style="fill:#1f77b4;fill-opacity:1;fill-rule:nonzero;stroke:none"
                     d="M 10,0 C 9.999999,2.7614236 9.0236883,5.1184459 7.0710673,7.0710673 5.1184459,9.0236883 2.7614236,9.999999 0,10 -2.7614236,9.999999 -5.1184459,9.0236883 -7.0710673,7.0710673 -9.0236883,5.1184459 -9.999999,2.7614236 -10,0 c 10e-7,-2.7614236 0.9763117,-5.1184459 2.9289327,-7.0710673 C -5.1184459,-9.0236883 -2.7614236,-9.999999 0,-10 c 2.7614236,10e-7 5.1184459,0.9763117 7.0710673,2.9289327 C 9.0236883,-5.1184459 9.999999,-2.7614236 10,0 Z" /><path
                     id="path514"
                     style="fill:none;stroke:#ffffff;stroke-width:1;stroke-linecap:butt;stroke-linejoin:miter;stroke-miterlimit:10;stroke-dasharray:none;stroke-opacity:1"
                     d="M 10,0 C 9.999999,2.7614236 9.0236883,5.1184459 7.0710673,7.0710673 5.1184459,9.0236883 2.7614236,9.999999 0,10 -2.7614236,9.999999 -5.1184459,9.0236883 -7.0710673,7.0710673 -9.0236883,5.1184459 -9.999999,2.7614236 -10,0 c 10e-7,-2.7614236 0.9763117,-5.1184459 2.9289327,-7.0710673 C -5.1184459,-9.0236883 -2.7614236,-9.999999 0,-10 c 2.7614236,10e-7 5.1184459,0.9763117 7.0710673,2.9289327 C 9.0236883,-5.1184459 9.999999,-2.7614236 10,0 Z" /></g></g></g></g></g><g
           transform="translate(459,178)"
           id="g524"><g
             id="g526" /><g
             id="g542"
             transform="matrix(1,0,0,-1,0,17)"><g
               style="opacity:0.69803922"
               id="g540"
               clip-path="url(#clipPath530)"><g
                 id="g538"
                 transform="matrix(1,0,0,-1,0,17)"><g
                   id="g536"
                   transform="matrix(0.75031054,0,0,0.75031054,8.2483521,8.3171082)"><path
                     id="path532"
                     style="fill:#1f77b4;fill-opacity:1;fill-rule:nonzero;stroke:none"
                     d="M 10,0 C 9.999999,2.7614236 9.0236883,5.1184459 7.0710673,7.0710673 5.1184459,9.0236883 2.7614236,9.999999 0,10 -2.7614236,9.999999 -5.1184459,9.0236883 -7.0710673,7.0710673 -9.0236883,5.1184459 -9.999999,2.7614236 -10,0 c 10e-7,-2.7614236 0.9763117,-5.1184459 2.9289327,-7.0710673 C -5.1184459,-9.0236883 -2.7614236,-9.999999 0,-10 c 2.7614236,10e-7 5.1184459,0.9763117 7.0710673,2.9289327 C 9.0236883,-5.1184459 9.999999,-2.7614236 10,0 Z" /><path
                     id="path534"
                     style="fill:none;stroke:#ffffff;stroke-width:1;stroke-linecap:butt;stroke-linejoin:miter;stroke-miterlimit:10;stroke-dasharray:none;stroke-opacity:1"
                     d="M 10,0 C 9.999999,2.7614236 9.0236883,5.1184459 7.0710673,7.0710673 5.1184459,9.0236883 2.7614236,9.999999 0,10 -2.7614236,9.999999 -5.1184459,9.0236883 -7.0710673,7.0710673 -9.0236883,5.1184459 -9.999999,2.7614236 -10,0 c 10e-7,-2.7614236 0.9763117,-5.1184459 2.9289327,-7.0710673 C -5.1184459,-9.0236883 -2.7614236,-9.999999 0,-10 c 2.7614236,10e-7 5.1184459,0.9763117 7.0710673,2.9289327 C 9.0236883,-5.1184459 9.999999,-2.7614236 10,0 Z" /></g></g></g></g></g><g
           transform="translate(522,178)"
           id="g544"><g
             id="g546" /><g
             id="g562"
             transform="matrix(1,0,0,-1,0,17)"><g
               style="opacity:0.69803922"
               id="g560"
               clip-path="url(#clipPath550)"><g
                 id="g558"
                 transform="matrix(1,0,0,-1,0,17)"><g
                   id="g556"
                   transform="matrix(0.75031054,0,0,0.75031054,8.8447266,8.3171082)"><path
                     id="path552"
                     style="fill:#1f77b4;fill-opacity:1;fill-rule:nonzero;stroke:none"
                     d="M 10,0 C 9.999999,2.7614236 9.0236883,5.1184459 7.0710673,7.0710673 5.1184459,9.0236883 2.7614236,9.999999 0,10 -2.7614236,9.999999 -5.1184459,9.0236883 -7.0710673,7.0710673 -9.0236883,5.1184459 -9.999999,2.7614236 -10,0 c 10e-7,-2.7614236 0.9763117,-5.1184459 2.9289327,-7.0710673 C -5.1184459,-9.0236883 -2.7614236,-9.999999 0,-10 c 2.7614236,10e-7 5.1184459,0.9763117 7.0710673,2.9289327 C 9.0236883,-5.1184459 9.999999,-2.7614236 10,0 Z" /><path
                     id="path554"
                     style="fill:none;stroke:#ffffff;stroke-width:1;stroke-linecap:butt;stroke-linejoin:miter;stroke-miterlimit:10;stroke-dasharray:none;stroke-opacity:1"
                     d="M 10,0 C 9.999999,2.7614236 9.0236883,5.1184459 7.0710673,7.0710673 5.1184459,9.0236883 2.7614236,9.999999 0,10 -2.7614236,9.999999 -5.1184459,9.0236883 -7.0710673,7.0710673 -9.0236883,5.1184459 -9.999999,2.7614236 -10,0 c 10e-7,-2.7614236 0.9763117,-5.1184459 2.9289327,-7.0710673 C -5.1184459,-9.0236883 -2.7614236,-9.999999 0,-10 c 2.7614236,10e-7 5.1184459,0.9763117 7.0710673,2.9289327 C 9.0236883,-5.1184459 9.999999,-2.7614236 10,0 Z" /></g></g></g></g></g><g
           transform="matrix(0.75031054,0,0,0.75031054,112.54658,39.766457)"
           id="g564"><text
             id="text568"
             style="font-variant:normal;font-weight:normal;font-size:12px;font-family:'Liberation Sans';-inkscape-font-specification:LiberationSans;writing-mode:lr-tb;fill:#444444;fill-opacity:1;fill-rule:nonzero;stroke:none"
             transform="translate(45.613087,304.57001)"><tspan
               id="tspan566"
               y="0"
               x="0">2</tspan></text>
<text
             id="text572"
             style="font-variant:normal;font-weight:normal;font-size:12px;font-family:'Liberation Sans';-inkscape-font-specification:LiberationSans;writing-mode:lr-tb;fill:#444444;fill-opacity:1;fill-rule:nonzero;stroke:none"
             transform="translate(45.613087,251.45)"><tspan
               id="tspan570"
               y="0"
               x="0">2</tspan></text>
<text
             id="text576"
             style="font-variant:normal;font-weight:normal;font-size:12px;font-family:'Liberation Sans';-inkscape-font-specification:LiberationSans;writing-mode:lr-tb;fill:#444444;fill-opacity:1;fill-rule:nonzero;stroke:none"
             transform="translate(45.613087,198.32001)"><tspan
               id="tspan574"
               y="0"
               x="0">2</tspan></text>
<text
             id="text580"
             style="font-variant:normal;font-weight:normal;font-size:12px;font-family:'Liberation Sans';-inkscape-font-specification:LiberationSans;writing-mode:lr-tb;fill:#444444;fill-opacity:1;fill-rule:nonzero;stroke:none"
             transform="translate(130.37309,304.57001)"><tspan
               id="tspan578"
               y="0"
               x="0">6</tspan></text>
<text
             id="text584"
             style="font-variant:normal;font-weight:normal;font-size:12px;font-family:'Liberation Sans';-inkscape-font-specification:LiberationSans;writing-mode:lr-tb;fill:#444444;fill-opacity:1;fill-rule:nonzero;stroke:none"
             transform="translate(130.37309,145.2)"><tspan
               id="tspan582"
               y="0"
               x="0">1</tspan></text>
<text
             id="text588"
             style="font-variant:normal;font-weight:normal;font-size:12px;font-family:'Liberation Sans';-inkscape-font-specification:LiberationSans;writing-mode:lr-tb;fill:#444444;fill-opacity:1;fill-rule:nonzero;stroke:none"
             transform="translate(130.37309,198.32001)"><tspan
               id="tspan586"
               y="0"
               x="0">1</tspan></text>
<text
             id="text592"
             style="font-variant:normal;font-weight:normal;font-size:12px;font-family:'Liberation Sans';-inkscape-font-specification:LiberationSans;writing-mode:lr-tb;fill:#444444;fill-opacity:1;fill-rule:nonzero;stroke:none"
             transform="translate(130.37309,92.07)"><tspan
               id="tspan590"
               y="0"
               x="0">1</tspan></text>
<text
             id="text596"
             style="font-variant:normal;font-weight:normal;font-size:12px;font-family:'Liberation Sans';-inkscape-font-specification:LiberationSans;writing-mode:lr-tb;fill:#444444;fill-opacity:1;fill-rule:nonzero;stroke:none"
             transform="translate(215.12309,304.57001)"><tspan
               id="tspan594"
               y="0"
               x="0">6</tspan></text>
<text
             id="text600"
             style="font-variant:normal;font-weight:normal;font-size:12px;font-family:'Liberation Sans';-inkscape-font-specification:LiberationSans;writing-mode:lr-tb;fill:#444444;fill-opacity:1;fill-rule:nonzero;stroke:none"
             transform="translate(215.12309,251.45)"><tspan
               id="tspan598"
               y="0"
               x="0">2</tspan></text>
<text
             id="text604"
             style="font-variant:normal;font-weight:normal;font-size:12px;font-family:'Liberation Sans';-inkscape-font-specification:LiberationSans;writing-mode:lr-tb;fill:#444444;fill-opacity:1;fill-rule:nonzero;stroke:none"
             transform="translate(215.12309,38.950001)"><tspan
               id="tspan602"
               y="0"
               x="0">2</tspan></text>
<text
             id="text608"
             style="font-variant:normal;font-weight:normal;font-size:12px;font-family:'Liberation Sans';-inkscape-font-specification:LiberationSans;writing-mode:lr-tb;fill:#444444;fill-opacity:1;fill-rule:nonzero;stroke:none"
             transform="translate(215.12309,145.2)"><tspan
               id="tspan606"
               y="0"
               x="0">2</tspan></text>
<text
             id="text612"
             style="font-variant:normal;font-weight:normal;font-size:12px;font-family:'Liberation Sans';-inkscape-font-specification:LiberationSans;writing-mode:lr-tb;fill:#444444;fill-opacity:1;fill-rule:nonzero;stroke:none"
             transform="translate(215.12309,198.32001)"><tspan
               id="tspan610"
               y="0"
               x="0">1</tspan></text>
<text
             id="text616"
             style="font-variant:normal;font-weight:normal;font-size:12px;font-family:'Liberation Sans';-inkscape-font-specification:LiberationSans;writing-mode:lr-tb;fill:#444444;fill-opacity:1;fill-rule:nonzero;stroke:none"
             transform="translate(299.88309,304.57001)"><tspan
               id="tspan614"
               y="0"
               x="0">2</tspan></text>
<text
             id="text620"
             style="font-variant:normal;font-weight:normal;font-size:12px;font-family:'Liberation Sans';-inkscape-font-specification:LiberationSans;writing-mode:lr-tb;fill:#444444;fill-opacity:1;fill-rule:nonzero;stroke:none"
             transform="translate(381.30618,304.57001)"><tspan
               id="tspan618"
               y="0"
               x="0 6.6738281">20</tspan></text>
<text
             id="text624"
             style="font-variant:normal;font-weight:normal;font-size:12px;font-family:'Liberation Sans';-inkscape-font-specification:LiberationSans;writing-mode:lr-tb;fill:#444444;fill-opacity:1;fill-rule:nonzero;stroke:none"
             transform="translate(381.7515,251.45)"><tspan
               id="tspan622"
               y="0"
               x="0 5.7832031">11</tspan></text>
<text
             id="text628"
             style="font-variant:normal;font-weight:normal;font-size:12px;font-family:'Liberation Sans';-inkscape-font-specification:LiberationSans;writing-mode:lr-tb;fill:#444444;fill-opacity:1;fill-rule:nonzero;stroke:none"
             transform="translate(384.6431,145.2)"><tspan
               id="tspan626"
               y="0"
               x="0">4</tspan></text>
<text
             id="text632"
             style="font-variant:normal;font-weight:normal;font-size:12px;font-family:'Liberation Sans';-inkscape-font-specification:LiberationSans;writing-mode:lr-tb;fill:#444444;fill-opacity:1;fill-rule:nonzero;stroke:none"
             transform="translate(384.6431,198.32001)"><tspan
               id="tspan630"
               y="0"
               x="0">1</tspan></text>
<text
             id="text636"
             style="font-variant:normal;font-weight:normal;font-size:12px;font-family:'Liberation Sans';-inkscape-font-specification:LiberationSans;writing-mode:lr-tb;fill:#444444;fill-opacity:1;fill-rule:nonzero;stroke:none"
             transform="translate(384.6431,92.07)"><tspan
               id="tspan634"
               y="0"
               x="0">1</tspan></text>
<text
             id="text640"
             style="font-variant:normal;font-weight:normal;font-size:12px;font-family:'Liberation Sans';-inkscape-font-specification:LiberationSans;writing-mode:lr-tb;fill:#444444;fill-opacity:1;fill-rule:nonzero;stroke:none"
             transform="translate(469.40308,304.57001)"><tspan
               id="tspan638"
               y="0"
               x="0">1</tspan></text>
<text
             id="text644"
             style="font-variant:normal;font-weight:normal;font-size:12px;font-family:'Liberation Sans';-inkscape-font-specification:LiberationSans;writing-mode:lr-tb;fill:#444444;fill-opacity:1;fill-rule:nonzero;stroke:none"
             transform="translate(469.40308,251.45)"><tspan
               id="tspan642"
               y="0"
               x="0">1</tspan></text>
<text
             id="text648"
             style="font-variant:normal;font-weight:normal;font-size:12px;font-family:'Liberation Sans';-inkscape-font-specification:LiberationSans;writing-mode:lr-tb;fill:#444444;fill-opacity:1;fill-rule:nonzero;stroke:none"
             transform="translate(469.40308,198.32001)"><tspan
               id="tspan646"
               y="0"
               x="0">1</tspan></text>
<text
             id="text652"
             style="font-variant:normal;font-weight:normal;font-size:12px;font-family:'Liberation Sans';-inkscape-font-specification:LiberationSans;writing-mode:lr-tb;fill:#444444;fill-opacity:1;fill-rule:nonzero;stroke:none"
             transform="translate(554.16309,198.32001)"><tspan
               id="tspan650"
               y="0"
               x="0">1</tspan></text>
</g></g></g><g
       id="g654"><g
         clip-path="url(#clipPath660)"
         id="g656"><g
           transform="matrix(0.64978796,0.37515527,-0.37515527,0.64978796,322.22086,46.340897)"
           id="g662"><text
             id="text666"
             style="font-variant:normal;font-weight:normal;font-size:12px;font-family:'Liberation Sans';-inkscape-font-specification:LiberationSans;writing-mode:lr-tb;fill:#444444;fill-opacity:1;fill-rule:nonzero;stroke:none"
             transform="translate(0,467)"><tspan
               id="tspan664"
               y="0"
               x="0 8.6660156 15.339844 22.013672 28.6875 32.021484 38.695312 42.691406 46.025391 52.699219 58.699219 62.033203 68.707031 75.380859 78.046875">Counterfactuals</tspan></text>
</g><g
           transform="matrix(0.64978796,0.37515527,-0.37515527,0.64978796,385.81714,46.340897)"
           id="g668"><text
             id="text672"
             style="font-variant:normal;font-weight:normal;font-size:12px;font-family:'Liberation Sans';-inkscape-font-specification:LiberationSans;writing-mode:lr-tb;fill:#444444;fill-opacity:1;fill-rule:nonzero;stroke:none"
             transform="translate(0,467)"><tspan
               id="tspan670"
               y="0"
               x="0 8.6660156 15.339844 21.339844 28.013672 38.009766 44.683594 51.357422 57.357422 60.023438 63.357422 66.023438 72.697266">Decomposition</tspan></text>
</g><g
           transform="matrix(0.64978796,0.37515527,-0.37515527,0.64978796,449.40598,46.340897)"
           id="g674"><text
             id="text678"
             style="font-variant:normal;font-weight:normal;font-size:12px;font-family:'Liberation Sans';-inkscape-font-specification:LiberationSans;writing-mode:lr-tb;fill:#444444;fill-opacity:1;fill-rule:nonzero;stroke:none"
             transform="translate(0,467)"><tspan
               id="tspan676"
               y="0"
               x="0 7.3300781 14.003906 20.677734 24.011719 30.685547 34.681641 41.355469 44.689453 47.355469 57.351562 64.025391 70.699219 74.695312 78.029297 84.703125 91.376953 97.376953">Feature importance</tspan></text>
</g><g
           transform="matrix(0.64978796,0.37515527,-0.37515527,0.64978796,513.00232,46.340897)"
           id="g680"><text
             id="text684"
             style="font-variant:normal;font-weight:normal;font-size:12px;font-family:'Liberation Sans';-inkscape-font-specification:LiberationSans;writing-mode:lr-tb;fill:#444444;fill-opacity:1;fill-rule:nonzero;stroke:none"
             transform="translate(0,467)"><tspan
               id="tspan682"
               y="0"
               x="0 3.3339844 10.007812 16.007812 19.341797 26.015625 32.689453 38.689453 45.363281 48.697266 55.371094 61.371094 68.044922 70.710938 77.384766 84.058594 90.732422 94.066406 96.732422 103.40625 110.08008 113.41406 119.41406 126.08789 136.08398 142.75781 149.43164 153.42773 156.09375 162.09375 168.76758">Instance explanation comparison</tspan></text>
</g><g
           transform="matrix(0.64978796,0.37515527,-0.37515527,0.64978796,576.59863,46.340897)"
           id="g686"><text
             id="text690"
             style="font-variant:normal;font-weight:normal;font-size:12px;font-family:'Liberation Sans';-inkscape-font-specification:LiberationSans;writing-mode:lr-tb;fill:#444444;fill-opacity:1;fill-rule:nonzero;stroke:none"
             transform="translate(0,467)"><tspan
               id="tspan688"
               y="0"
               x="0 6.6738281 13.347656 19.347656 26.021484 28.6875 32.021484 34.6875 41.361328 47.361328 50.695312 57.369141 64.042969 70.042969 76.716797 80.050781 86.724609 92.724609 99.398438 102.06445 108.73828 115.41211 122.08594 125.41992 128.08594 134.75977 141.43359">Local instance explanations</tspan></text>
</g><g
           transform="matrix(0.64978796,0.37515527,-0.37515527,0.64978796,640.19495,46.340897)"
           id="g692"><text
             id="text696"
             style="font-variant:normal;font-weight:normal;font-size:12px;font-family:'Liberation Sans';-inkscape-font-specification:LiberationSans;writing-mode:lr-tb;fill:#444444;fill-opacity:1;fill-rule:nonzero;stroke:none"
             transform="translate(0,467)"><tspan
               id="tspan694"
               y="0"
               x="0 8.6660156 15.339844 22.013672 26.009766 32.683594 38.683594 42.017578 45.351562 54.017578 60.691406 63.357422 70.03125 76.705078 83.378906 90.052734 96.726562 100.72266">Nearest Neighbours</tspan></text>
</g><g
           transform="matrix(0.64978796,0.37515527,-0.37515527,0.64978796,703.79126,46.340897)"
           id="g698"><text
             id="text702"
             style="font-variant:normal;font-weight:normal;font-size:12px;font-family:'Liberation Sans';-inkscape-font-specification:LiberationSans;writing-mode:lr-tb;fill:#444444;fill-opacity:1;fill-rule:nonzero;stroke:none"
             transform="translate(0,467)"><tspan
               id="tspan700"
               y="0"
               x="0 8.6660156 15.339844 22.013672 24.679688 31.353516 38.027344 44.027344 47.361328 54.035156 57.369141 60.703125 68.707031 72.703125 76.699219 83.373047">Regions of Error</tspan></text>
</g><g
           transform="matrix(0.75031054,0,0,0.75031054,0,266.03763)"
           id="g704"><text
             id="text708"
             style="font-variant:normal;font-weight:normal;font-size:12px;font-family:'Liberation Sans';-inkscape-font-specification:LiberationSans;writing-mode:lr-tb;fill:#444444;fill-opacity:1;fill-rule:nonzero;stroke:none"
             transform="translate(116.3125,4.1999998)"><tspan
               id="tspan706"
               y="0"
               x="0 8.6660156 15.339844 22.013672">None</tspan></text>
</g><g
           transform="matrix(0.75031054,0,0,0.75031054,0,226.18112)"
           id="g710"><text
             id="text714"
             style="font-variant:normal;font-weight:normal;font-size:12px;font-family:'Liberation Sans';-inkscape-font-specification:LiberationSans;writing-mode:lr-tb;fill:#444444;fill-opacity:1;fill-rule:nonzero;stroke:none"
             transform="translate(10.9375,4.1999998)"><tspan
               id="tspan712"
               y="0"
               x="0 8.0039062 14.677734 21.351562 28.025391 32.021484 38.021484 40.6875 46.6875 53.361328 60.035156 63.369141 72.035156 74.701172 81.375 87.375 93.375 96.041016 99.375 102.04102 108.04102 114.71484 118.04883 120.71484 127.38867">Supervised Classification</tspan></text>
</g><g
           transform="matrix(0.75031054,0,0,0.75031054,0,186.31712)"
           id="g716"><text
             id="text720"
             style="font-variant:normal;font-weight:normal;font-size:12px;font-family:'Liberation Sans';-inkscape-font-specification:LiberationSans;writing-mode:lr-tb;fill:#444444;fill-opacity:1;fill-rule:nonzero;stroke:none"
             transform="translate(-2.3984375,4.1999998)"><tspan
               id="tspan718"
               y="0"
               x="0 8.6660156 15.339844 21.339844 28.013672 34.6875 41.361328 45.357422 51.357422 54.023438 60.023438 66.697266 73.371094 76.705078 85.371094 88.037109 94.710938 100.71094 106.71094 109.37695 112.71094 115.37695 121.37695 128.05078 131.38477 134.05078 140.72461">Unsupervised Classification</tspan></text>
</g><g
           transform="matrix(0.75031054,0,0,0.75031054,0,146.46062)"
           id="g722"><text
             id="text726"
             style="font-variant:normal;font-weight:normal;font-size:12px;font-family:'Liberation Sans';-inkscape-font-specification:LiberationSans;writing-mode:lr-tb;fill:#444444;fill-opacity:1;fill-rule:nonzero;stroke:none"
             transform="translate(20.921875,4.1999998)"><tspan
               id="tspan724"
               y="0"
               x="0 8.0039062 14.677734 21.351562 28.025391 32.021484 38.021484 40.6875 46.6875 53.361328 60.035156 63.369141 71.373047 81.369141 88.042969 94.716797 101.39062 108.06445 110.73047 117.4043">Supervised Embedding</tspan></text>
</g><g
           transform="matrix(0.75031054,0,0,0.75031054,0,106.59663)"
           id="g728"><text
             id="text732"
             style="font-variant:normal;font-weight:normal;font-size:12px;font-family:'Liberation Sans';-inkscape-font-specification:LiberationSans;writing-mode:lr-tb;fill:#444444;fill-opacity:1;fill-rule:nonzero;stroke:none"
             transform="translate(7.5859375,4.1999998)"><tspan
               id="tspan730"
               y="0"
               x="0 8.6660156 15.339844 21.339844 28.013672 34.6875 41.361328 45.357422 51.357422 54.023438 60.023438 66.697266 73.371094 76.705078 84.708984 94.705078 101.37891 108.05273 114.72656 121.40039 124.06641 130.74023">Unsupervised Embedding</tspan></text>
</g><g
           transform="matrix(0.75031054,0,0,0.75031054,0,66.74012)"
           id="g734"><text
             id="text738"
             style="font-variant:normal;font-weight:normal;font-size:12px;font-family:'Liberation Sans';-inkscape-font-specification:LiberationSans;writing-mode:lr-tb;fill:#444444;fill-opacity:1;fill-rule:nonzero;stroke:none"
             transform="translate(10.9375,4.1999998)"><tspan
               id="tspan736"
               y="0"
               x="0 8.0039062 14.677734 21.351562 28.025391 32.021484 38.021484 40.6875 46.6875 53.361328 60.035156 63.369141 72.035156 74.701172 84.697266 88.693359 95.367188 102.04102 108.71484 114.71484 118.04883 120.71484 127.38867">Supervised Dimreduction</tspan></text>
</g></g></g></g></svg>