<?xml version="1.0" encoding="UTF-8" standalone="no"?>
<svg
   xmlns:dc="http://purl.org/dc/elements/1.1/"
   xmlns:cc="http://creativecommons.org/ns#"
   xmlns:rdf="http://www.w3.org/1999/02/22-rdf-syntax-ns#"
   xmlns:svg="http://www.w3.org/2000/svg"
   xmlns="http://www.w3.org/2000/svg"
   viewBox="0 0 805.33331 605.33331"
   height="605.33331"
   width="805.33331"
   xml:space="preserve"
   id="svg2"
   version="1.1"><metadata
     id="metadata8"><rdf:RDF><cc:Work
         rdf:about=""><dc:format>image/svg+xml</dc:format><dc:type
           rdf:resource="http://purl.org/dc/dcmitype/StillImage" /></cc:Work></rdf:RDF></metadata><defs
     id="defs6"><clipPath
       id="clipPath18"
       clipPathUnits="userSpaceOnUse"><path
         style="clip-rule:evenodd"
         id="path16"
         d="M 0,0 H 604 V 453.93787 H 0 Z" /></clipPath><clipPath
       id="clipPath30"
       clipPathUnits="userSpaceOnUse"><path
         style="clip-rule:evenodd"
         id="path28"
         d="M 0,0 H 600.24841 V 450.18631 H 0 Z" /></clipPath><clipPath
       id="clipPath104"
       clipPathUnits="userSpaceOnUse"><path
         style="clip-rule:evenodd"
         id="path102"
         d="M 562.73291,37.515526 H 112.54658 V 337.63974 h 450.18633 z" /></clipPath><clipPath
       id="clipPath112"
       clipPathUnits="userSpaceOnUse"><path
         id="path110"
         d="M 0,0 H 41 V 41 H 0 Z" /></clipPath><clipPath
       id="clipPath132"
       clipPathUnits="userSpaceOnUse"><path
         id="path130"
         d="M 0,0 H 17 V 17 H 0 Z" /></clipPath><clipPath
       id="clipPath152"
       clipPathUnits="userSpaceOnUse"><path
         id="path150"
         d="M 0,0 H 54 V 54 H 0 Z" /></clipPath><clipPath
       id="clipPath172"
       clipPathUnits="userSpaceOnUse"><path
         id="path170"
         d="M 0,0 H 17 V 17 H 0 Z" /></clipPath><clipPath
       id="clipPath192"
       clipPathUnits="userSpaceOnUse"><path
         id="path190"
         d="M 0,0 H 61 V 61 H 0 Z" /></clipPath><clipPath
       id="clipPath212"
       clipPathUnits="userSpaceOnUse"><path
         id="path210"
         d="M 0,0 H 31 V 31 H 0 Z" /></clipPath><clipPath
       id="clipPath232"
       clipPathUnits="userSpaceOnUse"><path
         id="path230"
         d="M 0,0 H 25 V 25 H 0 Z" /></clipPath><clipPath
       id="clipPath252"
       clipPathUnits="userSpaceOnUse"><path
         id="path250"
         d="M 0,0 H 122 V 122 H 0 Z" /></clipPath><clipPath
       id="clipPath272"
       clipPathUnits="userSpaceOnUse"><path
         id="path270"
         d="M 0,0 H 17 V 17 H 0 Z" /></clipPath><clipPath
       id="clipPath292"
       clipPathUnits="userSpaceOnUse"><path
         id="path290"
         d="M 0,0 H 36 V 36 H 0 Z" /></clipPath><clipPath
       id="clipPath312"
       clipPathUnits="userSpaceOnUse"><path
         id="path310"
         d="M 0,0 H 30 V 31 H 0 Z" /></clipPath><clipPath
       id="clipPath332"
       clipPathUnits="userSpaceOnUse"><path
         id="path330"
         d="M 0,0 H 17 V 17 H 0 Z" /></clipPath><clipPath
       id="clipPath402"
       clipPathUnits="userSpaceOnUse"><path
         style="clip-rule:evenodd"
         id="path400"
         d="M 0,0 H 600.24841 V 450.18631 H 0 Z" /></clipPath></defs><g
     transform="matrix(1.3333333,0,0,1.3333333,0,1.18e-5)"
     id="g10"><g
       id="g12"><g
         clip-path="url(#clipPath18)"
         id="g14"><g
           transform="scale(0.75031054)"
           id="g20"><path
             id="path22"
             style="fill:#ffffff;fill-opacity:1;fill-rule:nonzero;stroke:none"
             d="M 0,0 H 805 V 605 H 0 Z" /></g></g></g><g
       id="g24"><g
         clip-path="url(#clipPath30)"
         id="g26"><g
           transform="scale(0.75031054)"
           id="g32"><path
             id="path34"
             style="fill:#000000;fill-opacity:0;fill-rule:nonzero;stroke:none"
             d="M 0,0 H 800 V 600 H 0 Z" /><path
             id="path36"
             style="fill:#ffffff;fill-opacity:1;fill-rule:nonzero;stroke:none"
             d="M 146,46 H 754 V 454 H 146 Z" /></g><g
           transform="matrix(0.75031054,0,0,0.75031054,159.6886,0)"
           id="g38"><path
             id="path40"
             style="fill:#000000;fill-opacity:1;fill-rule:nonzero;stroke:none"
             d="M 0,50 V 450" /><path
             id="path42"
             style="fill:none;stroke:#eeeeee;stroke-width:1;stroke-linecap:butt;stroke-linejoin:miter;stroke-miterlimit:10;stroke-dasharray:none;stroke-opacity:1"
             d="M 0,50 V 450" /></g><g
           transform="matrix(0.75031054,0,0,0.75031054,221.5517,0)"
           id="g44"><path
             id="path46"
             style="fill:#000000;fill-opacity:1;fill-rule:nonzero;stroke:none"
             d="M 0,50 V 450" /><path
             id="path48"
             style="fill:none;stroke:#eeeeee;stroke-width:1;stroke-linecap:butt;stroke-linejoin:miter;stroke-miterlimit:10;stroke-dasharray:none;stroke-opacity:1"
             d="M 0,50 V 450" /></g><g
           transform="matrix(0.75031054,0,0,0.75031054,283.40729,0)"
           id="g50"><path
             id="path52"
             style="fill:#000000;fill-opacity:1;fill-rule:nonzero;stroke:none"
             d="M 0,50 V 450" /><path
             id="path54"
             style="fill:none;stroke:#eeeeee;stroke-width:1;stroke-linecap:butt;stroke-linejoin:miter;stroke-miterlimit:10;stroke-dasharray:none;stroke-opacity:1"
             d="M 0,50 V 450" /></g><g
           transform="matrix(0.75031054,0,0,0.75031054,345.27042,0)"
           id="g56"><path
             id="path58"
             style="fill:#000000;fill-opacity:1;fill-rule:nonzero;stroke:none"
             d="M 0,50 V 450" /><path
             id="path60"
             style="fill:none;stroke:#eeeeee;stroke-width:1;stroke-linecap:butt;stroke-linejoin:miter;stroke-miterlimit:10;stroke-dasharray:none;stroke-opacity:1"
             d="M 0,50 V 450" /></g><g
           transform="matrix(0.75031054,0,0,0.75031054,407.12598,0)"
           id="g62"><path
             id="path64"
             style="fill:#000000;fill-opacity:1;fill-rule:nonzero;stroke:none"
             d="M 0,50 V 450" /><path
             id="path66"
             style="fill:none;stroke:#eeeeee;stroke-width:1;stroke-linecap:butt;stroke-linejoin:miter;stroke-miterlimit:10;stroke-dasharray:none;stroke-opacity:1"
             d="M 0,50 V 450" /></g><g
           transform="matrix(0.75031054,0,0,0.75031054,468.98911,0)"
           id="g68"><path
             id="path70"
             style="fill:#000000;fill-opacity:1;fill-rule:nonzero;stroke:none"
             d="M 0,50 V 450" /><path
             id="path72"
             style="fill:none;stroke:#eeeeee;stroke-width:1;stroke-linecap:butt;stroke-linejoin:miter;stroke-miterlimit:10;stroke-dasharray:none;stroke-opacity:1"
             d="M 0,50 V 450" /></g><g
           transform="matrix(0.75031054,0,0,0.75031054,530.84473,0)"
           id="g74"><path
             id="path76"
             style="fill:#000000;fill-opacity:1;fill-rule:nonzero;stroke:none"
             d="M 0,50 V 450" /><path
             id="path78"
             style="fill:none;stroke:#eeeeee;stroke-width:1;stroke-linecap:butt;stroke-linejoin:miter;stroke-miterlimit:10;stroke-dasharray:none;stroke-opacity:1"
             d="M 0,50 V 450" /></g><g
           transform="matrix(0.75031054,0,0,0.75031054,0,247.60248)"
           id="g80"><path
             id="path82"
             style="fill:#000000;fill-opacity:1;fill-rule:nonzero;stroke:none"
             d="M 150,0 H 750" /><path
             id="path84"
             style="fill:none;stroke:#eeeeee;stroke-width:1;stroke-linecap:butt;stroke-linejoin:miter;stroke-miterlimit:10;stroke-dasharray:none;stroke-opacity:1"
             d="M 150,0 H 750" /></g><g
           transform="matrix(0.75031054,0,0,0.75031054,0,160.83656)"
           id="g86"><path
             id="path88"
             style="fill:#000000;fill-opacity:1;fill-rule:nonzero;stroke:none"
             d="M 150,0 H 750" /><path
             id="path90"
             style="fill:none;stroke:#eeeeee;stroke-width:1;stroke-linecap:butt;stroke-linejoin:miter;stroke-miterlimit:10;stroke-dasharray:none;stroke-opacity:1"
             d="M 150,0 H 750" /></g><g
           transform="matrix(0.75031054,0,0,0.75031054,0,74.070656)"
           id="g92"><path
             id="path94"
             style="fill:#000000;fill-opacity:1;fill-rule:nonzero;stroke:none"
             d="M 150,0 H 750" /><path
             id="path96"
             style="fill:none;stroke:#eeeeee;stroke-width:1;stroke-linecap:butt;stroke-linejoin:miter;stroke-miterlimit:10;stroke-dasharray:none;stroke-opacity:1"
             d="M 150,0 H 750" /></g></g></g><g
       id="g98"><g
         clip-path="url(#clipPath104)"
         id="g100"><g
           transform="translate(139,227)"
           id="g106"><g
             id="g108" /><g
             id="g124"
             transform="matrix(1,0,0,-1,0,41)"><g
               style="opacity:0.69803922"
               id="g122"
               clip-path="url(#clipPath112)"><g
                 id="g120"
                 transform="matrix(1,0,0,-1,0,41)"><g
                   id="g118"
                   transform="matrix(0.75031054,0,0,0.75031054,20.688599,20.602478)"><path
                     id="path114"
                     style="fill:#1f77b4;fill-opacity:1;fill-rule:nonzero;stroke:none"
                     d="m 26.27,0 c -1e-6,3.4836185 -0.666564,6.8346496 -1.999689,10.053094 -1.333122,3.218443 -3.231327,6.05931 -5.694616,8.522601 -2.463291,2.463289 -5.304158,4.361494 -8.522601,5.694616 C 6.8346496,25.603436 3.4836185,26.269999 0,26.27 c -3.4836185,-1e-6 -6.8346496,-0.666564 -10.053094,-1.999689 -3.218443,-1.333122 -6.05931,-3.231327 -8.522601,-5.694616 -2.463289,-2.463291 -4.361494,-5.304158 -5.694616,-8.522601 C -25.603436,6.8346496 -26.269999,3.4836185 -26.27,0 c 1e-6,-3.4836185 0.666564,-6.8346496 1.999689,-10.053094 1.333122,-3.218443 3.231327,-6.05931 5.694616,-8.522601 2.463291,-2.463289 5.304158,-4.361494 8.522601,-5.694616 C -6.8346496,-25.603436 -3.4836185,-26.269999 0,-26.27 c 3.4836185,1e-6 6.8346496,0.666564 10.053094,1.999689 3.218443,1.333122 6.05931,3.231327 8.522601,5.694616 2.463289,2.463291 4.361494,5.304158 5.694616,8.522601 C 25.603436,-6.8346496 26.269999,-3.4836185 26.27,0 Z" /><path
                     id="path116"
                     style="fill:none;stroke:#ffffff;stroke-width:1;stroke-linecap:butt;stroke-linejoin:miter;stroke-miterlimit:10;stroke-dasharray:none;stroke-opacity:1"
                     d="m 26.27,0 c -1e-6,3.4836185 -0.666564,6.8346496 -1.999689,10.053094 -1.333122,3.218443 -3.231327,6.05931 -5.694616,8.522601 -2.463291,2.463289 -5.304158,4.361494 -8.522601,5.694616 C 6.8346496,25.603436 3.4836185,26.269999 0,26.27 c -3.4836185,-1e-6 -6.8346496,-0.666564 -10.053094,-1.999689 -3.218443,-1.333122 -6.05931,-3.231327 -8.522601,-5.694616 -2.463289,-2.463291 -4.361494,-5.304158 -5.694616,-8.522601 C -25.603436,6.8346496 -26.269999,3.4836185 -26.27,0 c 1e-6,-3.4836185 0.666564,-6.8346496 1.999689,-10.053094 1.333122,-3.218443 3.231327,-6.05931 5.694616,-8.522601 2.463291,-2.463289 5.304158,-4.361494 8.522601,-5.694616 C -6.8346496,-25.603436 -3.4836185,-26.269999 0,-26.27 c 3.4836185,1e-6 6.8346496,0.666564 10.053094,1.999689 3.218443,1.333122 6.05931,3.231327 8.522601,5.694616 2.463289,2.463291 4.361494,5.304158 5.694616,8.522601 C 25.603436,-6.8346496 26.269999,-3.4836185 26.27,0 Z" /></g></g></g></g></g><g
           transform="translate(151,152)"
           id="g126"><g
             id="g128" /><g
             id="g144"
             transform="matrix(1,0,0,-1,0,17)"><g
               style="opacity:0.69803922"
               id="g142"
               clip-path="url(#clipPath132)"><g
                 id="g140"
                 transform="matrix(1,0,0,-1,0,17)"><g
                   id="g138"
                   transform="matrix(0.75031054,0,0,0.75031054,8.6885986,8.8365631)"><path
                     id="path134"
                     style="fill:#1f77b4;fill-opacity:1;fill-rule:nonzero;stroke:none"
                     d="M 10,0 C 9.999999,2.7614236 9.0236883,5.1184459 7.0710673,7.0710673 5.1184459,9.0236883 2.7614236,9.999999 0,10 -2.7614236,9.999999 -5.1184459,9.0236883 -7.0710673,7.0710673 -9.0236883,5.1184459 -9.999999,2.7614236 -10,0 c 10e-7,-2.7614236 0.9763117,-5.1184459 2.9289327,-7.0710673 C -5.1184459,-9.0236883 -2.7614236,-9.999999 0,-10 c 2.7614236,10e-7 5.1184459,0.9763117 7.0710673,2.9289327 C 9.0236883,-5.1184459 9.999999,-2.7614236 10,0 Z" /><path
                     id="path136"
                     style="fill:none;stroke:#ffffff;stroke-width:1;stroke-linecap:butt;stroke-linejoin:miter;stroke-miterlimit:10;stroke-dasharray:none;stroke-opacity:1"
                     d="M 10,0 C 9.999999,2.7614236 9.0236883,5.1184459 7.0710673,7.0710673 5.1184459,9.0236883 2.7614236,9.999999 0,10 -2.7614236,9.999999 -5.1184459,9.0236883 -7.0710673,7.0710673 -9.0236883,5.1184459 -9.999999,2.7614236 -10,0 c 10e-7,-2.7614236 0.9763117,-5.1184459 2.9289327,-7.0710673 C -5.1184459,-9.0236883 -2.7614236,-9.999999 0,-10 c 2.7614236,10e-7 5.1184459,0.9763117 7.0710673,2.9289327 C 9.0236883,-5.1184459 9.999999,-2.7614236 10,0 Z" /></g></g></g></g></g><g
           transform="translate(195,221)"
           id="g146"><g
             id="g148" /><g
             id="g164"
             transform="matrix(1,0,0,-1,0,54)"><g
               style="opacity:0.69803922"
               id="g162"
               clip-path="url(#clipPath152)"><g
                 id="g160"
                 transform="matrix(1,0,0,-1,0,54)"><g
                   id="g158"
                   transform="matrix(0.75031054,0,0,0.75031054,26.551697,26.602478)"><path
                     id="path154"
                     style="fill:#1f77b4;fill-opacity:1;fill-rule:nonzero;stroke:none"
                     d="m 34.82,0 c -4e-6,4.6174188 -0.883507,9.0590973 -2.650517,13.325035 -1.76701,4.26594 -4.283018,8.031412 -7.548027,11.296421 -3.265009,3.265009 -7.030481,5.781017 -11.296421,7.548027 C 9.0590973,33.936493 4.6174188,34.819996 0,34.82 c -4.6174188,-4e-6 -9.0590973,-0.883507 -13.325035,-2.650517 -4.26594,-1.76701 -8.031412,-4.283018 -11.296421,-7.548027 -3.265009,-3.265009 -5.781017,-7.030481 -7.548027,-11.296421 C -33.936493,9.0590973 -34.819996,4.6174188 -34.82,0 c 4e-6,-4.6174188 0.883507,-9.0590973 2.650517,-13.325035 1.76701,-4.26594 4.283018,-8.031412 7.548027,-11.296421 3.265009,-3.265009 7.030481,-5.781017 11.296421,-7.548027 C -9.0590973,-33.936493 -4.6174188,-34.819996 0,-34.82 c 4.6174188,4e-6 9.0590973,0.883507 13.325035,2.650517 4.26594,1.76701 8.031412,4.283018 11.296421,7.548027 3.265009,3.265009 5.781017,7.030481 7.548027,11.296421 C 33.936493,-9.0590973 34.819996,-4.6174188 34.82,0 Z" /><path
                     id="path156"
                     style="fill:none;stroke:#ffffff;stroke-width:1;stroke-linecap:butt;stroke-linejoin:miter;stroke-miterlimit:10;stroke-dasharray:none;stroke-opacity:1"
                     d="m 34.82,0 c -4e-6,4.6174188 -0.883507,9.0590973 -2.650517,13.325035 -1.76701,4.26594 -4.283018,8.031412 -7.548027,11.296421 -3.265009,3.265009 -7.030481,5.781017 -11.296421,7.548027 C 9.0590973,33.936493 4.6174188,34.819996 0,34.82 c -4.6174188,-4e-6 -9.0590973,-0.883507 -13.325035,-2.650517 -4.26594,-1.76701 -8.031412,-4.283018 -11.296421,-7.548027 -3.265009,-3.265009 -5.781017,-7.030481 -7.548027,-11.296421 C -33.936493,9.0590973 -34.819996,4.6174188 -34.82,0 c 4e-6,-4.6174188 0.883507,-9.0590973 2.650517,-13.325035 1.76701,-4.26594 4.283018,-8.031412 7.548027,-11.296421 3.265009,-3.265009 7.030481,-5.781017 11.296421,-7.548027 C -9.0590973,-33.936493 -4.6174188,-34.819996 0,-34.82 c 4.6174188,4e-6 9.0590973,0.883507 13.325035,2.650517 4.26594,1.76701 8.031412,4.283018 11.296421,7.548027 3.265009,3.265009 5.781017,7.030481 7.548027,11.296421 C 33.936493,-9.0590973 34.819996,-4.6174188 34.82,0 Z" /></g></g></g></g></g><g
           transform="translate(213,152)"
           id="g166"><g
             id="g168" /><g
             id="g184"
             transform="matrix(1,0,0,-1,0,17)"><g
               style="opacity:0.69803922"
               id="g182"
               clip-path="url(#clipPath172)"><g
                 id="g180"
                 transform="matrix(1,0,0,-1,0,17)"><g
                   id="g178"
                   transform="matrix(0.75031054,0,0,0.75031054,8.5516968,8.8365631)"><path
                     id="path174"
                     style="fill:#1f77b4;fill-opacity:1;fill-rule:nonzero;stroke:none"
                     d="M 10,0 C 9.999999,2.7614236 9.0236883,5.1184459 7.0710673,7.0710673 5.1184459,9.0236883 2.7614236,9.999999 0,10 -2.7614236,9.999999 -5.1184459,9.0236883 -7.0710673,7.0710673 -9.0236883,5.1184459 -9.999999,2.7614236 -10,0 c 10e-7,-2.7614236 0.9763117,-5.1184459 2.9289327,-7.0710673 C -5.1184459,-9.0236883 -2.7614236,-9.999999 0,-10 c 2.7614236,10e-7 5.1184459,0.9763117 7.0710673,2.9289327 C 9.0236883,-5.1184459 9.999999,-2.7614236 10,0 Z" /><path
                     id="path176"
                     style="fill:none;stroke:#ffffff;stroke-width:1;stroke-linecap:butt;stroke-linejoin:miter;stroke-miterlimit:10;stroke-dasharray:none;stroke-opacity:1"
                     d="M 10,0 C 9.999999,2.7614236 9.0236883,5.1184459 7.0710673,7.0710673 5.1184459,9.0236883 2.7614236,9.999999 0,10 -2.7614236,9.999999 -5.1184459,9.0236883 -7.0710673,7.0710673 -9.0236883,5.1184459 -9.999999,2.7614236 -10,0 c 10e-7,-2.7614236 0.9763117,-5.1184459 2.9289327,-7.0710673 C -5.1184459,-9.0236883 -2.7614236,-9.999999 0,-10 c 2.7614236,10e-7 5.1184459,0.9763117 7.0710673,2.9289327 C 9.0236883,-5.1184459 9.999999,-2.7614236 10,0 Z" /></g></g></g></g></g><g
           transform="translate(253,217)"
           id="g186"><g
             id="g188" /><g
             id="g204"
             transform="matrix(1,0,0,-1,0,61)"><g
               style="opacity:0.69803922"
               id="g202"
               clip-path="url(#clipPath192)"><g
                 id="g200"
                 transform="matrix(1,0,0,-1,0,61)"><g
                   id="g198"
                   transform="matrix(0.75031054,0,0,0.75031054,30.407288,30.602478)"><path
                     id="path194"
                     style="fill:#1f77b4;fill-opacity:1;fill-rule:nonzero;stroke:none"
                     d="m 39.810001,0 c -3e-6,5.2791338 -1.010124,10.357343 -3.030361,15.234627 -2.020237,4.877285 -4.896808,9.182382 -8.629719,12.915294 -3.732912,3.732911 -8.038009,6.609482 -12.915294,8.629719 C 10.357343,38.799877 5.2791338,39.809998 0,39.810001 c -5.2791338,-3e-6 -10.357343,-1.010124 -15.234627,-3.030361 -4.877285,-2.020237 -9.182382,-4.896808 -12.915294,-8.629719 -3.732911,-3.732912 -6.609482,-8.038009 -8.629719,-12.915294 C -38.799877,10.357343 -39.809998,5.2791338 -39.810001,0 c 3e-6,-5.2791338 1.010124,-10.357343 3.030361,-15.234627 2.020237,-4.877285 4.896808,-9.182382 8.629719,-12.915294 3.732912,-3.732911 8.038009,-6.609482 12.915294,-8.629719 4.877284,-2.020237 9.9554932,-3.030358 15.234627,-3.030361 5.2791338,3e-6 10.357343,1.010124 15.234627,3.030361 4.877285,2.020237 9.182382,4.896808 12.915294,8.629719 3.732911,3.732912 6.609482,8.038009 8.629719,12.915294 2.020237,4.877284 3.030358,9.9554932 3.030361,15.234627 z" /><path
                     id="path196"
                     style="fill:none;stroke:#ffffff;stroke-width:1;stroke-linecap:butt;stroke-linejoin:miter;stroke-miterlimit:10;stroke-dasharray:none;stroke-opacity:1"
                     d="m 39.810001,0 c -3e-6,5.2791338 -1.010124,10.357343 -3.030361,15.234627 -2.020237,4.877285 -4.896808,9.182382 -8.629719,12.915294 -3.732912,3.732911 -8.038009,6.609482 -12.915294,8.629719 C 10.357343,38.799877 5.2791338,39.809998 0,39.810001 c -5.2791338,-3e-6 -10.357343,-1.010124 -15.234627,-3.030361 -4.877285,-2.020237 -9.182382,-4.896808 -12.915294,-8.629719 -3.732911,-3.732912 -6.609482,-8.038009 -8.629719,-12.915294 C -38.799877,10.357343 -39.809998,5.2791338 -39.810001,0 c 3e-6,-5.2791338 1.010124,-10.357343 3.030361,-15.234627 2.020237,-4.877285 4.896808,-9.182382 8.629719,-12.915294 3.732912,-3.732911 8.038009,-6.609482 12.915294,-8.629719 4.877284,-2.020237 9.9554932,-3.030358 15.234627,-3.030361 5.2791338,3e-6 10.357343,1.010124 15.234627,3.030361 4.877285,2.020237 9.182382,4.896808 12.915294,8.629719 3.732911,3.732912 6.609482,8.038009 8.629719,12.915294 2.020237,4.877284 3.030358,9.9554932 3.030361,15.234627 z" /></g></g></g></g></g><g
           transform="translate(268,145)"
           id="g206"><g
             id="g208" /><g
             id="g224"
             transform="matrix(1,0,0,-1,0,31)"><g
               style="opacity:0.69803922"
               id="g222"
               clip-path="url(#clipPath212)"><g
                 id="g220"
                 transform="matrix(1,0,0,-1,0,31)"><g
                   id="g218"
                   transform="matrix(0.75031054,0,0,0.75031054,15.407288,15.836563)"><path
                     id="path214"
                     style="fill:#1f77b4;fill-opacity:1;fill-rule:nonzero;stroke:none"
                     d="m 19.33,0 c 0,5.3378315 -1.887209,9.8939552 -5.661627,13.668373 C 9.8939552,17.442791 5.3378315,19.33 0,19.33 -5.3378315,19.33 -9.8939552,17.442791 -13.668373,13.668373 -17.442791,9.8939552 -19.33,5.3378315 -19.33,0 c 0,-5.3378315 1.887209,-9.8939552 5.661627,-13.668373 C -9.8939552,-17.442791 -5.3378315,-19.33 0,-19.33 c 5.3378315,0 9.8939552,1.887209 13.668373,5.661627 C 17.442791,-9.8939552 19.33,-5.3378315 19.33,0 Z" /><path
                     id="path216"
                     style="fill:none;stroke:#ffffff;stroke-width:1;stroke-linecap:butt;stroke-linejoin:miter;stroke-miterlimit:10;stroke-dasharray:none;stroke-opacity:1"
                     d="m 19.33,0 c 0,5.3378315 -1.887209,9.8939552 -5.661627,13.668373 C 9.8939552,17.442791 5.3378315,19.33 0,19.33 -5.3378315,19.33 -9.8939552,17.442791 -13.668373,13.668373 -17.442791,9.8939552 -19.33,5.3378315 -19.33,0 c 0,-5.3378315 1.887209,-9.8939552 5.661627,-13.668373 C -9.8939552,-17.442791 -5.3378315,-19.33 0,-19.33 c 5.3378315,0 9.8939552,1.887209 13.668373,5.661627 C 17.442791,-9.8939552 19.33,-5.3378315 19.33,0 Z" /></g></g></g></g></g><g
           transform="translate(333,235)"
           id="g226"><g
             id="g228" /><g
             id="g244"
             transform="matrix(1,0,0,-1,0,25)"><g
               style="opacity:0.69803922"
               id="g242"
               clip-path="url(#clipPath232)"><g
                 id="g240"
                 transform="matrix(1,0,0,-1,0,25)"><g
                   id="g238"
                   transform="matrix(0.75031054,0,0,0.75031054,12.270416,12.602478)"><path
                     id="path234"
                     style="fill:#1f77b4;fill-opacity:1;fill-rule:nonzero;stroke:none"
                     d="m 15.16,0 c -1e-6,4.1863184 -1.480087,7.7595644 -4.440261,10.719739 C 7.7595644,13.679913 4.1863184,15.159999 0,15.16 -4.1863184,15.159999 -7.7595644,13.679913 -10.719739,10.719739 -13.679913,7.7595644 -15.159999,4.1863184 -15.16,0 c 1e-6,-4.1863184 1.480087,-7.7595644 4.440261,-10.719739 C -7.7595644,-13.679913 -4.1863184,-15.159999 0,-15.16 c 4.1863184,1e-6 7.7595644,1.480087 10.719739,4.440261 C 13.679913,-7.7595644 15.159999,-4.1863184 15.16,0 Z" /><path
                     id="path236"
                     style="fill:none;stroke:#ffffff;stroke-width:1;stroke-linecap:butt;stroke-linejoin:miter;stroke-miterlimit:10;stroke-dasharray:none;stroke-opacity:1"
                     d="m 15.16,0 c -1e-6,4.1863184 -1.480087,7.7595644 -4.440261,10.719739 C 7.7595644,13.679913 4.1863184,15.159999 0,15.16 -4.1863184,15.159999 -7.7595644,13.679913 -10.719739,10.719739 -13.679913,7.7595644 -15.159999,4.1863184 -15.16,0 c 1e-6,-4.1863184 1.480087,-7.7595644 4.440261,-10.719739 C -7.7595644,-13.679913 -4.1863184,-15.159999 0,-15.16 c 4.1863184,1e-6 7.7595644,1.480087 10.719739,4.440261 C 13.679913,-7.7595644 15.159999,-4.1863184 15.16,0 Z" /></g></g></g></g></g><g
           transform="translate(346,187)"
           id="g246"><g
             id="g248" /><g
             id="g264"
             transform="matrix(1,0,0,-1,0,122)"><g
               style="opacity:0.69803922"
               id="g262"
               clip-path="url(#clipPath252)"><g
                 id="g260"
                 transform="matrix(1,0,0,-1,0,122)"><g
                   id="g258"
                   transform="matrix(0.75031054,0,0,0.75031054,61.125977,60.602478)"><path
                     id="path254"
                     style="fill:#1f77b4;fill-opacity:1;fill-rule:nonzero;stroke:none"
                     d="m 80,0 c -8e-6,10.608658 -2.029884,20.813547 -6.089645,30.61467 C 69.850594,40.415794 64.069992,49.067081 56.568539,56.568539 49.067081,64.069992 40.415794,69.850594 30.61467,73.910355 20.813547,77.970116 10.608658,79.999992 0,80 -10.608658,79.999992 -20.813547,77.970116 -30.61467,73.910355 -40.415794,69.850594 -49.067081,64.069992 -56.568539,56.568539 -64.069992,49.067081 -69.850594,40.415794 -73.910355,30.61467 -77.970116,20.813547 -79.999992,10.608658 -80,0 c 8e-6,-10.608658 2.029884,-20.813547 6.089645,-30.61467 4.059761,-9.801124 9.840363,-18.452411 17.341816,-25.953869 7.501458,-7.501453 16.152745,-13.282055 25.953869,-17.341816 C -20.813547,-77.970116 -10.608658,-79.999992 0,-80 c 10.608658,8e-6 20.813547,2.029884 30.61467,6.089645 9.801124,4.059761 18.452411,9.840363 25.953869,17.341816 7.501453,7.501458 13.282055,16.152745 17.341816,25.953869 C 77.970116,-20.813547 79.999992,-10.608658 80,0 Z" /><path
                     id="path256"
                     style="fill:none;stroke:#ffffff;stroke-width:1;stroke-linecap:butt;stroke-linejoin:miter;stroke-miterlimit:10;stroke-dasharray:none;stroke-opacity:1"
                     d="m 80,0 c -8e-6,10.608658 -2.029884,20.813547 -6.089645,30.61467 C 69.850594,40.415794 64.069992,49.067081 56.568539,56.568539 49.067081,64.069992 40.415794,69.850594 30.61467,73.910355 20.813547,77.970116 10.608658,79.999992 0,80 -10.608658,79.999992 -20.813547,77.970116 -30.61467,73.910355 -40.415794,69.850594 -49.067081,64.069992 -56.568539,56.568539 -64.069992,49.067081 -69.850594,40.415794 -73.910355,30.61467 -77.970116,20.813547 -79.999992,10.608658 -80,0 c 8e-6,-10.608658 2.029884,-20.813547 6.089645,-30.61467 4.059761,-9.801124 9.840363,-18.452411 17.341816,-25.953869 7.501458,-7.501453 16.152745,-13.282055 25.953869,-17.341816 C -20.813547,-77.970116 -10.608658,-79.999992 0,-80 c 10.608658,8e-6 20.813547,2.029884 30.61467,6.089645 9.801124,4.059761 18.452411,9.840363 25.953869,17.341816 7.501453,7.501458 13.282055,16.152745 17.341816,25.953869 C 77.970116,-20.813547 79.999992,-10.608658 80,0 Z" /></g></g></g></g></g><g
           transform="translate(399,152)"
           id="g266"><g
             id="g268" /><g
             id="g284"
             transform="matrix(1,0,0,-1,0,17)"><g
               style="opacity:0.69803922"
               id="g282"
               clip-path="url(#clipPath272)"><g
                 id="g280"
                 transform="matrix(1,0,0,-1,0,17)"><g
                   id="g278"
                   transform="matrix(0.75031054,0,0,0.75031054,8.1259766,8.8365631)"><path
                     id="path274"
                     style="fill:#1f77b4;fill-opacity:1;fill-rule:nonzero;stroke:none"
                     d="M 10,0 C 9.999999,2.7614236 9.0236883,5.1184459 7.0710673,7.0710673 5.1184459,9.0236883 2.7614236,9.999999 0,10 -2.7614236,9.999999 -5.1184459,9.0236883 -7.0710673,7.0710673 -9.0236883,5.1184459 -9.999999,2.7614236 -10,0 c 10e-7,-2.7614236 0.9763117,-5.1184459 2.9289327,-7.0710673 C -5.1184459,-9.0236883 -2.7614236,-9.999999 0,-10 c 2.7614236,10e-7 5.1184459,0.9763117 7.0710673,2.9289327 C 9.0236883,-5.1184459 9.999999,-2.7614236 10,0 Z" /><path
                     id="path276"
                     style="fill:none;stroke:#ffffff;stroke-width:1;stroke-linecap:butt;stroke-linejoin:miter;stroke-miterlimit:10;stroke-dasharray:none;stroke-opacity:1"
                     d="M 10,0 C 9.999999,2.7614236 9.0236883,5.1184459 7.0710673,7.0710673 5.1184459,9.0236883 2.7614236,9.999999 0,10 -2.7614236,9.999999 -5.1184459,9.0236883 -7.0710673,7.0710673 -9.0236883,5.1184459 -9.999999,2.7614236 -10,0 c 10e-7,-2.7614236 0.9763117,-5.1184459 2.9289327,-7.0710673 C -5.1184459,-9.0236883 -2.7614236,-9.999999 0,-10 c 2.7614236,10e-7 5.1184459,0.9763117 7.0710673,2.9289327 C 9.0236883,-5.1184459 9.999999,-2.7614236 10,0 Z" /></g></g></g></g></g><g
           transform="translate(389,56)"
           id="g286"><g
             id="g288" /><g
             id="g304"
             transform="matrix(1,0,0,-1,0,36)"><g
               style="opacity:0.69803922"
               id="g302"
               clip-path="url(#clipPath292)"><g
                 id="g300"
                 transform="matrix(1,0,0,-1,0,36)"><g
                   id="g298"
                   transform="matrix(0.75031054,0,0,0.75031054,18.125977,18.070656)"><path
                     id="path294"
                     style="fill:#1f77b4;fill-opacity:1;fill-rule:nonzero;stroke:none"
                     d="m 22.969999,0 c -2e-6,3.046011 -0.58283,5.9760895 -1.748489,8.7902365 -1.165659,2.8141465 -2.825415,5.2981485 -4.979269,7.4520045 -2.153856,2.153854 -4.637858,3.81361 -7.4520045,4.979269 C 5.9760895,22.387169 3.046011,22.969997 0,22.969999 c -3.046011,-2e-6 -5.9760895,-0.58283 -8.7902365,-1.748489 -2.8141465,-1.165659 -5.2981485,-2.825415 -7.4520045,-4.979269 -2.153854,-2.153856 -3.81361,-4.637858 -4.979269,-7.4520045 C -22.387169,5.9760895 -22.969997,3.046011 -22.969999,0 c 2e-6,-3.046011 0.58283,-5.9760895 1.748489,-8.7902365 1.165659,-2.8141465 2.825415,-5.2981485 4.979269,-7.4520045 2.153856,-2.153854 4.637858,-3.81361 7.4520045,-4.979269 2.814147,-1.165659 5.7442255,-1.748487 8.7902365,-1.748489 3.046011,2e-6 5.9760895,0.58283 8.7902365,1.748489 2.8141465,1.165659 5.2981485,2.825415 7.4520045,4.979269 2.153854,2.153856 3.81361,4.637858 4.979269,7.4520045 C 22.387169,-5.9760895 22.969997,-3.046011 22.969999,0 Z" /><path
                     id="path296"
                     style="fill:none;stroke:#ffffff;stroke-width:1;stroke-linecap:butt;stroke-linejoin:miter;stroke-miterlimit:10;stroke-dasharray:none;stroke-opacity:1"
                     d="m 22.969999,0 c -2e-6,3.046011 -0.58283,5.9760895 -1.748489,8.7902365 -1.165659,2.8141465 -2.825415,5.2981485 -4.979269,7.4520045 -2.153856,2.153854 -4.637858,3.81361 -7.4520045,4.979269 C 5.9760895,22.387169 3.046011,22.969997 0,22.969999 c -3.046011,-2e-6 -5.9760895,-0.58283 -8.7902365,-1.748489 -2.8141465,-1.165659 -5.2981485,-2.825415 -7.4520045,-4.979269 -2.153854,-2.153856 -3.81361,-4.637858 -4.979269,-7.4520045 C -22.387169,5.9760895 -22.969997,3.046011 -22.969999,0 c 2e-6,-3.046011 0.58283,-5.9760895 1.748489,-8.7902365 1.165659,-2.8141465 2.825415,-5.2981485 4.979269,-7.4520045 2.153856,-2.153854 4.637858,-3.81361 7.4520045,-4.979269 2.814147,-1.165659 5.7442255,-1.748487 8.7902365,-1.748489 3.046011,2e-6 5.9760895,0.58283 8.7902365,1.748489 2.8141465,1.165659 5.2981485,2.825415 7.4520045,4.979269 2.153854,2.153856 3.81361,4.637858 4.979269,7.4520045 C 22.387169,-5.9760895 22.969997,-3.046011 22.969999,0 Z" /></g></g></g></g></g><g
           transform="translate(454,232)"
           id="g306"><g
             id="g308" /><g
             id="g324"
             transform="matrix(1,0,0,-1,0,31)"><g
               style="opacity:0.69803922"
               id="g322"
               clip-path="url(#clipPath312)"><g
                 id="g320"
                 transform="matrix(1,0,0,-1,0,31)"><g
                   id="g318"
                   transform="matrix(0.75031054,0,0,0.75031054,14.989105,15.602478)"><path
                     id="path314"
                     style="fill:#1f77b4;fill-opacity:1;fill-rule:nonzero;stroke:none"
                     d="m 19.33,0 c 0,5.3378315 -1.887209,9.8939552 -5.661627,13.668373 C 9.8939552,17.442791 5.3378315,19.33 0,19.33 -5.3378315,19.33 -9.8939552,17.442791 -13.668373,13.668373 -17.442791,9.8939552 -19.33,5.3378315 -19.33,0 c 0,-5.3378315 1.887209,-9.8939552 5.661627,-13.668373 C -9.8939552,-17.442791 -5.3378315,-19.33 0,-19.33 c 5.3378315,0 9.8939552,1.887209 13.668373,5.661627 C 17.442791,-9.8939552 19.33,-5.3378315 19.33,0 Z" /><path
                     id="path316"
                     style="fill:none;stroke:#ffffff;stroke-width:1;stroke-linecap:butt;stroke-linejoin:miter;stroke-miterlimit:10;stroke-dasharray:none;stroke-opacity:1"
                     d="m 19.33,0 c 0,5.3378315 -1.887209,9.8939552 -5.661627,13.668373 C 9.8939552,17.442791 5.3378315,19.33 0,19.33 -5.3378315,19.33 -9.8939552,17.442791 -13.668373,13.668373 -17.442791,9.8939552 -19.33,5.3378315 -19.33,0 c 0,-5.3378315 1.887209,-9.8939552 5.661627,-13.668373 C -9.8939552,-17.442791 -5.3378315,-19.33 0,-19.33 c 5.3378315,0 9.8939552,1.887209 13.668373,5.661627 C 17.442791,-9.8939552 19.33,-5.3378315 19.33,0 Z" /></g></g></g></g></g><g
           transform="translate(522,239)"
           id="g326"><g
             id="g328" /><g
             id="g344"
             transform="matrix(1,0,0,-1,0,17)"><g
               style="opacity:0.69803922"
               id="g342"
               clip-path="url(#clipPath332)"><g
                 id="g340"
                 transform="matrix(1,0,0,-1,0,17)"><g
                   id="g338"
                   transform="matrix(0.75031054,0,0,0.75031054,8.8447266,8.602478)"><path
                     id="path334"
                     style="fill:#1f77b4;fill-opacity:1;fill-rule:nonzero;stroke:none"
                     d="M 10,0 C 9.999999,2.7614236 9.0236883,5.1184459 7.0710673,7.0710673 5.1184459,9.0236883 2.7614236,9.999999 0,10 -2.7614236,9.999999 -5.1184459,9.0236883 -7.0710673,7.0710673 -9.0236883,5.1184459 -9.999999,2.7614236 -10,0 c 10e-7,-2.7614236 0.9763117,-5.1184459 2.9289327,-7.0710673 C -5.1184459,-9.0236883 -2.7614236,-9.999999 0,-10 c 2.7614236,10e-7 5.1184459,0.9763117 7.0710673,2.9289327 C 9.0236883,-5.1184459 9.999999,-2.7614236 10,0 Z" /><path
                     id="path336"
                     style="fill:none;stroke:#ffffff;stroke-width:1;stroke-linecap:butt;stroke-linejoin:miter;stroke-miterlimit:10;stroke-dasharray:none;stroke-opacity:1"
                     d="M 10,0 C 9.999999,2.7614236 9.0236883,5.1184459 7.0710673,7.0710673 5.1184459,9.0236883 2.7614236,9.999999 0,10 -2.7614236,9.999999 -5.1184459,9.0236883 -7.0710673,7.0710673 -9.0236883,5.1184459 -9.999999,2.7614236 -10,0 c 10e-7,-2.7614236 0.9763117,-5.1184459 2.9289327,-7.0710673 C -5.1184459,-9.0236883 -2.7614236,-9.999999 0,-10 c 2.7614236,10e-7 5.1184459,0.9763117 7.0710673,2.9289327 C 9.0236883,-5.1184459 9.999999,-2.7614236 10,0 Z" /></g></g></g></g></g><g
           transform="matrix(0.75031054,0,0,0.75031054,112.54658,39.766457)"
           id="g346"><text
             id="text350"
             style="font-variant:normal;font-weight:normal;font-size:12px;font-family:'Liberation Sans';-inkscape-font-specification:LiberationSans;writing-mode:lr-tb;fill:#444444;fill-opacity:1;fill-rule:nonzero;stroke:none"
             transform="translate(59.493088,280)"><tspan
               id="tspan348"
               y="0"
               x="0">5</tspan></text>
<text
             id="text354"
             style="font-variant:normal;font-weight:normal;font-size:12px;font-family:'Liberation Sans';-inkscape-font-specification:LiberationSans;writing-mode:lr-tb;fill:#444444;fill-opacity:1;fill-rule:nonzero;stroke:none"
             transform="translate(59.493088,164.36)"><tspan
               id="tspan352"
               y="0"
               x="0">1</tspan></text>
<text
             id="text358"
             style="font-variant:normal;font-weight:normal;font-size:12px;font-family:'Liberation Sans';-inkscape-font-specification:LiberationSans;writing-mode:lr-tb;fill:#444444;fill-opacity:1;fill-rule:nonzero;stroke:none"
             transform="translate(141.94308,280)"><tspan
               id="tspan356"
               y="0"
               x="0">8</tspan></text>
<text
             id="text362"
             style="font-variant:normal;font-weight:normal;font-size:12px;font-family:'Liberation Sans';-inkscape-font-specification:LiberationSans;writing-mode:lr-tb;fill:#444444;fill-opacity:1;fill-rule:nonzero;stroke:none"
             transform="translate(141.94308,164.36)"><tspan
               id="tspan360"
               y="0"
               x="0">1</tspan></text>
<text
             id="text366"
             style="font-variant:normal;font-weight:normal;font-size:12px;font-family:'Liberation Sans';-inkscape-font-specification:LiberationSans;writing-mode:lr-tb;fill:#444444;fill-opacity:1;fill-rule:nonzero;stroke:none"
             transform="translate(221.04617,280)"><tspan
               id="tspan364"
               y="0"
               x="0 6.6738281">10</tspan></text>
<text
             id="text370"
             style="font-variant:normal;font-weight:normal;font-size:12px;font-family:'Liberation Sans';-inkscape-font-specification:LiberationSans;writing-mode:lr-tb;fill:#444444;fill-opacity:1;fill-rule:nonzero;stroke:none"
             transform="translate(224.38309,164.36)"><tspan
               id="tspan368"
               y="0"
               x="0">3</tspan></text>
<text
             id="text374"
             style="font-variant:normal;font-weight:normal;font-size:12px;font-family:'Liberation Sans';-inkscape-font-specification:LiberationSans;writing-mode:lr-tb;fill:#444444;fill-opacity:1;fill-rule:nonzero;stroke:none"
             transform="translate(306.8331,280)"><tspan
               id="tspan372"
               y="0"
               x="0">2</tspan></text>
<text
             id="text378"
             style="font-variant:normal;font-weight:normal;font-size:12px;font-family:'Liberation Sans';-inkscape-font-specification:LiberationSans;writing-mode:lr-tb;fill:#444444;fill-opacity:1;fill-rule:nonzero;stroke:none"
             transform="translate(385.93616,280)"><tspan
               id="tspan376"
               y="0"
               x="0 6.6738281">32</tspan></text>
<text
             id="text382"
             style="font-variant:normal;font-weight:normal;font-size:12px;font-family:'Liberation Sans';-inkscape-font-specification:LiberationSans;writing-mode:lr-tb;fill:#444444;fill-opacity:1;fill-rule:nonzero;stroke:none"
             transform="translate(389.27307,164.36)"><tspan
               id="tspan380"
               y="0"
               x="0">1</tspan></text>
<text
             id="text386"
             style="font-variant:normal;font-weight:normal;font-size:12px;font-family:'Liberation Sans';-inkscape-font-specification:LiberationSans;writing-mode:lr-tb;fill:#444444;fill-opacity:1;fill-rule:nonzero;stroke:none"
             transform="translate(389.27307,48.720001)"><tspan
               id="tspan384"
               y="0"
               x="0">4</tspan></text>
<text
             id="text390"
             style="font-variant:normal;font-weight:normal;font-size:12px;font-family:'Liberation Sans';-inkscape-font-specification:LiberationSans;writing-mode:lr-tb;fill:#444444;fill-opacity:1;fill-rule:nonzero;stroke:none"
             transform="translate(471.72308,280)"><tspan
               id="tspan388"
               y="0"
               x="0">3</tspan></text>
<text
             id="text394"
             style="font-variant:normal;font-weight:normal;font-size:12px;font-family:'Liberation Sans';-inkscape-font-specification:LiberationSans;writing-mode:lr-tb;fill:#444444;fill-opacity:1;fill-rule:nonzero;stroke:none"
             transform="translate(554.16309,280)"><tspan
               id="tspan392"
               y="0"
               x="0">1</tspan></text>
</g></g></g><g
       id="g396"><g
         clip-path="url(#clipPath402)"
         id="g398"><g
           transform="matrix(0.64978796,0.37515527,-0.37515527,0.64978796,332.63519,46.340897)"
           id="g404"><text
             id="text408"
             style="font-variant:normal;font-weight:normal;font-size:12px;font-family:'Liberation Sans';-inkscape-font-specification:LiberationSans;writing-mode:lr-tb;fill:#444444;fill-opacity:1;fill-rule:nonzero;stroke:none"
             transform="translate(0,467)"><tspan
               id="tspan406"
               y="0"
               x="0 8.6660156 15.339844 22.013672 28.6875 32.021484 38.695312 42.691406 46.025391 52.699219 58.699219 62.033203 68.707031 75.380859 78.046875">Counterfactuals</tspan></text>
</g><g
           transform="matrix(0.64978796,0.37515527,-0.37515527,0.64978796,394.49829,46.340897)"
           id="g410"><text
             id="text414"
             style="font-variant:normal;font-weight:normal;font-size:12px;font-family:'Liberation Sans';-inkscape-font-specification:LiberationSans;writing-mode:lr-tb;fill:#444444;fill-opacity:1;fill-rule:nonzero;stroke:none"
             transform="translate(0,467)"><tspan
               id="tspan412"
               y="0"
               x="0 8.6660156 15.339844 21.339844 28.013672 38.009766 44.683594 51.357422 57.357422 60.023438 63.357422 66.023438 72.697266">Decomposition</tspan></text>
</g><g
           transform="matrix(0.64978796,0.37515527,-0.37515527,0.64978796,456.35385,46.340897)"
           id="g416"><text
             id="text420"
             style="font-variant:normal;font-weight:normal;font-size:12px;font-family:'Liberation Sans';-inkscape-font-specification:LiberationSans;writing-mode:lr-tb;fill:#444444;fill-opacity:1;fill-rule:nonzero;stroke:none"
             transform="translate(0,467)"><tspan
               id="tspan418"
               y="0"
               x="0 7.3300781 14.003906 20.677734 24.011719 30.685547 34.681641 41.355469 44.689453 47.355469 57.351562 64.025391 70.699219 74.695312 78.029297 84.703125 91.376953 97.376953">Feature importance</tspan></text>
</g><g
           transform="matrix(0.64978796,0.37515527,-0.37515527,0.64978796,518.21704,46.340897)"
           id="g422"><text
             id="text426"
             style="font-variant:normal;font-weight:normal;font-size:12px;font-family:'Liberation Sans';-inkscape-font-specification:LiberationSans;writing-mode:lr-tb;fill:#444444;fill-opacity:1;fill-rule:nonzero;stroke:none"
             transform="translate(0,467)"><tspan
               id="tspan424"
               y="0"
               x="0 3.3339844 10.007812 16.007812 19.341797 26.015625 32.689453 38.689453 45.363281 48.697266 55.371094 61.371094 68.044922 70.710938 77.384766 84.058594 90.732422 94.066406 96.732422 103.40625 110.08008 113.41406 119.41406 126.08789 136.08398 142.75781 149.43164 153.42773 156.09375 162.09375 168.76758">Instance explanation comparison</tspan></text>
</g><g
           transform="matrix(0.64978796,0.37515527,-0.37515527,0.64978796,580.07257,46.340897)"
           id="g428"><text
             id="text432"
             style="font-variant:normal;font-weight:normal;font-size:12px;font-family:'Liberation Sans';-inkscape-font-specification:LiberationSans;writing-mode:lr-tb;fill:#444444;fill-opacity:1;fill-rule:nonzero;stroke:none"
             transform="translate(0,467)"><tspan
               id="tspan430"
               y="0"
               x="0 6.6738281 13.347656 19.347656 26.021484 28.6875 32.021484 34.6875 41.361328 47.361328 50.695312 57.369141 64.042969 70.042969 76.716797 80.050781 86.724609 92.724609 99.398438 102.06445 108.73828 115.41211 122.08594 125.41992 128.08594 134.75977 141.43359">Local instance explanations</tspan></text>
</g><g
           transform="matrix(0.64978796,0.37515527,-0.37515527,0.64978796,641.93567,46.340897)"
           id="g434"><text
             id="text438"
             style="font-variant:normal;font-weight:normal;font-size:12px;font-family:'Liberation Sans';-inkscape-font-specification:LiberationSans;writing-mode:lr-tb;fill:#444444;fill-opacity:1;fill-rule:nonzero;stroke:none"
             transform="translate(0,467)"><tspan
               id="tspan436"
               y="0"
               x="0 8.6660156 15.339844 22.013672 26.009766 32.683594 38.683594 42.017578 45.351562 54.017578 60.691406 63.357422 70.03125 76.705078 83.378906 90.052734 96.726562 100.72266">Nearest Neighbours</tspan></text>
</g><g
           transform="matrix(0.64978796,0.37515527,-0.37515527,0.64978796,703.79126,46.340897)"
           id="g440"><text
             id="text444"
             style="font-variant:normal;font-weight:normal;font-size:12px;font-family:'Liberation Sans';-inkscape-font-specification:LiberationSans;writing-mode:lr-tb;fill:#444444;fill-opacity:1;fill-rule:nonzero;stroke:none"
             transform="translate(0,467)"><tspan
               id="tspan442"
               y="0"
               x="0 8.6660156 15.339844 22.013672 24.679688 31.353516 38.027344 44.027344 47.361328 54.035156 57.369141 60.703125 68.707031 72.703125 76.699219 83.373047">Regions of Error</tspan></text>
</g><g
           transform="matrix(0.75031054,0,0,0.75031054,0,247.60248)"
           id="g446"><text
             id="text450"
             style="font-variant:normal;font-weight:normal;font-size:12px;font-family:'Liberation Sans';-inkscape-font-specification:LiberationSans;writing-mode:lr-tb;fill:#444444;fill-opacity:1;fill-rule:nonzero;stroke:none"
             transform="translate(104.97461,4.1999998)"><tspan
               id="tspan448"
               y="0"
               x="0 9.9960938 16.669922 20.003906 26.677734 33.351562">Method</tspan></text>
</g><g
           transform="matrix(0.75031054,0,0,0.75031054,0,160.83656)"
           id="g452"><text
             id="text456"
             style="font-variant:normal;font-weight:normal;font-size:12px;font-family:'Liberation Sans';-inkscape-font-specification:LiberationSans;writing-mode:lr-tb;fill:#444444;fill-opacity:1;fill-rule:nonzero;stroke:none"
             transform="translate(114.31445,4.1999998)"><tspan
               id="tspan454"
               y="0"
               x="0 8.0039062 11.337891 18.011719 24.685547">Study</tspan></text>
</g><g
           transform="matrix(0.75031054,0,0,0.75031054,0,74.070656)"
           id="g458"><text
             id="text462"
             style="font-variant:normal;font-weight:normal;font-size:12px;font-family:'Liberation Sans';-inkscape-font-specification:LiberationSans;writing-mode:lr-tb;fill:#444444;fill-opacity:1;fill-rule:nonzero;stroke:none"
             transform="translate(107.65234,4.1999998)"><tspan
               id="tspan460"
               y="0"
               x="0 7.3300781 14.003906 20.677734 27.351562 31.347656">Theory</tspan></text>
</g></g></g></g></svg>