<?xml version="1.0" encoding="UTF-8" standalone="no"?>
<svg
   xmlns:dc="http://purl.org/dc/elements/1.1/"
   xmlns:cc="http://creativecommons.org/ns#"
   xmlns:rdf="http://www.w3.org/1999/02/22-rdf-syntax-ns#"
   xmlns:svg="http://www.w3.org/2000/svg"
   xmlns="http://www.w3.org/2000/svg"
   viewBox="0 0 463.84418 366.64749"
   height="366.64749"
   width="463.84418"
   xml:space="preserve"
   id="svg2"
   version="1.1"><metadata
     id="metadata8"><rdf:RDF><cc:Work
         rdf:about=""><dc:format>image/svg+xml</dc:format><dc:type
           rdf:resource="http://purl.org/dc/dcmitype/StillImage" /></cc:Work></rdf:RDF></metadata><defs
     id="defs6"><clipPath
       id="clipPath22"
       clipPathUnits="userSpaceOnUse"><path
         id="path20"
         d="M 195.65312,42.965625 H 340.68313 V 267.78563 H 195.65312 Z" /></clipPath><clipPath
       id="clipPath38"
       clipPathUnits="userSpaceOnUse"><path
         id="path36"
         d="M 195.65312,42.965625 H 340.68313 V 267.78563 H 195.65312 Z" /></clipPath><clipPath
       id="clipPath54"
       clipPathUnits="userSpaceOnUse"><path
         id="path52"
         d="M 195.65312,42.965625 H 340.68313 V 267.78563 H 195.65312 Z" /></clipPath><clipPath
       id="clipPath154"
       clipPathUnits="userSpaceOnUse"><path
         id="path152"
         d="M 195.65312,42.965625 H 340.68313 V 267.78563 H 195.65312 Z" /></clipPath><clipPath
       id="clipPath164"
       clipPathUnits="userSpaceOnUse"><path
         id="path162"
         d="M 195.65312,42.965625 H 340.68313 V 267.78563 H 195.65312 Z" /></clipPath><clipPath
       id="clipPath174"
       clipPathUnits="userSpaceOnUse"><path
         id="path172"
         d="M 195.65312,42.965625 H 340.68313 V 267.78563 H 195.65312 Z" /></clipPath><clipPath
       id="clipPath184"
       clipPathUnits="userSpaceOnUse"><path
         id="path182"
         d="M 195.65312,42.965625 H 340.68313 V 267.78563 H 195.65312 Z" /></clipPath><clipPath
       id="clipPath194"
       clipPathUnits="userSpaceOnUse"><path
         id="path192"
         d="M 195.65312,42.965625 H 340.68313 V 267.78563 H 195.65312 Z" /></clipPath><clipPath
       id="clipPath204"
       clipPathUnits="userSpaceOnUse"><path
         id="path202"
         d="M 195.65312,42.965625 H 340.68313 V 267.78563 H 195.65312 Z" /></clipPath><clipPath
       id="clipPath214"
       clipPathUnits="userSpaceOnUse"><path
         id="path212"
         d="M 195.65312,42.965625 H 340.68313 V 267.78563 H 195.65312 Z" /></clipPath><clipPath
       id="clipPath224"
       clipPathUnits="userSpaceOnUse"><path
         id="path222"
         d="M 195.65312,42.965625 H 340.68313 V 267.78563 H 195.65312 Z" /></clipPath><clipPath
       id="clipPath234"
       clipPathUnits="userSpaceOnUse"><path
         id="path232"
         d="M 195.65312,42.965625 H 340.68313 V 267.78563 H 195.65312 Z" /></clipPath><clipPath
       id="clipPath244"
       clipPathUnits="userSpaceOnUse"><path
         id="path242"
         d="M 195.65312,42.965625 H 340.68313 V 267.78563 H 195.65312 Z" /></clipPath><clipPath
       id="clipPath254"
       clipPathUnits="userSpaceOnUse"><path
         id="path252"
         d="M 195.65312,42.965625 H 340.68313 V 267.78563 H 195.65312 Z" /></clipPath><clipPath
       id="clipPath264"
       clipPathUnits="userSpaceOnUse"><path
         id="path262"
         d="M 195.65312,42.965625 H 340.68313 V 267.78563 H 195.65312 Z" /></clipPath><clipPath
       id="clipPath274"
       clipPathUnits="userSpaceOnUse"><path
         id="path272"
         d="M 195.65312,42.965625 H 340.68313 V 267.78563 H 195.65312 Z" /></clipPath><clipPath
       id="clipPath284"
       clipPathUnits="userSpaceOnUse"><path
         id="path282"
         d="M 195.65312,42.965625 H 340.68313 V 267.78563 H 195.65312 Z" /></clipPath><clipPath
       id="clipPath294"
       clipPathUnits="userSpaceOnUse"><path
         id="path292"
         d="M 195.65312,42.965625 H 340.68313 V 267.78563 H 195.65312 Z" /></clipPath><clipPath
       id="clipPath304"
       clipPathUnits="userSpaceOnUse"><path
         id="path302"
         d="M 195.65312,42.965625 H 340.68313 V 267.78563 H 195.65312 Z" /></clipPath><clipPath
       id="clipPath314"
       clipPathUnits="userSpaceOnUse"><path
         id="path312"
         d="M 195.65312,42.965625 H 340.68313 V 267.78563 H 195.65312 Z" /></clipPath><clipPath
       id="clipPath324"
       clipPathUnits="userSpaceOnUse"><path
         id="path322"
         d="M 195.65312,42.965625 H 340.68313 V 267.78563 H 195.65312 Z" /></clipPath><clipPath
       id="clipPath334"
       clipPathUnits="userSpaceOnUse"><path
         id="path332"
         d="M 195.65312,42.965625 H 340.68313 V 267.78563 H 195.65312 Z" /></clipPath><clipPath
       id="clipPath344"
       clipPathUnits="userSpaceOnUse"><path
         id="path342"
         d="M 195.65312,42.965625 H 340.68313 V 267.78563 H 195.65312 Z" /></clipPath><clipPath
       id="clipPath354"
       clipPathUnits="userSpaceOnUse"><path
         id="path352"
         d="M 195.65312,42.965625 H 340.68313 V 267.78563 H 195.65312 Z" /></clipPath><clipPath
       id="clipPath362"
       clipPathUnits="userSpaceOnUse"><path
         id="path360"
         d="M 195.65312,42.965625 H 340.68313 V 267.78563 H 195.65312 Z" /></clipPath><clipPath
       id="clipPath370"
       clipPathUnits="userSpaceOnUse"><path
         id="path368"
         d="M 195.65312,42.965625 H 340.68313 V 267.78563 H 195.65312 Z" /></clipPath><clipPath
       id="clipPath378"
       clipPathUnits="userSpaceOnUse"><path
         id="path376"
         d="M 195.65312,42.965625 H 340.68313 V 267.78563 H 195.65312 Z" /></clipPath><clipPath
       id="clipPath386"
       clipPathUnits="userSpaceOnUse"><path
         id="path384"
         d="M 195.65312,42.965625 H 340.68313 V 267.78563 H 195.65312 Z" /></clipPath><clipPath
       id="clipPath394"
       clipPathUnits="userSpaceOnUse"><path
         id="path392"
         d="M 195.65312,42.965625 H 340.68313 V 267.78563 H 195.65312 Z" /></clipPath><clipPath
       id="clipPath402"
       clipPathUnits="userSpaceOnUse"><path
         id="path400"
         d="M 195.65312,42.965625 H 340.68313 V 267.78563 H 195.65312 Z" /></clipPath><clipPath
       id="clipPath410"
       clipPathUnits="userSpaceOnUse"><path
         id="path408"
         d="M 195.65312,42.965625 H 340.68313 V 267.78563 H 195.65312 Z" /></clipPath><clipPath
       id="clipPath418"
       clipPathUnits="userSpaceOnUse"><path
         id="path416"
         d="M 195.65312,42.965625 H 340.68313 V 267.78563 H 195.65312 Z" /></clipPath><clipPath
       id="clipPath426"
       clipPathUnits="userSpaceOnUse"><path
         id="path424"
         d="M 195.65312,42.965625 H 340.68313 V 267.78563 H 195.65312 Z" /></clipPath><clipPath
       id="clipPath434"
       clipPathUnits="userSpaceOnUse"><path
         id="path432"
         d="M 195.65312,42.965625 H 340.68313 V 267.78563 H 195.65312 Z" /></clipPath><clipPath
       id="clipPath442"
       clipPathUnits="userSpaceOnUse"><path
         id="path440"
         d="M 195.65312,42.965625 H 340.68313 V 267.78563 H 195.65312 Z" /></clipPath><clipPath
       id="clipPath450"
       clipPathUnits="userSpaceOnUse"><path
         id="path448"
         d="M 195.65312,42.965625 H 340.68313 V 267.78563 H 195.65312 Z" /></clipPath><clipPath
       id="clipPath458"
       clipPathUnits="userSpaceOnUse"><path
         id="path456"
         d="M 195.65312,42.965625 H 340.68313 V 267.78563 H 195.65312 Z" /></clipPath><clipPath
       id="clipPath466"
       clipPathUnits="userSpaceOnUse"><path
         id="path464"
         d="M 195.65312,42.965625 H 340.68313 V 267.78563 H 195.65312 Z" /></clipPath><clipPath
       id="clipPath474"
       clipPathUnits="userSpaceOnUse"><path
         id="path472"
         d="M 195.65312,42.965625 H 340.68313 V 267.78563 H 195.65312 Z" /></clipPath><clipPath
       id="clipPath482"
       clipPathUnits="userSpaceOnUse"><path
         id="path480"
         d="M 195.65312,42.965625 H 340.68313 V 267.78563 H 195.65312 Z" /></clipPath><clipPath
       id="clipPath490"
       clipPathUnits="userSpaceOnUse"><path
         id="path488"
         d="M 195.65312,42.965625 H 340.68313 V 267.78563 H 195.65312 Z" /></clipPath><clipPath
       id="clipPath498"
       clipPathUnits="userSpaceOnUse"><path
         id="path496"
         d="M 195.65312,42.965625 H 340.68313 V 267.78563 H 195.65312 Z" /></clipPath><clipPath
       id="clipPath506"
       clipPathUnits="userSpaceOnUse"><path
         id="path504"
         d="M 195.65312,42.965625 H 340.68313 V 267.78563 H 195.65312 Z" /></clipPath></defs><g
     transform="matrix(1.3333333,0,0,-1.3333333,0,366.6475)"
     id="g10"><path
       id="path12"
       style="fill:#ffffff;fill-opacity:1;fill-rule:nonzero;stroke:none"
       d="M 0,0 H 347.88312 V 274.98562 H 0 Z" /><path
       id="path14"
       style="fill:#eaeaf2;fill-opacity:1;fill-rule:nonzero;stroke:none"
       d="m 195.65312,42.965625 h 145.03 V 267.78562 h -145.03 z" /><g
       id="g16"><g
         clip-path="url(#clipPath22)"
         id="g18"><path
           id="path24"
           style="fill:none;stroke:#ffffff;stroke-width:1;stroke-linecap:round;stroke-linejoin:round;stroke-miterlimit:10;stroke-dasharray:none;stroke-opacity:1"
           d="M 195.65312,42.965625 V 267.78562" /></g></g><g
       id="g26"><text
         id="text30"
         style="font-variant:normal;font-weight:normal;font-size:11px;font-family:'DejaVu Sans';-inkscape-font-specification:DejaVuSans;writing-mode:lr-tb;fill:#262626;fill-opacity:1;fill-rule:nonzero;stroke:none"
         transform="matrix(1,0,0,-1,192.15312,25.10625)"><tspan
           id="tspan28"
           y="0"
           x="0">0</tspan></text>
</g><g
       id="g32"><g
         clip-path="url(#clipPath38)"
         id="g34"><path
           id="path40"
           style="fill:none;stroke:#ffffff;stroke-width:1;stroke-linecap:round;stroke-linejoin:round;stroke-miterlimit:10;stroke-dasharray:none;stroke-opacity:1"
           d="M 248.77767,42.965625 V 267.78562" /></g></g><g
       id="g42"><text
         id="text46"
         style="font-variant:normal;font-weight:normal;font-size:11px;font-family:'DejaVu Sans';-inkscape-font-specification:DejaVuSans;writing-mode:lr-tb;fill:#262626;fill-opacity:1;fill-rule:nonzero;stroke:none"
         transform="matrix(1,0,0,-1,245.27767,25.10625)"><tspan
           id="tspan44"
           y="0"
           x="0">5</tspan></text>
</g><g
       id="g48"><g
         clip-path="url(#clipPath54)"
         id="g50"><path
           id="path56"
           style="fill:none;stroke:#ffffff;stroke-width:1;stroke-linecap:round;stroke-linejoin:round;stroke-miterlimit:10;stroke-dasharray:none;stroke-opacity:1"
           d="M 301.90221,42.965625 V 267.78562" /></g></g><g
       id="g58"><text
         id="text62"
         style="font-variant:normal;font-weight:normal;font-size:11px;font-family:'DejaVu Sans';-inkscape-font-specification:DejaVuSans;writing-mode:lr-tb;fill:#262626;fill-opacity:1;fill-rule:nonzero;stroke:none"
         transform="matrix(1,0,0,-1,294.90221,25.10625)"><tspan
           id="tspan60"
           y="0"
           x="0 6.9959998">10</tspan></text>
<text
         id="text66"
         style="font-variant:normal;font-weight:normal;font-size:12px;font-family:'DejaVu Sans';-inkscape-font-specification:DejaVuSans;writing-mode:lr-tb;fill:#262626;fill-opacity:1;fill-rule:nonzero;stroke:none"
         transform="matrix(1,0,0,-1,251.23844,9.7)"><tspan
           id="tspan64"
           y="0"
           x="0 6.5999999 13.944 21.552 29.16">count</tspan></text>
<text
         id="text70"
         style="font-variant:normal;font-weight:normal;font-size:11px;font-family:'DejaVu Sans';-inkscape-font-specification:DejaVuSans;writing-mode:lr-tb;fill:#262626;fill-opacity:1;fill-rule:nonzero;stroke:none"
         transform="matrix(1,0,0,-1,90.309375,257.98544)"><tspan
           id="tspan68"
           y="0"
           x="0 10.714 17.457001 23.507 30.481001 33.539001 40.513 47.278 50.776001 53.834 60.598999 67.342003 71.862999 78.836998 81.894997 88.869003">machine learning</tspan></text>
<text
         id="text74"
         style="font-variant:normal;font-weight:normal;font-size:11px;font-family:'DejaVu Sans';-inkscape-font-specification:DejaVuSans;writing-mode:lr-tb;fill:#262626;fill-opacity:1;fill-rule:nonzero;stroke:none"
         transform="matrix(1,0,0,-1,104.18437,246.74444)"><tspan
           id="tspan72"
           y="0"
           x="0 3.0580001 10.032 14.344 21.108999 25.629999 32.615002 37.136002 43.901001 48.213001 54.956001 61.941002 64.999001 68.056999 71.114998 75.427002">interpretability</tspan></text>
<text
         id="text78"
         style="font-variant:normal;font-weight:normal;font-size:11px;font-family:'DejaVu Sans';-inkscape-font-specification:DejaVuSans;writing-mode:lr-tb;fill:#262626;fill-opacity:1;fill-rule:nonzero;stroke:none"
         transform="matrix(1,0,0,-1,17.16875,235.50344)"><tspan
           id="tspan76"
           y="0"
           x="0 3.0580001 9.823 16.566 21.087 28.061001 31.118999 38.092999 45.077999 48.576 52.866001 59.609001 64.129997 68.442001 71.5 75.372002 78.43 84.480003 87.538002 94.280998 97.338997 100.837 103.895 110.869 115.181 121.946 125.004 128.062 131.12 138.105 144.87 151.84399 157.894 164.659">learning (artificial intelligence)</tspan></text>
<text
         id="text82"
         style="font-variant:normal;font-weight:normal;font-size:11px;font-family:'DejaVu Sans';-inkscape-font-specification:DejaVuSans;writing-mode:lr-tb;fill:#262626;fill-opacity:1;fill-rule:nonzero;stroke:none"
         transform="matrix(1,0,0,-1,117.41875,224.26244)"><tspan
           id="tspan80"
           y="0"
           x="0 6.5120001 9.5699997 15.301 22.275 29.018 32.076 35.133999 40.909 47.652 51.964001 55.021999 61.754002">visualization</tspan></text>
<text
         id="text86"
         style="font-variant:normal;font-weight:normal;font-size:11px;font-family:'DejaVu Sans';-inkscape-font-specification:DejaVuSans;writing-mode:lr-tb;fill:#262626;fill-opacity:1;fill-rule:nonzero;stroke:none"
         transform="matrix(1,0,0,-1,110.075,213.02144)"><tspan
           id="tspan84"
           y="0"
           x="0 6.9850001 13.75 20.514999 27.5 30.997999 34.056 40.820999 47.563999 52.084999 59.058998 62.117001 69.091003">deep learning</tspan></text>
<text
         id="text90"
         style="font-variant:normal;font-weight:normal;font-size:11px;font-family:'DejaVu Sans';-inkscape-font-specification:DejaVuSans;writing-mode:lr-tb;fill:#262626;fill-opacity:1;fill-rule:nonzero;stroke:none"
         transform="matrix(1,0,0,-1,29.090625,201.78044)"><tspan
           id="tspan88"
           y="0"
           x="0 6.974 13.717 18.028999 25.003 29.524 36.266998 39.325001 42.823002 45.881001 52.624001 59.598 66.583 73.556999 80.300003 87.285004 94.050003 97.547997 104.533 109.054 115.786 121.836 128.601 134.332 140.063 143.121 150.095">natural language processing</tspan></text>
<text
         id="text94"
         style="font-variant:normal;font-weight:normal;font-size:11px;font-family:'DejaVu Sans';-inkscape-font-specification:DejaVuSans;writing-mode:lr-tb;fill:#262626;fill-opacity:1;fill-rule:nonzero;stroke:none"
         transform="matrix(1,0,0,-1,51.996875,190.53944)"><tspan
           id="tspan92"
           y="0"
           x="0 6.0500002 12.782 23.496 30.481001 37.455002 41.766998 48.509998 52.821999 55.880001 62.612 69.585999 76.329002 79.387001 82.885002 93.598999 100.331 107.316 114.081 117.139 120.197 127.171">computational modeling</tspan></text>
<text
         id="text98"
         style="font-variant:normal;font-weight:normal;font-size:11px;font-family:'DejaVu Sans';-inkscape-font-specification:DejaVuSans;writing-mode:lr-tb;fill:#262626;fill-opacity:1;fill-rule:nonzero;stroke:none"
         transform="matrix(1,0,0,-1,109.21563,179.29844)"><tspan
           id="tspan96"
           y="0"
           x="0 6.7649999 13.277 20.261999 23.32 30.063 33.120998 40.095001 46.838001 53.823002 56.881001 63.646 67.143997 73.887001">explainable ai</tspan></text>
<text
         id="text102"
         style="font-variant:normal;font-weight:normal;font-size:11px;font-family:'DejaVu Sans';-inkscape-font-specification:DejaVuSans;writing-mode:lr-tb;fill:#262626;fill-opacity:1;fill-rule:nonzero;stroke:none"
         transform="matrix(1,0,0,-1,70.871875,168.05744)"><tspan
           id="tspan100"
           y="0"
           x="0 6.9850001 13.728 18.040001 22.351999 29.117001 33.638 40.612 44.110001 50.16 53.217999 59.960999 65.692001 71.422997 74.481003 78.352997 81.411003 87.460999 94.204002 98.515999 101.574 108.306">pattern classification</tspan></text>
<text
         id="text106"
         style="font-variant:normal;font-weight:normal;font-size:11px;font-family:'DejaVu Sans';-inkscape-font-specification:DejaVuSans;writing-mode:lr-tb;fill:#262626;fill-opacity:1;fill-rule:nonzero;stroke:none"
         transform="matrix(1,0,0,-1,49.215625,156.81644)"><tspan
           id="tspan104"
           y="0"
           x="0 6.743 11.264 15.576 18.634001 22.506001 25.563999 31.614 34.672001 41.415001 44.473 47.971001 54.945 61.709999 68.683998 73.205002 79.947998 83.005997 86.503998 93.477997 100.243 104.555 113.553 120.285 124.806 131.175">artificial neural networks</tspan></text>
<text
         id="text110"
         style="font-variant:normal;font-weight:normal;font-size:11px;font-family:'DejaVu Sans';-inkscape-font-specification:DejaVuSans;writing-mode:lr-tb;fill:#262626;fill-opacity:1;fill-rule:nonzero;stroke:none"
         transform="matrix(1,0,0,-1,87.621875,145.57544)"><tspan
           id="tspan108"
           y="0"
           x="0 6.9850001 11.506 18.271 25.256001 28.313999 34.363998 38.675999 41.734001 48.245998 55.011002 58.508999 69.223 75.955002 82.940002 89.705002 92.763">predictive models</tspan></text>
<text
         id="text114"
         style="font-variant:normal;font-weight:normal;font-size:11px;font-family:'DejaVu Sans';-inkscape-font-specification:DejaVuSans;writing-mode:lr-tb;fill:#262626;fill-opacity:1;fill-rule:nonzero;stroke:none"
         transform="matrix(1,0,0,-1,121.30937,134.33444)"><tspan
           id="tspan112"
           y="0"
           x="0 6.7649999 13.277 20.261999 23.32 30.063 37.036999 43.779999 48.091999 51.150002 57.882">explanation</tspan></text>
<text
         id="text118"
         style="font-variant:normal;font-weight:normal;font-size:11px;font-family:'DejaVu Sans';-inkscape-font-specification:DejaVuSans;writing-mode:lr-tb;fill:#262626;fill-opacity:1;fill-rule:nonzero;stroke:none"
         transform="matrix(1,0,0,-1,66.2,123.09344)"><tspan
           id="tspan116"
           y="0"
           x="0 6.9850001 13.75 20.514999 27.5 30.997999 37.972 44.737 51.710999 56.231998 62.974998 66.032997 69.530998 76.504997 83.269997 87.582001 96.580002 103.312 107.833 114.202">deep neural networks</tspan></text>
<text
         id="text122"
         style="font-variant:normal;font-weight:normal;font-size:11px;font-family:'DejaVu Sans';-inkscape-font-specification:DejaVuSans;writing-mode:lr-tb;fill:#262626;fill-opacity:1;fill-rule:nonzero;stroke:none"
         transform="matrix(1,0,0,-1,19.79375,111.85244)"><tspan
           id="tspan120"
           y="0"
           x="0 6.0500002 12.782 19.756001 26.268 33 36.057999 43.032001 47.344002 50.402 57.133999 64.108002 70.850998 73.908997 77.406998 84.380997 91.146004 98.120003 102.641 109.384 112.442 115.94 122.914 129.679 133.991 142.989 149.72099 154.242 160.61099">convolutional neural networks</tspan></text>
<text
         id="text126"
         style="font-variant:normal;font-weight:normal;font-size:11px;font-family:'DejaVu Sans';-inkscape-font-specification:DejaVuSans;writing-mode:lr-tb;fill:#262626;fill-opacity:1;fill-rule:nonzero;stroke:none"
         transform="matrix(1,0,0,-1,114.95,100.61144)"><tspan
           id="tspan124"
           y="0"
           x="0 4.3119998 11.055 16.785999 23.155001 26.653 33.396 40.369999 47.112999 50.171001 56.682999 62.414001 65.472">task analysis</tspan></text>
<text
         id="text130"
         style="font-variant:normal;font-weight:normal;font-size:11px;font-family:'DejaVu Sans';-inkscape-font-specification:DejaVuSans;writing-mode:lr-tb;fill:#262626;fill-opacity:1;fill-rule:nonzero;stroke:none"
         transform="matrix(1,0,0,-1,42.278125,89.370437)"><tspan
           id="tspan128"
           y="0"
           x="0 4.5209999 11.286 17.336 24.309999 28.830999 33.352001 40.117001 47.091 51.403 54.901001 61.875 68.639999 75.613998 80.135002 86.877998 89.935997 93.433998 100.408 107.173 111.485 120.483 127.215 131.73599 138.105">recurrent neural networks</tspan></text>
<text
         id="text134"
         style="font-variant:normal;font-weight:normal;font-size:11px;font-family:'DejaVu Sans';-inkscape-font-specification:DejaVuSans;writing-mode:lr-tb;fill:#262626;fill-opacity:1;fill-rule:nonzero;stroke:none"
         transform="matrix(1,0,0,-1,48.996875,78.129437)"><tspan
           id="tspan132"
           y="0"
           x="0 5.7309999 12.705 19.690001 26.674999 33.407001 37.928001 42.240002 45.737999 52.25 59.014999 65.065002 69.376999 76.109001 80.629997 84.127998 94.842003 101.585 107.635 114.609 117.667 124.641 131.40601">support vector machines</tspan></text>
<text
         id="text138"
         style="font-variant:normal;font-weight:normal;font-size:11px;font-family:'DejaVu Sans';-inkscape-font-specification:DejaVuSans;writing-mode:lr-tb;fill:#262626;fill-opacity:1;fill-rule:nonzero;stroke:none"
         transform="matrix(1,0,0,-1,110.10625,66.888437)"><tspan
           id="tspan136"
           y="0"
           x="0 3.0580001 10.032 14.344 21.108999 25.629999 32.615002 37.136002 43.901001 48.213001 54.956001 59.268002 62.326 69.057999">interpretation</tspan></text>
<text
         id="text142"
         style="font-variant:normal;font-weight:normal;font-size:11px;font-family:'DejaVu Sans';-inkscape-font-specification:DejaVuSans;writing-mode:lr-tb;fill:#262626;fill-opacity:1;fill-rule:nonzero;stroke:none"
         transform="matrix(1,0,0,-1,7.2,55.647437)"><tspan
           id="tspan140"
           y="0"
           x="0 6.7649999 13.277 20.261999 23.32 30.063 33.120998 40.095001 46.838001 53.823002 56.881001 63.646 67.143997 73.887001 78.407997 82.720001 85.778 89.650002 92.708 98.758003 101.816 108.559 111.617 115.115 118.173 125.147 129.459 136.224 139.282 142.34 145.39799 152.383 159.14799 166.12199 172.172">explainable artificial intelligence</tspan></text>
<text
         id="text146"
         style="font-variant:normal;font-weight:normal;font-size:11px;font-family:'DejaVu Sans';-inkscape-font-specification:DejaVuSans;writing-mode:lr-tb;fill:#262626;fill-opacity:1;fill-rule:nonzero;stroke:none"
         transform="matrix(1,0,0,-1,117.8875,44.406437)"><tspan
           id="tspan144"
           y="0"
           x="0 6.9850001 13.728 18.040001 24.783001 28.281 38.994999 45.727001 52.712002 59.477001 62.535">data models</tspan></text>
</g><g
       id="g148"><g
         clip-path="url(#clipPath154)"
         id="g150"><path
           id="path156"
           style="fill:#ea96a3;fill-opacity:1;fill-rule:nonzero;stroke:#ffffff;stroke-width:1;stroke-linecap:butt;stroke-linejoin:miter;stroke-miterlimit:10;stroke-dasharray:none;stroke-opacity:1"
           d="m 195.65312,266.66152 h 138.12381 v -8.9928 H 195.65312 Z" /></g></g><g
       id="g158"><g
         clip-path="url(#clipPath164)"
         id="g160"><path
           id="path166"
           style="fill:#e79683;fill-opacity:1;fill-rule:nonzero;stroke:#ffffff;stroke-width:1;stroke-linecap:butt;stroke-linejoin:miter;stroke-miterlimit:10;stroke-dasharray:none;stroke-opacity:1"
           d="m 195.65312,255.42052 h 116.874 v -8.9928 h -116.874 z" /></g></g><g
       id="g168"><g
         clip-path="url(#clipPath174)"
         id="g170"><path
           id="path176"
           style="fill:#d7944e;fill-opacity:1;fill-rule:nonzero;stroke:#ffffff;stroke-width:1;stroke-linecap:butt;stroke-linejoin:miter;stroke-miterlimit:10;stroke-dasharray:none;stroke-opacity:1"
           d="m 195.65312,244.17952 h 95.62418 v -8.9928 h -95.62418 z" /></g></g><g
       id="g178"><g
         clip-path="url(#clipPath184)"
         id="g180"><path
           id="path186"
           style="fill:#bf9a4a;fill-opacity:1;fill-rule:nonzero;stroke:#ffffff;stroke-width:1;stroke-linecap:butt;stroke-linejoin:miter;stroke-miterlimit:10;stroke-dasharray:none;stroke-opacity:1"
           d="m 195.65312,232.93852 h 63.74946 v -8.9928 h -63.74946 z" /></g></g><g
       id="g188"><g
         clip-path="url(#clipPath194)"
         id="g190"><path
           id="path196"
           style="fill:#ab9e47;fill-opacity:1;fill-rule:nonzero;stroke:#ffffff;stroke-width:1;stroke-linecap:butt;stroke-linejoin:miter;stroke-miterlimit:10;stroke-dasharray:none;stroke-opacity:1"
           d="m 195.65312,221.69752 h 63.74946 v -8.9928 h -63.74946 z" /></g></g><g
       id="g198"><g
         clip-path="url(#clipPath204)"
         id="g200"><path
           id="path206"
           style="fill:#98a246;fill-opacity:1;fill-rule:nonzero;stroke:#ffffff;stroke-width:1;stroke-linecap:butt;stroke-linejoin:miter;stroke-miterlimit:10;stroke-dasharray:none;stroke-opacity:1"
           d="m 195.65312,210.45652 h 63.74946 v -8.9928 h -63.74946 z" /></g></g><g
       id="g208"><g
         clip-path="url(#clipPath214)"
         id="g210"><path
           id="path216"
           style="fill:#7fa946;fill-opacity:1;fill-rule:nonzero;stroke:#ffffff;stroke-width:1;stroke-linecap:butt;stroke-linejoin:miter;stroke-miterlimit:10;stroke-dasharray:none;stroke-opacity:1"
           d="m 195.65312,199.21552 h 53.12455 v -8.9928 h -53.12455 z" /></g></g><g
       id="g218"><g
         clip-path="url(#clipPath224)"
         id="g220"><path
           id="path226"
           style="fill:#48b052;fill-opacity:1;fill-rule:nonzero;stroke:#ffffff;stroke-width:1;stroke-linecap:butt;stroke-linejoin:miter;stroke-miterlimit:10;stroke-dasharray:none;stroke-opacity:1"
           d="m 195.65312,187.97452 h 53.12455 v -8.9928 h -53.12455 z" /></g></g><g
       id="g228"><g
         clip-path="url(#clipPath234)"
         id="g230"><path
           id="path236"
           style="fill:#49ae83;fill-opacity:1;fill-rule:nonzero;stroke:#ffffff;stroke-width:1;stroke-linecap:butt;stroke-linejoin:miter;stroke-miterlimit:10;stroke-dasharray:none;stroke-opacity:1"
           d="m 195.65312,176.73352 h 53.12455 v -8.9928 h -53.12455 z" /></g></g><g
       id="g238"><g
         clip-path="url(#clipPath244)"
         id="g240"><path
           id="path246"
           style="fill:#4aad96;fill-opacity:1;fill-rule:nonzero;stroke:#ffffff;stroke-width:1;stroke-linecap:butt;stroke-linejoin:miter;stroke-miterlimit:10;stroke-dasharray:none;stroke-opacity:1"
           d="m 195.65312,165.49252 h 42.49964 v -8.9928 h -42.49964 z" /></g></g><g
       id="g248"><g
         clip-path="url(#clipPath254)"
         id="g250"><path
           id="path256"
           style="fill:#4baba4;fill-opacity:1;fill-rule:nonzero;stroke:#ffffff;stroke-width:1;stroke-linecap:butt;stroke-linejoin:miter;stroke-miterlimit:10;stroke-dasharray:none;stroke-opacity:1"
           d="m 195.65312,154.25152 h 42.49964 v -8.9928 h -42.49964 z" /></g></g><g
       id="g258"><g
         clip-path="url(#clipPath264)"
         id="g260"><path
           id="path266"
           style="fill:#4dabb2;fill-opacity:1;fill-rule:nonzero;stroke:#ffffff;stroke-width:1;stroke-linecap:butt;stroke-linejoin:miter;stroke-miterlimit:10;stroke-dasharray:none;stroke-opacity:1"
           d="m 195.65312,143.01052 h 42.49964 v -8.9928 h -42.49964 z" /></g></g><g
       id="g268"><g
         clip-path="url(#clipPath274)"
         id="g270"><path
           id="path276"
           style="fill:#50acc3;fill-opacity:1;fill-rule:nonzero;stroke:#ffffff;stroke-width:1;stroke-linecap:butt;stroke-linejoin:miter;stroke-miterlimit:10;stroke-dasharray:none;stroke-opacity:1"
           d="m 195.65312,131.76952 h 42.49964 v -8.99279 h -42.49964 z" /></g></g><g
       id="g278"><g
         clip-path="url(#clipPath284)"
         id="g280"><path
           id="path286"
           style="fill:#56addb;fill-opacity:1;fill-rule:nonzero;stroke:#ffffff;stroke-width:1;stroke-linecap:butt;stroke-linejoin:miter;stroke-miterlimit:10;stroke-dasharray:none;stroke-opacity:1"
           d="m 195.65312,120.52853 h 42.49964 v -8.9928 h -42.49964 z" /></g></g><g
       id="g288"><g
         clip-path="url(#clipPath294)"
         id="g290"><path
           id="path296"
           style="fill:#94aee8;fill-opacity:1;fill-rule:nonzero;stroke:#ffffff;stroke-width:1;stroke-linecap:butt;stroke-linejoin:miter;stroke-miterlimit:10;stroke-dasharray:none;stroke-opacity:1"
           d="m 195.65312,109.28753 h 42.49964 v -8.9928 h -42.49964 z" /></g></g><g
       id="g298"><g
         clip-path="url(#clipPath304)"
         id="g300"><path
           id="path306"
           style="fill:#b6a8eb;fill-opacity:1;fill-rule:nonzero;stroke:#ffffff;stroke-width:1;stroke-linecap:butt;stroke-linejoin:miter;stroke-miterlimit:10;stroke-dasharray:none;stroke-opacity:1"
           d="m 195.65312,98.046525 h 31.87473 v -8.9928 h -31.87473 z" /></g></g><g
       id="g308"><g
         clip-path="url(#clipPath314)"
         id="g310"><path
           id="path316"
           style="fill:#ce9be9;fill-opacity:1;fill-rule:nonzero;stroke:#ffffff;stroke-width:1;stroke-linecap:butt;stroke-linejoin:miter;stroke-miterlimit:10;stroke-dasharray:none;stroke-opacity:1"
           d="m 195.65312,86.805525 h 31.87473 v -8.9928 h -31.87473 z" /></g></g><g
       id="g318"><g
         clip-path="url(#clipPath324)"
         id="g320"><path
           id="path326"
           style="fill:#e689e4;fill-opacity:1;fill-rule:nonzero;stroke:#ffffff;stroke-width:1;stroke-linecap:butt;stroke-linejoin:miter;stroke-miterlimit:10;stroke-dasharray:none;stroke-opacity:1"
           d="m 195.65312,75.564525 h 31.87473 v -8.9928 h -31.87473 z" /></g></g><g
       id="g328"><g
         clip-path="url(#clipPath334)"
         id="g330"><path
           id="path336"
           style="fill:#e88fcc;fill-opacity:1;fill-rule:nonzero;stroke:#ffffff;stroke-width:1;stroke-linecap:butt;stroke-linejoin:miter;stroke-miterlimit:10;stroke-dasharray:none;stroke-opacity:1"
           d="m 195.65312,64.323525 h 31.87473 v -8.9928 h -31.87473 z" /></g></g><g
       id="g338"><g
         clip-path="url(#clipPath344)"
         id="g340"><path
           id="path346"
           style="fill:#e993b9;fill-opacity:1;fill-rule:nonzero;stroke:#ffffff;stroke-width:1;stroke-linecap:butt;stroke-linejoin:miter;stroke-miterlimit:10;stroke-dasharray:none;stroke-opacity:1"
           d="m 195.65312,53.082525 h 31.87473 v -8.9928 h -31.87473 z" /></g></g><g
       id="g348"><g
         clip-path="url(#clipPath354)"
         id="g350" /></g><g
       id="g356"><g
         clip-path="url(#clipPath362)"
         id="g358" /></g><g
       id="g364"><g
         clip-path="url(#clipPath370)"
         id="g366" /></g><g
       id="g372"><g
         clip-path="url(#clipPath378)"
         id="g374" /></g><g
       id="g380"><g
         clip-path="url(#clipPath386)"
         id="g382" /></g><g
       id="g388"><g
         clip-path="url(#clipPath394)"
         id="g390" /></g><g
       id="g396"><g
         clip-path="url(#clipPath402)"
         id="g398" /></g><g
       id="g404"><g
         clip-path="url(#clipPath410)"
         id="g406" /></g><g
       id="g412"><g
         clip-path="url(#clipPath418)"
         id="g414" /></g><g
       id="g420"><g
         clip-path="url(#clipPath426)"
         id="g422" /></g><g
       id="g428"><g
         clip-path="url(#clipPath434)"
         id="g430" /></g><g
       id="g436"><g
         clip-path="url(#clipPath442)"
         id="g438" /></g><g
       id="g444"><g
         clip-path="url(#clipPath450)"
         id="g446" /></g><g
       id="g452"><g
         clip-path="url(#clipPath458)"
         id="g454" /></g><g
       id="g460"><g
         clip-path="url(#clipPath466)"
         id="g462" /></g><g
       id="g468"><g
         clip-path="url(#clipPath474)"
         id="g470" /></g><g
       id="g476"><g
         clip-path="url(#clipPath482)"
         id="g478" /></g><g
       id="g484"><g
         clip-path="url(#clipPath490)"
         id="g486" /></g><g
       id="g492"><g
         clip-path="url(#clipPath498)"
         id="g494" /></g><g
       id="g500"><g
         clip-path="url(#clipPath506)"
         id="g502" /></g><g
       id="g508"><path
         id="path510"
         style="fill:none;stroke:#ffffff;stroke-width:1.25;stroke-linecap:square;stroke-linejoin:miter;stroke-miterlimit:10;stroke-dasharray:none;stroke-opacity:1"
         d="M 195.65312,42.965625 V 267.78562" /><path
         id="path512"
         style="fill:none;stroke:#ffffff;stroke-width:1.25;stroke-linecap:square;stroke-linejoin:miter;stroke-miterlimit:10;stroke-dasharray:none;stroke-opacity:1"
         d="M 340.68312,42.965625 V 267.78562" /><path
         id="path514"
         style="fill:none;stroke:#ffffff;stroke-width:1.25;stroke-linecap:square;stroke-linejoin:miter;stroke-miterlimit:10;stroke-dasharray:none;stroke-opacity:1"
         d="m 195.65312,42.965625 h 145.03" /><path
         id="path516"
         style="fill:none;stroke:#ffffff;stroke-width:1.25;stroke-linecap:square;stroke-linejoin:miter;stroke-miterlimit:10;stroke-dasharray:none;stroke-opacity:1"
         d="m 195.65312,267.78562 h 145.03" /></g></g></svg>